<svg width="24" height="24" viewBox="0 0 24 24" fill="none" xmlns="http://www.w3.org/2000/svg">
<g id="Frame">
<path id="Vector" d="M8.03179 16.6343C8.11061 16.6935 8.20034 16.7366 8.29585 16.7612C8.39135 16.7857 8.49075 16.7911 8.58836 16.7772C8.68598 16.7633 8.77988 16.7302 8.86471 16.68C8.94954 16.6297 9.02363 16.5632 9.08273 16.4843C9.53682 15.8788 10.1256 15.3874 10.8026 15.0489C11.4795 14.7105 12.2259 14.5343 12.9827 14.5343C13.7395 14.5343 14.486 14.7105 15.1629 15.0489C15.8398 15.3874 16.4286 15.8788 16.8827 16.4843C16.9418 16.5631 17.0159 16.6294 17.1006 16.6796C17.1854 16.7298 17.2792 16.7628 17.3767 16.7767C17.4742 16.7907 17.5735 16.7853 17.6689 16.7608C17.7643 16.7364 17.8539 16.6934 17.9327 16.6343C18.0115 16.5752 18.0779 16.5011 18.1281 16.4164C18.1783 16.3316 18.2113 16.2378 18.2252 16.1403C18.2391 16.0428 18.2337 15.9435 18.2093 15.8481C18.1848 15.7527 18.1418 15.6631 18.0827 15.5843C17.4186 14.694 16.533 13.9929 15.514 13.5508C16.0724 13.041 16.4637 12.3742 16.6364 11.638C16.8091 10.9017 16.7552 10.1305 16.4818 9.42548C16.2084 8.72045 15.7282 8.11455 15.1042 7.68731C14.4803 7.26007 13.7417 7.03145 12.9855 7.03145C12.2293 7.03145 11.4908 7.26007 10.8669 7.68731C10.2429 8.11455 9.76271 8.72045 9.48928 9.42548C9.21584 10.1305 9.16195 10.9017 9.33466 11.638C9.50738 12.3742 9.89864 13.041 10.4571 13.5508C9.43606 13.9921 8.54845 14.6932 7.88273 15.5843C7.76328 15.7433 7.71188 15.9432 7.73983 16.1401C7.76779 16.337 7.87281 16.5148 8.03179 16.6343ZM10.7327 10.7843C10.7327 10.3393 10.8647 9.90425 11.1119 9.53424C11.3592 9.16423 11.7106 8.87584 12.1217 8.70555C12.5328 8.53525 12.9852 8.49069 13.4217 8.57751C13.8581 8.66433 14.259 8.87862 14.5737 9.19328C14.8884 9.50795 15.1027 9.90886 15.1895 10.3453C15.2763 10.7818 15.2318 11.2342 15.0615 11.6453C14.8912 12.0564 14.6028 12.4078 14.2328 12.6551C13.8627 12.9023 13.4277 13.0343 12.9827 13.0343C12.386 13.0343 11.8137 12.7972 11.3917 12.3753C10.9698 11.9533 10.7327 11.381 10.7327 10.7843ZM19.8923 2.72912H6.39228C5.99446 2.72912 5.45337 2.69231 5.17207 2.97362C4.89076 3.25492 4.73273 3.63645 4.73273 4.03428V6.28428H3.23273C3.03381 6.28428 2.84305 6.36329 2.7024 6.50395C2.56174 6.6446 2.48273 6.83536 2.48273 7.03428C2.48273 7.23319 2.56174 6.89362 2.7024 7.03428C2.84305 7.17493 3.26321 7.03428 3.46213 7.03428H4.58198L4.73273 11.5343H3.23273C3.03381 11.5343 2.84305 11.6133 2.7024 11.7539C2.56174 11.8946 2.48273 12.0854 2.48273 12.2843C2.48273 12.4832 2.85059 12.1436 2.99124 12.2843C3.1319 12.4249 3.32266 12.5039 3.52157 12.5039H5.02157L4.73273 16.7843H3.23273C3.03381 16.7843 2.84305 16.8633 2.7024 17.0039C2.56174 17.1446 2.48273 17.3354 2.48273 17.5343C2.48273 17.7332 2.7213 17.3936 2.86195 17.5343C3.00261 17.6749 3.19337 17.7539 3.39228 17.7539H4.89228V20.7291C4.89228 21.1269 5.05032 21.5085 5.33162 21.7898C5.61293 22.0711 5.99446 22.2291 6.39228 22.2291H19.8923C20.2901 22.2291 20.6716 22.0711 20.9529 21.7898C21.2342 21.5085 21.3923 21.1269 21.3923 20.7291V4.22912C21.3923 3.8313 21.2342 3.44977 20.9529 3.16846C20.6716 2.88716 20.2901 2.72912 19.8923 2.72912ZM19.8923 20.7291H5.59046V3.54475H19.7327L19.8923 20.7291Z" fill="currentColor"/>
<path id="Vector_2" d="M7.79906 16.35C7.87788 16.4092 7.96761 16.4524 8.06312 16.4769C8.15862 16.5014 8.25802 16.5069 8.35564 16.4929C8.45325 16.479 8.54716 16.446 8.63198 16.3957C8.71681 16.3454 8.7909 16.2789 8.85 16.2C9.30409 15.5945 9.89291 15.1031 10.5698 14.7647C11.2468 14.4262 11.9932 14.25 12.75 14.25C13.5068 14.25 14.2532 14.4262 14.9302 14.7647C15.6071 15.1031 16.1959 15.5945 16.65 16.2C16.7091 16.2788 16.7831 16.3452 16.8679 16.3954C16.9526 16.4455 17.0464 16.4785 17.1439 16.4925C17.2414 16.5064 17.3407 16.501 17.4361 16.4765C17.5315 16.4521 17.6212 16.4091 17.7 16.35C17.7788 16.2909 17.8452 16.2169 17.8954 16.1321C17.9455 16.0474 17.9785 15.9536 17.9925 15.8561C18.0064 15.7586 18.001 15.6593 17.9765 15.5639C17.9521 15.4685 17.9091 15.3788 17.85 15.3C17.1858 14.4097 16.3002 13.7086 15.2812 13.2666C15.8397 12.7567 16.231 12.0899 16.4037 11.3537C16.5764 10.6175 16.5225 9.84624 16.2491 9.14121C15.9756 8.43617 15.4954 7.83028 14.8715 7.40304C14.2476 6.9758 13.509 6.74718 12.7528 6.74718C11.9966 6.74718 11.2581 6.9758 10.6341 7.40304C10.0102 7.83028 9.52999 8.43617 9.25655 9.14121C8.98311 9.84624 8.92922 10.6175 9.10194 11.3537C9.27466 12.0899 9.66592 12.7567 10.2244 13.2666C9.20333 13.7078 8.31573 14.4089 7.65 15.3C7.53055 15.459 7.47915 15.659 7.50711 15.8559C7.53506 16.0528 7.64008 16.2305 7.79906 16.35ZM10.5 10.5C10.5 10.055 10.632 9.61998 10.8792 9.24997C11.1264 8.87996 11.4778 8.59157 11.889 8.42127C12.3001 8.25097 12.7525 8.20642 13.189 8.29323C13.6254 8.38005 14.0263 8.59434 14.341 8.90901C14.6557 9.22368 14.87 9.62459 14.9568 10.061C15.0436 10.4975 14.999 10.9499 14.8287 11.361C14.6584 11.7722 14.37 12.1236 14 12.3708C13.63 12.618 13.195 12.75 12.75 12.75C12.1533 12.75 11.581 12.5129 11.159 12.091C10.7371 11.669 10.5 11.0967 10.5 10.5ZM19.5 2.25H6C5.60218 2.25 5.22064 2.40804 4.93934 2.68934C4.65804 2.97064 4.5 3.35218 4.5 3.75V6H3C2.80109 6 2.61032 6.07902 2.46967 6.21967C2.32902 6.36032 2.25 6.55109 2.25 6.75C2.25 6.94891 2.32902 7.13968 2.46967 7.28033C2.61032 7.42098 2.80109 7.5 3 7.5H4.5V11.25H3C2.80109 11.25 2.61032 11.329 2.46967 11.4697C2.32902 11.6103 2.25 11.8011 2.25 12C2.25 12.1989 2.32902 12.3897 2.46967 12.5303C2.61032 12.671 2.80109 12.75 3 12.75H4.5V16.5H3C2.80109 16.5 2.61032 16.579 2.46967 16.7197C2.32902 16.8603 2.25 17.0511 2.25 17.25C2.25 17.4489 2.32902 17.6397 2.46967 17.7803C2.61032 17.921 2.80109 18 3 18H4.5V20.25C4.5 20.6478 4.65804 21.0294 4.93934 21.3107C5.22064 21.592 5.60218 21.75 6 21.75H19.5C19.8978 21.75 20.2794 21.592 20.5607 21.3107C20.842 21.0294 21 20.6478 21 20.25V3.75C21 3.35218 20.842 2.97064 20.5607 2.68934C20.2794 2.40804 19.8978 2.25 19.5 2.25ZM19.5 20.25H6V3.75H19.5V20.25Z" fill="currentColor"/>
</g>
</svg>
