<svg width="16" height="16" viewBox="0 0 16 16" fill="none" xmlns="http://www.w3.org/2000/svg">
    <path
        d="M5.33329 11.3333C5.33329 11.7015 5.63177 12 5.99996 12C6.36815 12 6.66663 11.7015 6.66663 11.3333C6.66663 10.1103 6.09975 9.2547 5.3714 8.66667L14.6666 8.66667C15.0348 8.66667 15.3333 8.36819 15.3333 8C15.3333 7.63181 15.0348 7.33333 14.6666 7.33333L5.3714 7.33333C6.09975 6.7453 6.66663 5.88969 6.66663 4.66667C6.66663 4.29848 6.36815 4 5.99996 4C5.63177 4 5.33329 4.29848 5.33329 4.66667C5.33329 5.74295 4.62104 6.39966 3.63944 6.82064C2.65461 7.243 1.5821 7.33333 1.33329 7.33333C0.965103 7.33333 0.666626 7.63181 0.666626 8C0.666626 8.36819 0.965103 8.66667 1.33329 8.66667C1.5821 8.66667 2.65461 8.757 3.63944 9.17936C4.62104 9.60034 5.33329 10.257 5.33329 11.3333Z"
        fill="currentColor" />
    <path
        d="M10.6667 4.66667C10.6667 4.29848 10.3682 4 10 4C9.63185 4 9.33337 4.29848 9.33337 4.66667C9.33337 5.88969 9.90025 6.7453 10.6286 7.33333L1.33337 7.33333C0.965185 7.33333 0.666707 7.63181 0.666707 8C0.666707 8.36819 0.965185 8.66666 1.33337 8.66666L10.6286 8.66667C9.90025 9.2547 9.33337 10.1103 9.33337 11.3333C9.33337 11.7015 9.63185 12 10 12C10.3682 12 10.6667 11.7015 10.6667 11.3333C10.6667 10.257 11.379 9.60034 12.3606 9.17936C13.3454 8.757 14.4179 8.66667 14.6667 8.66667C15.0349 8.66667 15.3334 8.36819 15.3334 8C15.3334 7.63181 15.0349 7.33333 14.6667 7.33333C14.4179 7.33333 13.3454 7.243 12.3606 6.82064C11.379 6.39966 10.6667 5.74295 10.6667 4.66667Z"
        fill="currentColor" />
</svg>