<svg width="37" height="33" viewBox="0 0 37 33" fill="none" xmlns="http://www.w3.org/2000/svg">
<path opacity="0.2" d="M31.6641 30.7498H4.33282C2.36095 30.7498 1.12345 28.6857 2.08126 27.0139L15.7469 3.28418C16.7313 1.56543 19.2656 1.56543 20.25 3.28418L33.9156 27.0139C34.8734 28.6857 33.636 30.7498 31.6641 30.7498Z" fill="currentColor"/>
<path d="M34.9987 26.3892L21.3347 2.65948C20.9932 2.07811 20.5058 1.59607 19.9206 1.26113C19.3355 0.9262 18.673 0.75 17.9987 0.75C17.3245 0.75 16.662 0.9262 16.0769 1.26113C15.4917 1.59607 15.0043 2.07811 14.6628 2.65948L0.998747 26.3892C0.670209 26.9515 0.49707 27.591 0.49707 28.2423C0.49707 28.8935 0.670209 29.5331 0.998747 30.0954C1.33583 30.6803 1.82245 31.165 2.40869 31.4997C2.99492 31.8344 3.65966 32.0071 4.33468 32.0001H31.6628C32.3373 32.0066 33.0014 31.8336 33.587 31.4989C34.1727 31.1642 34.6588 30.6798 34.9956 30.0954C35.3246 29.5334 35.4983 28.894 35.4989 28.2427C35.4994 27.5915 35.3268 26.9518 34.9987 26.3892ZM32.8316 28.8439C32.7124 29.0471 32.5414 29.2149 32.336 29.3302C32.1307 29.4456 31.8983 29.5042 31.6628 29.5001H4.33468C4.09918 29.5042 3.86683 29.4456 3.66145 29.3302C3.45607 29.2149 3.28505 29.0471 3.16593 28.8439C3.05803 28.6612 3.00112 28.4529 3.00112 28.2407C3.00112 28.0286 3.05803 27.8203 3.16593 27.6376L16.83 3.90792C16.9515 3.70568 17.1233 3.53834 17.3287 3.42217C17.534 3.30599 17.7659 3.24494 18.0019 3.24494C18.2378 3.24494 18.4697 3.30599 18.6751 3.42217C18.8804 3.53834 19.0522 3.70568 19.1737 3.90792L32.8378 27.6376C32.9448 27.8208 33.0006 28.0294 32.9995 28.2416C32.9984 28.4537 32.9404 28.6617 32.8316 28.8439ZM16.7487 19.5001V13.2501C16.7487 12.9186 16.8804 12.6006 17.1149 12.3662C17.3493 12.1318 17.6672 12.0001 17.9987 12.0001C18.3303 12.0001 18.6482 12.1318 18.8826 12.3662C19.1171 12.6006 19.2487 12.9186 19.2487 13.2501V19.5001C19.2487 19.8316 19.1171 20.1496 18.8826 20.384C18.6482 20.6184 18.3303 20.7501 17.9987 20.7501C17.6672 20.7501 17.3493 20.6184 17.1149 20.384C16.8804 20.1496 16.7487 19.8316 16.7487 19.5001ZM19.8737 25.1251C19.8737 25.4959 19.7638 25.8585 19.5578 26.1668C19.3517 26.4751 19.0589 26.7155 18.7163 26.8574C18.3737 26.9993 17.9967 27.0364 17.633 26.9641C17.2692 26.8917 16.9351 26.7132 16.6729 26.4509C16.4107 26.1887 16.2321 25.8546 16.1598 25.4909C16.0874 25.1272 16.1246 24.7502 16.2665 24.4076C16.4084 24.065 16.6487 23.7721 16.9571 23.5661C17.2654 23.3601 17.6279 23.2501 17.9987 23.2501C18.496 23.2501 18.9729 23.4476 19.3246 23.7993C19.6762 24.1509 19.8737 24.6278 19.8737 25.1251Z" fill="currentColor"/>
<path d="M36.0329 27.2241L22.3689 3.49444C22.0274 2.91307 21.54 2.43103 20.9548 2.0961C20.3697 1.76116 19.7071 1.58496 19.0329 1.58496C18.3587 1.58496 17.6962 1.76116 17.111 2.0961C16.5259 2.43103 16.0384 2.91307 15.697 3.49444L2.03293 27.2241C1.70439 27.7864 1.53125 28.426 1.53125 29.0773C1.53125 29.7285 1.70439 30.3681 2.03293 30.9304C2.37 31.5153 2.85663 31.9999 3.44287 32.3346C4.0291 32.6694 4.69384 32.8421 5.36886 32.8351H32.697C33.3715 32.8415 34.0356 32.6685 34.6212 32.3338C35.2068 31.9992 35.693 31.5148 36.0298 30.9304C36.3588 30.3683 36.5325 29.7289 36.533 29.0777C36.5336 28.4264 36.361 27.7867 36.0329 27.2241ZM33.8657 29.6788C33.7466 29.882 33.5756 30.0499 33.3702 30.1652C33.1648 30.2805 32.9325 30.3391 32.697 30.3351H5.36886C5.13336 30.3391 4.90101 30.2805 4.69563 30.1652C4.49025 30.0499 4.31923 29.882 4.20011 29.6788C4.09221 29.4961 3.07809 29.4443 3.07809 29.2321C3.07809 29.02 2.54337 27.9807 2.65127 27.798L16.0346 4.44357C16.1562 4.24134 17.2261 2.98967 17.4315 2.87349C17.6368 2.75732 18.797 3.23908 19.0329 3.23908C19.2689 3.23908 19.5039 4.14095 19.7093 4.25713C19.9146 4.37331 20.0864 4.54065 20.2079 4.74288L33.872 28.4726C33.9789 28.6558 34.0348 28.8644 34.0337 29.0765C34.0326 29.2887 33.9746 29.4967 33.8657 29.6788Z" fill="currentColor"/>
</svg>
