<svg width="25" height="24" viewBox="0 0 25 24" fill="none" xmlns="http://www.w3.org/2000/svg">
<path d="M2.58337 9.75002H4.83337V15.75H3.33337C3.13446 15.75 2.9437 15.829 2.80304 15.9697C2.66239 16.1103 2.58337 16.3011 2.58337 16.5C2.58337 16.6989 2.66239 16.8897 2.80304 17.0304C2.9437 17.171 3.13446 17.25 3.33337 17.25H21.3334C21.5323 17.25 21.7231 17.171 21.8637 17.0304C22.0044 16.8897 22.0834 16.6989 22.0834 16.5C22.0834 16.3011 22.0044 16.1103 21.8637 15.9697C21.7231 15.829 21.5323 15.75 21.3334 15.75H19.8334V9.75002H22.0834C22.2466 9.74986 22.4052 9.69648 22.5353 9.59797C22.6654 9.49947 22.7599 9.36122 22.8043 9.2042C22.8487 9.04717 22.8407 8.87995 22.7815 8.72788C22.7223 8.57582 22.6151 8.44722 22.4762 8.36159L12.7262 2.36158C12.608 2.28894 12.4721 2.25049 12.3334 2.25049C12.1947 2.25049 12.0587 2.28894 11.9406 2.36158L2.19056 8.36159C2.05165 8.44722 1.94446 8.57582 1.88525 8.72788C1.82603 8.87995 1.81803 9.04717 1.86246 9.2042C1.90688 9.36122 2.00131 9.49947 2.13141 9.59797C2.26151 9.69648 2.42019 9.74986 2.58337 9.75002ZM6.33337 9.75002H9.33337V15.75H6.33337V9.75002ZM13.8334 9.75002V15.75H10.8334V9.75002H13.8334ZM18.3334 15.75H15.3334V9.75002H18.3334V15.75ZM12.3334 3.88033L19.434 8.25002H5.23275L12.3334 3.88033ZM23.5834 19.5C23.5834 19.6989 23.5044 19.8897 23.3637 20.0304C23.2231 20.171 23.0323 20.25 22.8334 20.25H1.83337C1.63446 20.25 1.4437 20.171 1.30304 20.0304C1.16239 19.8897 1.08337 19.6989 1.08337 19.5C1.08337 19.3011 1.16239 19.1103 1.30304 18.9697C1.4437 18.829 1.63446 18.75 1.83337 18.75H22.8334C23.0323 18.75 23.2231 18.829 23.3637 18.9697C23.5044 19.1103 23.5834 19.3011 23.5834 19.5Z" fill="#7D00FE"/>
</svg>
