<svg width="25" height="24" viewBox="0 0 25 24" fill="currentcolor" color="#5BBC7A" xmlns="http://www.w3.org/2000/svg">
    <path
        d="M2.58331 9.75002H4.83331V15.75H3.33331C3.1344 15.75 2.94364 15.829 2.80298 15.9697C2.66233 16.1103 2.58331 16.3011 2.58331 16.5C2.58331 16.6989 2.66233 16.8897 2.80298 17.0304C2.94364 17.171 3.1344 17.25 3.33331 17.25H21.3333C21.5322 17.25 21.723 17.171 21.8636 17.0304C22.0043 16.8897 22.0833 16.6989 22.0833 16.5C22.0833 16.3011 22.0043 16.1103 21.8636 15.9697C21.723 15.829 21.5322 15.75 21.3333 15.75H19.8333V9.75002H22.0833C22.2465 9.74986 22.4052 9.69648 22.5353 9.59797C22.6654 9.49947 22.7598 9.36122 22.8042 9.2042C22.8487 9.04717 22.8407 8.87995 22.7814 8.72788C22.7222 8.57582 22.615 8.44722 22.4761 8.36159L12.7261 2.36158C12.608 2.28894 12.472 2.25049 12.3333 2.25049C12.1946 2.25049 12.0586 2.28894 11.9405 2.36158L2.1905 8.36159C2.05159 8.44722 1.9444 8.57582 1.88518 8.72788C1.82597 8.87995 1.81797 9.04717 1.8624 9.2042C1.90682 9.36122 2.00125 9.49947 2.13135 9.59797C2.26145 9.69648 2.42013 9.74986 2.58331 9.75002ZM6.33331 9.75002H9.33331V15.75H6.33331V9.75002ZM13.8333 9.75002V15.75H10.8333V9.75002H13.8333ZM18.3333 15.75H15.3333V9.75002H18.3333V15.75ZM12.3333 3.88033L19.4339 8.25002H5.23269L12.3333 3.88033ZM23.5833 19.5C23.5833 19.6989 23.5043 19.8897 23.3636 20.0304C23.223 20.171 23.0322 20.25 22.8333 20.25H1.83331C1.6344 20.25 1.44364 20.171 1.30298 20.0304C1.16233 19.8897 1.08331 19.6989 1.08331 19.5C1.08331 19.3011 1.16233 19.1103 1.30298 18.9697C1.44364 18.829 1.6344 18.75 1.83331 18.75H22.8333C23.0322 18.75 23.223 18.829 23.3636 18.9697C23.5043 19.1103 23.5833 19.3011 23.5833 19.5Z" />
</svg>