<svg width="25" height="24" viewBox="0 0 25 24" fill="none" xmlns="http://www.w3.org/2000/svg">
<circle cx="5.50806" cy="15.4475" r="3" fill="currentColor"/>
<path d="M5.50806 14.8797C5.50806 13.3683 5.92684 11.8959 6.70472 10.6491C7.48223 9.40287 8.58038 8.44242 9.85209 7.87828C11.1228 7.3146 12.5166 7.16841 13.8604 7.45469C15.205 7.74111 16.45 8.45012 17.434 9.50391" stroke="currentColor" stroke-width="2" stroke-linecap="round"/>
<circle cx="19.5081" cy="15.4475" r="3" fill="currentColor"/>
<circle cx="5.25" cy="15" r="3" fill="currentColor"/>
<path d="M5.25 14.4539C5.25 12.9738 5.65166 11.5302 6.39995 10.2991C7.14793 9.06858 8.207 8.10761 9.44051 7.52293C10.6731 6.93869 12.0326 6.75209 13.3568 6.9815C14.6816 7.21101 15.9246 7.84901 16.9318 8.82893" stroke="currentColor" stroke-width="2" stroke-linecap="round"/>
<circle cx="19.25" cy="15" r="3" fill="currentColor"/>
</svg>
