<svg width="24" height="24" viewBox="0 0 24 24" fill="none" xmlns="http://www.w3.org/2000/svg">
<g id="Icon / Brush">
<path id="Vector" d="M15.457 9.675L15.314 9.533C14.6441 8.8886 13.8219 8.42449 12.924 8.184C10.017 7.405 7.225 9.053 6.432 12.014C6.389 12.174 6.366 12.354 6.328 12.805C6.174 14.675 5.734 16.07 4.528 17.485C6.788 18.373 9.466 18.999 11.502 18.999C12.7124 18.9974 13.8886 18.597 14.8485 17.8596C15.8083 17.1223 16.4985 16.0891 16.812 14.92C17.0579 14.0031 17.0622 13.0381 16.8246 12.119C16.5869 11.1999 16.1165 10.3579 15.457 9.675ZM13.288 6.213L18.227 2.371C18.4194 2.22175 18.6597 2.14783 18.9027 2.16311C19.1457 2.17839 19.3748 2.28182 19.547 2.454L22.542 5.448C22.714 5.62032 22.8173 5.84949 22.8324 6.09251C22.8475 6.33553 22.7734 6.57571 22.624 6.768L18.784 11.707C19.0548 12.8114 19.071 13.9629 18.8315 15.0745C18.5921 16.1861 18.1031 17.2288 17.4017 18.1237C16.7002 19.0187 15.8046 19.7426 14.7823 20.2407C13.7601 20.7388 12.6381 20.9981 11.501 20.999C8 20.999 3.5 19.497 1 17.997C4.98 14.997 4.047 13.187 4.5 11.497C5.558 7.547 9.341 5.239 13.288 6.213ZM16.7 8.092C16.7653 8.15533 16.83 8.21967 16.894 8.285L18.03 9.42L20.505 6.238L18.759 4.492L15.577 6.967L16.7 8.092Z" fill="currentColor"/>
<path id="Vector_2" d="M16.5145 10.5229L16.3097 10.0445C15.6398 9.40015 14.989 8.23767 14.0912 7.99718C11.1842 7.21818 7.58009 7.33855 6.78709 10.2996C6.39129 9.31023 5.76703 12.7 5.72903 13.151C5.57503 15.021 4.98954 16.2413 3.78354 17.6563C6.04354 18.5443 10.0121 19.6236 12.0481 19.6236C13.2585 19.622 14.4347 19.2215 15.3946 18.4842C16.3545 17.7468 17.0446 16.7136 17.3581 15.5445C17.604 14.6276 17.6083 13.6626 17.3707 12.7435C17.1331 11.8244 17.174 11.2058 16.5145 10.5229ZM13.8341 6.83755L18.7731 2.99555C18.9655 2.8463 19.2058 2.77238 19.4488 2.78766C19.6918 2.80294 19.993 2.94225 20.1652 3.11442L23.0068 5.9059C23.1789 6.07822 23.3634 6.47404 23.3785 6.71706C23.3936 6.96008 23.3195 7.20026 23.1701 7.39255L19.3301 12.3315C19.6009 13.436 19.6171 14.5874 19.3777 15.699C19.1382 16.8107 18.6493 17.8533 17.9478 18.7483C17.2463 19.6432 16.3507 20.3671 15.3285 20.8652C14.3063 21.3633 13.1842 21.6226 12.0471 21.6236C8.54611 21.6236 3.875 19.6992 1.375 18.1992C5.355 15.1992 4.59311 13.8116 5.04611 12.1215C6.10411 8.17155 9.88711 5.86355 13.8341 6.83755ZM17.2461 8.71655C17.3114 8.77988 17.3761 8.84422 17.4401 8.90955L18.5761 10.0445L21.0511 6.86255L19.0402 3.90143L15.1151 6.71706L17.2461 8.71655Z" fill="currentColor"/>
</g>
</svg>
