<svg width="25" height="24" viewBox="0 0 25 24" fill="currentcolor" color="#5BBC7A" xmlns="http://www.w3.org/2000/svg">
    <path fill-rule="evenodd" clip-rule="evenodd"
        d="M4.19378 6.35484H20.0078C20.2646 6.35484 20.4729 6.55704 20.4729 6.80646V8.61291H3.72866V6.80646C3.72866 6.55704 3.9369 6.35484 4.19378 6.35484ZM3.72866 10.4194H20.4729V16.742C20.4729 16.9914 20.2646 17.1936 20.0078 17.1936H4.19378C3.9369 17.1936 3.72866 16.9914 3.72866 16.742V10.4194ZM2.33331 6.80646C2.33331 5.80878 3.16627 5 4.19378 5H20.0078C20.6403 5 21.1991 5.3065 21.5353 5.77489C22.0177 6.10127 22.3333 6.64386 22.3333 7.25803V17.1935C22.3333 18.1912 21.5004 19 20.4728 19H4.65887C4.02633 19 3.46753 18.6935 3.13138 18.2251C2.64898 17.8987 2.33331 17.3561 2.33331 16.742V6.80646ZM6.05425 14.0323C5.54049 14.0323 5.12401 14.4367 5.12401 14.9355C5.12401 15.4343 5.54049 15.8387 6.05425 15.8387H11.6357C12.1494 15.8387 12.5659 15.4343 12.5659 14.9355C12.5659 14.4367 12.1494 14.0323 11.6357 14.0323H6.05425Z" />
</svg>