<svg width="16" height="16" viewBox="0 0 16 16" fill="none" xmlns="http://www.w3.org/2000/svg">
<path d="M13.9999 6.66667V12.6667C13.9999 13.0203 13.8594 13.3594 13.6094 13.6095C13.3593 13.8595 13.0202 14 12.6666 14H3.33325C2.97963 14 2.64049 13.8595 2.39044 13.6095C2.14039 13.3594 1.99992 13.0203 1.99992 12.6667V6.66667H13.9999ZM9.33325 8.66667H6.66658C6.48977 8.66667 6.3202 8.73691 6.19518 8.86193C6.07016 8.98695 5.99992 9.15652 5.99992 9.33333C5.99992 9.51014 6.07016 9.67971 6.19518 9.80474C6.3202 9.92976 6.48977 10 6.66658 10H9.33325C9.51006 10 9.67963 9.92976 9.80466 9.80474C9.92968 9.67971 9.99992 9.51014 9.99992 9.33333C9.99992 9.15652 9.92968 8.98695 9.80466 8.86193C9.67963 8.73691 9.51006 8.66667 9.33325 8.66667ZM13.3333 2C13.6869 2 14.026 2.14048 14.2761 2.39052C14.5261 2.64057 14.6666 2.97971 14.6666 3.33333V5.33333H1.33325V3.33333C1.33325 2.97971 1.47373 2.64057 1.72378 2.39052C1.97382 2.14048 2.31296 2 2.66659 2H13.3333Z" fill="currentColor"/>
</svg>
