<svg xmlns="http://www.w3.org/2000/svg" width="16" height="16" viewBox="0 0 16 16" fill="none">
    <path fill-rule="evenodd" clip-rule="evenodd" d="M12.929 7.99271C12.929 11.2735 10.2694 13.9331 6.98865 13.9331C3.70788 13.9331 1.0483 11.2735 1.0483 7.99271C1.0483 4.71195 3.70788 2.05236 6.98865 2.05236C10.2694 2.05236 12.929 4.71195 12.929 7.99271ZM10.5508 4.98608C10.8604 5.21654 10.9246 5.65436 10.6941 5.96398L7.29233 10.5341C6.91238 11.0445 6.16901 11.1015 5.71572 10.6549L3.35329 8.32749C3.07833 8.05661 3.07503 7.61413 3.34591 7.33917C3.61679 7.06422 4.05927 7.06092 4.33423 7.3318L6.41076 9.37757L9.57293 5.12939C9.8034 4.81978 10.2412 4.75561 10.5508 4.98608Z" fill="url(#paint0_linear_7331_26700)" />
    <path fill-rule="evenodd" clip-rule="evenodd" d="M12.929 7.99271C12.929 11.2735 10.2694 13.9331 6.98865 13.9331C3.70788 13.9331 1.0483 11.2735 1.0483 7.99271C1.0483 4.71195 3.70788 2.05236 6.98865 2.05236C10.2694 2.05236 12.929 4.71195 12.929 7.99271ZM0 7.99271C0 4.13299 3.13007 1.09818 6.98865 1.00406C11.0402 0.905241 14.4256 4.29063 14.3267 8.34214C14.2326 12.2007 11.1978 15.3308 7.3381 15.3308C5.31942 15.3308 3.50065 14.4749 2.22487 13.1062C0.856009 11.8304 0 10.0115 0 7.99271Z" fill="url(#paint1_linear_7331_26700)" />
    <defs>
        <linearGradient id="paint0_linear_7331_26700" x1="0" y1="1.00195" x2="14.3289" y2="1.00191" gradientUnits="userSpaceOnUse">
            <stop stop-color="#FBC56A" />
            <stop offset="1" stop-color="#FE910F" />
        </linearGradient>
        <linearGradient id="paint1_linear_7331_26700" x1="0" y1="1.00195" x2="14.3289" y2="1.00191" gradientUnits="userSpaceOnUse">
            <stop stop-color="#FBC56A" />
            <stop offset="1" stop-color="#FE910F" />
        </linearGradient>
    </defs>
</svg>