<svg width="24" height="24" viewBox="0 0 24 24" fill="none" xmlns="http://www.w3.org/2000/svg">
    <g clip-path="url(#clip0_796_7754)">
        <path
            d="M10.9524 4.69555C11.4446 5.07635 11.7199 5.57453 11.8125 6.18694C11.8249 6.41603 11.8235 6.6448 11.8216 6.87413C11.8215 6.93974 11.8213 7.00535 11.8212 7.07095C11.8209 7.24226 11.82 7.41356 11.8189 7.58486C11.818 7.76022 11.8175 7.93557 11.8171 8.11092C11.8161 8.45397 11.8145 8.79702 11.8125 9.14006C11.8713 9.12492 11.9301 9.10978 11.9907 9.09417C12.531 8.95506 13.0563 9.05475 13.5476 9.30614C14.0412 9.60084 14.3098 9.97211 14.5312 10.4994C14.5312 10.5304 14.5312 10.5613 14.5312 10.5932C14.5641 10.5787 14.597 10.5642 14.6309 10.5492C15.1634 10.3524 15.7647 10.428 16.2724 10.6608C16.8032 10.9485 17.1255 11.3437 17.3437 11.9057C17.3738 12.0352 17.3855 12.1473 17.3906 12.2807C17.4235 12.2662 17.4564 12.2517 17.4902 12.2367C18.0277 12.0381 18.6062 12.115 19.125 12.3276C19.6861 12.5962 20.0716 13.0123 20.2862 13.5983C20.3839 13.8971 20.4108 14.1646 20.4088 14.4778C20.4092 14.5507 20.4092 14.5507 20.4096 14.6251C20.4102 14.7846 20.4098 14.9441 20.4093 15.1036C20.4094 15.2156 20.4095 15.3276 20.4097 15.4396C20.4099 15.6739 20.4096 15.9083 20.409 16.1427C20.4082 16.4411 20.4086 16.7395 20.4095 17.0379C20.41 17.2691 20.4098 17.5004 20.4094 17.7317C20.4093 17.8416 20.4095 17.9515 20.4098 18.0614C20.4116 18.8296 20.3807 19.5693 20.124 20.3022C20.1121 20.3368 20.1003 20.3714 20.088 20.407C19.8129 21.1759 19.3537 21.8141 18.7969 22.4057C18.7693 22.4369 18.7416 22.468 18.7132 22.5002C17.9317 23.3452 16.6322 23.9489 15.4821 24.0057C15.4386 24.0059 15.395 24.0061 15.3502 24.0063C15.2998 24.0067 15.2494 24.007 15.1975 24.0074C15.1157 24.0075 15.1157 24.0075 15.0322 24.0077C14.9741 24.008 14.9161 24.0084 14.8563 24.0087C14.6643 24.0096 14.4722 24.0101 14.2802 24.0106C14.2137 24.0108 14.1472 24.011 14.0806 24.0112C13.7675 24.0121 13.4545 24.0127 13.1414 24.0131C12.7823 24.0136 12.4232 24.0148 12.0642 24.0167C11.7852 24.0181 11.5063 24.0188 11.2274 24.019C11.0615 24.0191 10.8956 24.0195 10.7297 24.0207C8.98888 24.0326 7.53137 23.6039 6.26952 22.3676C5.10555 21.1908 4.71001 19.7137 4.71569 18.0992C4.7156 18.0027 4.71546 17.9062 4.71528 17.8097C4.71508 17.6089 4.71537 17.4082 4.71603 17.2075C4.71684 16.9513 4.71637 16.6951 4.71553 16.4389C4.71502 16.2402 4.71519 16.0415 4.71555 15.8428C4.71564 15.7483 4.71553 15.6539 4.7152 15.5594C4.71484 15.4273 4.71539 15.2953 4.71617 15.1632C4.71589 15.125 4.7156 15.0867 4.71531 15.0473C4.7213 14.4952 4.94031 13.9839 5.30987 13.5756C5.75108 13.1594 6.26732 12.9755 6.86425 12.975C6.89884 12.9745 6.93344 12.9739 6.96908 12.9733C7.02006 12.9732 7.02006 12.9732 7.07207 12.973C7.10249 12.9728 7.13292 12.9726 7.16426 12.9724C7.29918 12.9876 7.4188 13.0335 7.54687 13.0776C7.54674 13.042 7.54661 13.0064 7.54647 12.9698C7.54336 12.1032 7.54104 11.2365 7.53958 10.3699C7.53886 9.9508 7.53787 9.5317 7.53626 9.1126C7.53485 8.74717 7.53395 8.38175 7.53364 8.01632C7.53345 7.82295 7.53303 7.62959 7.532 7.43623C7.53104 7.25393 7.53075 7.07165 7.53096 6.88936C7.53092 6.82273 7.53065 6.75611 7.5301 6.68949C7.5245 5.96608 7.69504 5.41413 8.19195 4.87792C8.96301 4.16337 10.0861 4.13348 10.9524 4.69555ZM9.18749 5.95256C8.99792 6.22395 8.97315 6.42596 8.97661 6.75247C8.97636 6.79925 8.97611 6.84604 8.97585 6.89425C8.97523 7.05064 8.97593 7.20701 8.97663 7.3634C8.97646 7.47568 8.97619 7.58795 8.97585 7.70023C8.97522 7.97328 8.97543 8.24633 8.97597 8.51938C8.97655 8.8375 8.97595 9.1556 8.97524 9.47372C8.97401 10.0414 8.9735 10.609 8.97355 11.1766C8.97355 11.2106 8.97355 11.2445 8.97355 11.2795C8.97357 11.417 8.97358 11.5546 8.9736 11.6921C8.97364 12.0709 8.97358 12.4496 8.97345 12.8284C8.97344 12.8623 8.97343 12.8962 8.97342 12.9312C8.97321 13.4968 8.97245 14.0624 8.97133 14.628C8.97073 14.9454 8.97046 15.2629 8.97094 15.5803C8.97138 15.8787 8.97122 16.177 8.97058 16.4754C8.97047 16.585 8.9706 16.6945 8.97098 16.8041C8.97148 16.9535 8.97112 17.1029 8.97055 17.2524C8.9709 17.2958 8.97126 17.3393 8.97162 17.3841C8.96966 17.6245 8.94702 17.7916 8.81249 17.9994C8.60638 18.1901 8.44558 18.2515 8.16228 18.2468C7.98183 18.2233 7.88092 18.1555 7.73437 18.0463C7.5385 17.7749 7.57475 17.466 7.57635 17.1458C7.57574 17.054 7.57513 16.9621 7.57446 16.8703C7.57306 16.6448 7.57322 16.4194 7.57331 16.1939C7.57332 16.0671 7.57282 15.9403 7.57183 15.8135C7.57095 15.6945 7.57086 15.5754 7.57165 15.4564C7.56879 15.1255 7.54002 14.9047 7.35937 14.6244C7.20149 14.4776 7.07863 14.4249 6.86718 14.4135C6.65705 14.4241 6.53478 14.4832 6.37499 14.6244C6.19358 14.8468 6.16031 15.0246 6.16323 15.3036C6.1629 15.3426 6.16257 15.3816 6.16224 15.4218C6.16141 15.5504 6.16196 15.6789 6.16259 15.8075C6.16246 15.8977 6.16228 15.9878 6.16205 16.078C6.16177 16.2672 6.16217 16.4563 6.16305 16.6455C6.16411 16.8858 6.16351 17.126 6.16238 17.3663C6.16169 17.5528 6.16192 17.7393 6.1624 17.9258C6.16253 18.0142 6.16238 18.1027 6.16194 18.1911C6.15918 18.8994 6.22217 19.5938 6.54491 20.2377C6.56078 20.2703 6.57664 20.3029 6.59299 20.3364C6.76153 20.6687 6.97489 20.9535 7.21874 21.2338C7.26769 21.2906 7.26769 21.2906 7.31762 21.3486C8.07306 22.1623 9.13019 22.5338 10.2187 22.5932C10.5689 22.6024 10.9192 22.6009 11.2694 22.6011C11.3717 22.6012 11.4739 22.6014 11.5762 22.6015C11.79 22.6018 12.0038 22.6019 12.2175 22.6019C12.4892 22.6019 12.7609 22.6025 13.0326 22.6033C13.2437 22.6038 13.4548 22.6039 13.666 22.6039C13.766 22.604 13.8661 22.6042 13.9661 22.6045C14.4373 22.6061 14.9047 22.6028 15.3736 22.5519C15.4066 22.5483 15.4397 22.5447 15.4737 22.541C16.3034 22.4385 17.0609 22.0246 17.6719 21.4682C17.7026 21.4408 17.7333 21.4133 17.7649 21.3851C18.41 20.7771 18.9008 19.7723 18.9422 18.8822C18.9446 18.7594 18.9454 18.6367 18.9458 18.5139C18.9461 18.4673 18.9464 18.4207 18.9467 18.3727C18.9476 18.219 18.9482 18.0654 18.9487 17.9117C18.9489 17.8591 18.949 17.8065 18.9492 17.7523C18.9502 17.4742 18.9509 17.196 18.9513 16.9178C18.9518 16.6307 18.9535 16.3437 18.9553 16.0566C18.9565 15.8355 18.9569 15.6145 18.9571 15.3934C18.9573 15.2876 18.9579 15.1818 18.9587 15.0759C18.9599 14.9278 18.9598 14.7798 18.9595 14.6317C18.9601 14.5882 18.9607 14.5446 18.9613 14.4998C18.9591 14.2199 18.9128 14.057 18.75 13.8276C18.5656 13.6646 18.3965 13.6019 18.1549 13.586C17.9302 13.6009 17.7587 13.6887 17.6044 13.8522C17.3957 14.1489 17.4075 14.4355 17.4111 14.7885C17.4159 15.4701 17.4159 15.4701 17.2031 15.7963C16.985 15.9586 16.7624 15.9704 16.5 15.9369C16.2871 15.8687 16.1773 15.7768 16.07 15.5797C15.9926 15.3572 16.0065 15.1226 16.0085 14.8894C16.0093 14.7914 16.0089 14.6934 16.0083 14.5954C16.0069 14.3521 16.0075 14.1088 16.008 13.8655C16.0084 13.6595 16.008 13.4535 16.0067 13.2475C16.0063 13.1516 16.0071 13.0556 16.0079 12.9597C16.0061 12.6175 15.986 12.3822 15.7969 12.0932C15.6467 11.9643 15.4736 11.9154 15.2812 11.8793C15.0799 11.9171 14.9169 12.0014 14.7656 12.1401C14.6467 12.342 14.6075 12.4893 14.6077 12.7227C14.6074 12.7815 14.6071 12.8403 14.6067 12.901C14.6069 12.932 14.607 12.9631 14.6072 12.9952C14.6076 13.0934 14.6071 13.1915 14.6064 13.2897C14.6045 13.5687 14.6045 13.8477 14.6046 14.1267C14.6046 14.2979 14.6037 14.469 14.6023 14.6401C14.6017 14.7363 14.6023 14.8325 14.6029 14.9286C14.6002 15.2703 14.5818 15.5087 14.3906 15.7963C14.1734 15.958 13.9492 15.9716 13.6875 15.9369C13.4906 15.864 13.3733 15.7902 13.2656 15.6088C13.2039 15.4237 13.212 15.2467 13.2121 15.0537C13.2119 15.0113 13.2118 14.9689 13.2116 14.9252C13.2113 14.8331 13.211 14.7409 13.2108 14.6488C13.2105 14.5027 13.2098 14.3567 13.2089 14.2107C13.2064 13.7955 13.2042 13.3803 13.2035 12.9651C13.203 12.7111 13.2016 12.4572 13.1997 12.2032C13.1991 12.1066 13.1988 12.0099 13.1989 11.9133C13.1991 11.7778 13.198 11.6423 13.1967 11.5068C13.197 11.4671 13.1973 11.4275 13.1976 11.3867C13.1934 11.1165 13.133 10.9142 12.9844 10.6869C12.845 10.5577 12.6883 10.5046 12.4995 10.4923C12.2668 10.5074 12.1151 10.5575 11.9531 10.7338C11.8017 10.9756 11.7925 11.1709 11.7945 11.447C11.7942 11.4896 11.794 11.5321 11.7937 11.576C11.7932 11.6681 11.7931 11.7601 11.7932 11.8522C11.7935 11.998 11.7928 12.1438 11.7919 12.2896C11.7902 12.5992 11.7895 12.9087 11.7891 13.2182C11.7885 13.5769 11.7875 13.9357 11.7853 14.2944C11.7847 14.4379 11.7849 14.5814 11.7851 14.7249C11.7847 14.813 11.7842 14.9012 11.7837 14.9894C11.7839 15.0291 11.7842 15.0689 11.7845 15.1098C11.7821 15.3447 11.7453 15.4948 11.625 15.7026C11.625 15.7335 11.625 15.7644 11.625 15.7963C11.5883 15.8108 11.5515 15.8253 11.5137 15.8403C11.3942 15.8867 11.3942 15.8867 11.2969 15.9369C11.0301 15.9647 10.8223 15.9487 10.5937 15.7963C10.4017 15.5844 10.3994 15.3807 10.4001 15.1068C10.3999 15.051 10.3999 15.051 10.3998 14.9941C10.3995 14.8691 10.3996 14.7441 10.3996 14.6191C10.3995 14.5296 10.3993 14.4402 10.3991 14.3507C10.3987 14.1578 10.3985 13.9649 10.3983 13.772C10.3981 13.4669 10.3973 13.1617 10.3964 12.8566C10.3961 12.7522 10.3958 12.6477 10.3955 12.5433C10.3954 12.491 10.3952 12.4387 10.3951 12.3848C10.3931 11.6743 10.3915 10.9639 10.391 10.2534C10.3906 9.77437 10.3895 9.29531 10.3877 8.81626C10.3868 8.56274 10.3862 8.30924 10.3864 8.05572C10.3867 7.81713 10.386 7.57857 10.3847 7.33998C10.3844 7.25253 10.3844 7.16508 10.3847 7.07763C10.3851 6.95798 10.3844 6.83838 10.3834 6.71873C10.3838 6.68435 10.3842 6.64997 10.3846 6.61455C10.3807 6.36339 10.316 6.16028 10.1719 5.95256C10.024 5.82154 9.87569 5.76963 9.67968 5.74163C9.48422 5.76955 9.33345 5.81681 9.18749 5.95256Z"
            fill="#2C3034" />
        <path
            d="M6.32819 1.4533C6.53394 1.57711 6.70744 1.72275 6.87805 1.89037C6.90229 1.91407 6.92653 1.93778 6.9515 1.9622C7.00232 2.01214 7.05302 2.06222 7.10358 2.11242C7.18037 2.1883 7.25811 2.26312 7.33591 2.33797C7.63098 2.62703 7.87145 2.87915 7.87653 3.31292C7.7991 3.6158 7.66867 3.76277 7.40631 3.93767C7.29132 3.95342 7.29132 3.95342 7.16022 3.95525C7.11744 3.95658 7.07466 3.95791 7.03058 3.95928C6.63372 3.89798 6.37716 3.58661 6.10751 3.31345C6.0383 3.24349 5.96838 3.17432 5.89835 3.10518C5.38018 2.5884 5.38018 2.5884 5.32056 2.26445C5.32828 1.94428 5.38747 1.79956 5.59869 1.55584C5.80557 1.392 6.07954 1.40635 6.32819 1.4533Z"
            fill="#FDBF1E" />
        <path
            d="M13.5469 1.45343C13.7346 1.5473 13.859 1.64937 13.9688 1.82843C14.0443 2.0552 14.0535 2.25386 13.9615 2.47304C13.8613 2.6495 13.745 2.77478 13.6013 2.91608C13.5616 2.95573 13.5616 2.95573 13.5212 2.99617C13.4657 3.05165 13.4099 3.10695 13.354 3.16208C13.2686 3.24639 13.1838 3.33131 13.0991 3.41632C13.0448 3.47032 12.9905 3.52427 12.9362 3.57819C12.8983 3.61613 12.8983 3.61613 12.8597 3.65483C12.6493 3.86132 12.5118 3.95125 12.2168 3.95539C11.9826 3.95101 11.8502 3.91083 11.6719 3.75031C11.5057 3.56125 11.479 3.4014 11.469 3.15174C11.5116 2.86186 11.6992 2.67132 11.8987 2.47516C11.9252 2.44873 11.9516 2.4223 11.9788 2.39507C12.0343 2.3396 12.0901 2.2843 12.146 2.22916C12.2314 2.14485 12.3162 2.05994 12.4009 1.97492C12.4552 1.92093 12.5095 1.86697 12.5638 1.81305C12.6017 1.77511 12.6017 1.77511 12.6403 1.73641C12.9283 1.4538 13.1492 1.40617 13.5469 1.45343Z"
            fill="#FDBF1E" />
        <path
            d="M13.8098 4.81912C13.8609 4.81871 13.8609 4.81871 13.913 4.81831C13.9848 4.81786 14.0567 4.81756 14.1286 4.81738C14.2373 4.81692 14.346 4.81547 14.4547 4.81399C15.3031 4.80788 15.3031 4.80788 15.583 5.08059C15.7464 5.35513 15.7791 5.54767 15.7031 5.85989C15.5945 6.06943 15.4951 6.18366 15.2812 6.28176C15.1271 6.30323 14.9742 6.3037 14.8187 6.30373C14.7741 6.30409 14.7294 6.30445 14.6834 6.30482C14.589 6.30532 14.4947 6.30546 14.4004 6.30525C14.2567 6.3052 14.113 6.30715 13.9693 6.30923C13.8774 6.30947 13.7856 6.3096 13.6937 6.30959C13.6297 6.31075 13.6297 6.31075 13.5644 6.31192C13.2804 6.30887 13.0932 6.25293 12.8906 6.04739C12.7536 5.82477 12.73 5.65007 12.77 5.39791C12.8256 5.1902 12.9283 5.05785 13.0986 4.93118C13.3293 4.8243 13.5591 4.82066 13.8098 4.81912Z"
            fill="#FDBF1E" />
        <path
            d="M9.93745 0.000435071C10.1241 0.0937572 10.2525 0.19547 10.3593 0.375435C10.4183 0.572011 10.4147 0.767657 10.4157 0.97126C10.416 1.01091 10.4163 1.05055 10.4165 1.0914C10.417 1.17516 10.4173 1.25892 10.4175 1.34269C10.4179 1.47036 10.4194 1.59799 10.4208 1.72565C10.4212 1.8072 10.4214 1.88874 10.4216 1.97028C10.4222 2.00823 10.4227 2.04618 10.4233 2.08528C10.4223 2.34779 10.3788 2.54816 10.1953 2.7494C9.98823 2.9106 9.83753 2.9736 9.5716 2.96967C9.38418 2.94033 9.23003 2.84917 9.0937 2.71918C8.9392 2.47448 8.9318 2.26986 8.93275 1.98969C8.9325 1.94706 8.93226 1.90443 8.932 1.8605C8.9317 1.77068 8.93176 1.68085 8.93216 1.59103C8.93256 1.45398 8.93121 1.31703 8.92973 1.18C8.92965 1.09248 8.92968 1.00495 8.92982 0.917427C8.92929 0.876697 8.92877 0.835967 8.92822 0.794003C8.93115 0.537519 8.97051 0.391673 9.14057 0.187935C9.37997 -0.0339435 9.62588 -0.0459288 9.93745 0.000435071Z"
            fill="#FDBF1E" />
        <path
            d="M4.64505 4.81503C4.69781 4.81489 4.69781 4.81489 4.75163 4.81476C4.82553 4.81469 4.89943 4.81486 4.97333 4.81526C5.08566 4.81576 5.19795 4.81526 5.31027 4.81466C5.38247 4.81472 5.45468 4.81484 5.52688 4.81503C5.57663 4.81474 5.57663 4.81474 5.62738 4.81445C5.87486 4.81676 6.12047 4.83975 6.32632 4.98696C6.3482 5.01071 6.37007 5.03446 6.39261 5.05892C6.41521 5.08255 6.4378 5.10618 6.46109 5.13052C6.60797 5.32422 6.58805 5.58146 6.56253 5.81185C6.45154 6.04238 6.31727 6.15997 6.09378 6.2806C5.94068 6.30723 5.79039 6.30692 5.63528 6.30551C5.59161 6.30569 5.54793 6.30587 5.50294 6.30605C5.41091 6.30618 5.31887 6.30583 5.22684 6.30505C5.0864 6.30404 4.94607 6.30504 4.80563 6.30624C4.71597 6.30612 4.62631 6.30587 4.53665 6.30551C4.47402 6.30608 4.47402 6.30608 4.41012 6.30666C4.1514 6.30278 4.00234 6.26518 3.7969 6.0931C3.62103 5.89297 3.59333 5.70909 3.59585 5.45022C3.61664 5.28587 3.69256 5.18707 3.7969 5.06185C3.81721 5.03478 3.83751 5.00771 3.85843 4.97982C4.08336 4.81321 4.37628 4.81349 4.64505 4.81503Z"
            fill="#FDBF1E" />
    </g>
    <defs>
        <clipPath id="clip0_796_7754">
            <rect width="24" height="24" fill="white" />
        </clipPath>
    </defs>
</svg>