<svg width="21" height="21" viewBox="0 0 21 21" fill="none" xmlns="http://www.w3.org/2000/svg">
<path fill-rule="evenodd" clip-rule="evenodd" d="M10 18.5001C14.6944 18.5001 18.5 14.6945 18.5 10.0001C18.5 5.30567 14.6944 1.50009 10 1.50009C5.30558 1.50009 1.5 5.30567 1.5 10.0001C1.5 14.6945 5.30558 18.5001 10 18.5001ZM0 10.0001C0 12.8888 1.22486 15.4914 3.18354 17.317C5.00905 19.2754 7.61152 20.5001 10.5 20.5001C16.0229 20.5001 20.3654 16.0213 20.5 10.5001C20.6414 4.70281 15.7973 -0.141314 10 8.98612e-05C4.47879 0.13476 0 4.47724 0 10.0001ZM13.7086 13.7087C13.32 14.0972 12.6898 14.0972 12.3009 13.7087L11.1504 12.5582L10 11.4078L7.69911 13.7087C7.31057 14.0972 6.68034 14.0972 6.29141 13.7087C5.90286 13.3201 5.90286 12.6899 6.29141 12.301L8.5923 10.0001L6.29141 7.6992C5.90286 7.31066 5.90286 6.68043 6.29141 6.2915C6.67996 5.90295 7.31018 5.90295 7.69911 6.2915L10 8.59239L12.3009 6.2915C12.6894 5.90295 13.3197 5.90295 13.7086 6.2915C14.0971 6.68005 14.0971 7.31027 13.7086 7.6992L11.4077 10.0001L13.7086 12.301C14.0971 12.6895 14.0971 13.3198 13.7086 13.7087Z" fill="currentColor"/>
</svg>
