<svg width="32" height="32" viewBox="0 0 32 32" fill="none" xmlns="http://www.w3.org/2000/svg">
<path d="M32 16C32 24.8366 24.8366 32 16 32C7.16344 32 0 24.8366 0 16C0 7.16344 7.16344 0 16 0C24.8366 0 32 7.16344 32 16Z" fill="#D9D9D9"/>
<circle cx="16" cy="16" r="16" fill="#F3EBEA"/>
<path fill-rule="evenodd" clip-rule="evenodd" d="M21.332 23.9975C21.332 23.9975 20.6414 23.1786 20.0661 22.4549C21.4562 22.1299 22.6858 21.3271 23.5375 20.1886C22.8474 20.6447 22.1076 21.0216 21.332 21.3121C20.4398 21.6903 19.5067 21.9651 18.5512 22.1311C16.9087 22.4314 15.2243 22.425 13.5842 22.1121C12.6213 21.925 11.6776 21.6509 10.7649 21.2933C10.2838 21.1095 9.81608 20.8931 9.3649 20.6457C9.3073 20.6075 9.24995 20.5885 9.19237 20.5504C9.16352 20.5362 9.13752 20.5169 9.11567 20.4934C8.77062 20.303 8.57852 20.1696 8.57852 20.1696C9.39936 21.2842 10.5865 22.079 11.9347 22.4168C11.3596 23.1406 10.6499 23.9975 10.6499 23.9975C9.51075 24.028 8.38147 23.7799 7.36151 23.2751C6.34155 22.7703 5.46217 22.0243 4.80078 21.1027C4.86305 17.2418 5.80728 13.4454 7.56226 9.99969C9.10675 8.79511 10.9897 8.09639 12.9512 8L13.1428 8.22863C11.2975 8.68208 9.57541 9.53388 8.09924 10.7234C8.09924 10.7234 8.52122 10.4949 9.23067 10.1711C10.6093 9.54618 12.0786 9.14129 13.5843 8.9714C13.6917 8.94921 13.8008 8.93643 13.9105 8.93321C15.1956 8.76696 16.4961 8.75421 17.7843 8.89523C19.8101 9.12493 21.7711 9.74599 23.5568 10.7234C22.1555 9.59064 20.5279 8.76624 18.7818 8.30475L19.0501 8.00019C21.0116 8.0965 22.8946 8.79522 24.4391 9.99987C26.1942 13.4455 27.1385 17.2419 27.2008 21.1028C26.534 22.0235 25.6508 22.7685 24.6279 23.273C23.6051 23.7775 22.4737 24.0262 21.332 23.9975ZM12.4143 15.1037C12.935 15.1037 13.4343 15.3091 13.8024 15.6747C14.1705 16.0403 14.3773 16.5362 14.3773 17.0532C14.3773 17.5702 14.1705 18.0661 13.8023 18.4317C13.4342 18.7972 12.9348 19.0026 12.4142 19.0026C11.8936 19.0026 11.3942 18.7972 11.0261 18.4317C10.6579 18.0661 10.4511 17.5702 10.4511 17.0532C10.4511 16.5362 10.6579 16.0403 11.026 15.6747C11.3941 15.3091 11.8937 15.1037 12.4143 15.1037ZM18.1814 15.3714C18.5558 15.1609 18.9855 15.0676 19.4142 15.1037C19.6825 15.1148 19.9459 15.1784 20.1894 15.2906C20.4329 15.4029 20.6517 15.5618 20.8334 15.7581C21.015 15.9544 21.1559 16.1843 21.248 16.4347C21.3402 16.6852 21.3817 16.9512 21.3702 17.2175C21.3703 17.6448 21.2404 18.0621 20.9976 18.4148C20.7548 18.7676 20.4105 19.0393 20.0096 19.1944C19.6087 19.3496 19.17 19.3809 18.7509 19.2843C18.3318 19.1877 17.9518 18.9677 17.6607 18.6531C17.3696 18.3385 17.1809 17.944 17.1194 17.5211C17.0579 17.0983 17.1263 16.6668 17.3158 16.2832C17.5053 15.8997 17.807 15.5818 18.1814 15.3714Z" fill="#2C3034"/>
</svg>
