<svg width="24" height="24" viewBox="0 0 24 24" fill="none" xmlns="http://www.w3.org/2000/svg">
<path fill-rule="evenodd" clip-rule="evenodd" d="M17.5 19V5C17.5 4.72386 17.2761 4.5 17 4.5H9.82843C9.69582 4.5 9.56864 4.55268 9.47487 4.64645L8.06066 6.06066L6.64645 7.47487C6.55268 7.56864 6.5 7.69582 6.5 7.82843V19C6.5 19.2761 6.72386 19.5 7 19.5H17C17.2761 19.5 17.5 19.2761 17.5 19ZM8.41421 3.58579L7 5L5.58579 6.41421C5.21071 6.78929 5 7.29799 5 7.82843V19C5 19.68 5.33933 20.2807 5.85791 20.6421C6.21926 21.1607 6.81999 21.5 7.49998 21.5H17.5C18.6045 21.5 19.5 20.6046 19.5 19.5V5.5C19.5 4.82004 19.1607 4.21934 18.6421 3.85798C18.2807 3.33937 17.68 3 17 3H9.82843C9.29799 3 8.78929 3.21071 8.41421 3.58579ZM8.75 9.5C8.33579 9.5 8 9.83579 8 10.25C8 10.6642 8.33579 11 8.75 11H13.25C13.6642 11 14 10.6642 14 10.25C14 9.83579 13.6642 9.5 13.25 9.5H8.75ZM8 13.25C8 12.8358 8.33579 12.5 8.75 12.5H13.25C13.6642 12.5 14 12.8358 14 13.25C14 13.6642 13.6642 14 13.25 14H8.75C8.33579 14 8 13.6642 8 13.25ZM8.75 15.5C8.33579 15.5 8 15.8358 8 16.25C8 16.6642 8.33579 17 8.75 17H13.25C13.6642 17 14 16.6642 14 16.25C14 15.8358 13.6642 15.5 13.25 15.5H8.75Z" fill="#D63E3E"/>
</svg>
