<svg width="26" height="24" viewBox="0 0 24 24" fill="none" xmlns="http://www.w3.org/2000/svg">
    <path
        d="M22.2526 12.1652C20.2326 7.47519 16.4326 4.56519 12.3326 4.56519C8.23259 4.56519 4.43259 7.47519 2.41259 12.1652C2.35752 12.2914 2.3291 12.4275 2.3291 12.5652C2.3291 12.7028 2.35752 12.839 2.41259 12.9652C4.43259 17.6552 8.23259 20.5652 12.3326 20.5652C16.4326 20.5652 20.2326 17.6552 22.2526 12.9652C22.3076 12.839 22.3361 12.7028 22.3361 12.5652C22.3361 12.4275 22.3076 12.2914 22.2526 12.1652ZM12.3326 18.9396C9.16259 18.9396 4.98661 15.8752 3.25661 12.1652C4.98661 8.45519 8.84872 5.20908 12.0187 5.20908C15.1887 5.20908 19.8682 8.96725 20.8542 12.5652C19.1242 16.2752 15.5026 18.9396 12.3326 18.9396Z"
        fill="#D63E3E" />
    <path
        d="M21.9196 11.6C19.8996 6.91 16.0996 4 11.9996 4C7.89958 4 4.09958 6.91 2.07958 11.6C2.02452 11.7262 1.99609 11.8623 1.99609 12C1.99609 12.1377 2.02452 12.2738 2.07958 12.4C4.09958 17.09 7.89958 20 11.9996 20C16.0996 20 19.8996 17.09 21.9196 12.4C21.9746 12.2738 22.0031 12.1377 22.0031 12C22.0031 11.8623 21.9746 11.7262 21.9196 11.6ZM11.9996 18.5102C8.82958 18.5102 5.21828 15.71 3.48828 12C5.21828 8.29 8.82958 5.49609 11.9996 5.49609C15.1696 5.49609 18.7856 8.29 20.5156 12C18.7856 15.71 15.1696 18.5102 11.9996 18.5102Z"
        fill="#D63E3E" />
    <circle cx="11.9994" cy="11.9999" r="3.26013" stroke="#D63E3E" stroke-width="1.5" />
</svg>