<svg width="28" height="28" viewBox="0 0 28 28" fill="none" xmlns="http://www.w3.org/2000/svg">
<rect width="28" height="28" rx="10" fill="url(#paint0_linear_6328_16291)"/>
<path d="M13.2222 15.5555V21.7778H10.1111C9.49227 21.7778 8.89878 21.5319 8.46119 21.0943C8.02361 20.6568 7.77778 20.0633 7.77778 19.4444V16.3333C7.77778 16.127 7.85972 15.9292 8.00558 15.7833C8.15144 15.6375 8.34928 15.5555 8.55555 15.5555H13.2222ZM19.4444 15.5555C19.6507 15.5555 19.8486 15.6375 19.9944 15.7833C20.1403 15.9292 20.2222 16.127 20.2222 16.3333V19.4444C20.2222 20.0633 19.9764 20.6568 19.5388 21.0943C19.1012 21.5319 18.5077 21.7778 17.8889 21.7778H14.7778V15.5555H19.4444ZM17.5 6.2222C17.9593 6.2221 18.4111 6.33822 18.8135 6.55973C19.2158 6.78124 19.5556 7.10095 19.8011 7.48909C20.0466 7.87724 20.19 8.3212 20.2178 8.77964C20.2456 9.23809 20.1569 9.69612 19.9601 10.1111H20.2222C20.6348 10.1111 21.0304 10.275 21.3222 10.5667C21.6139 10.8584 21.7778 11.2541 21.7778 11.6666V12.4444C21.7778 12.857 21.6139 13.2526 21.3222 13.5444C21.0304 13.8361 20.6348 14 20.2222 14H14.7778V10.1111H13.2222V14H7.77778C7.36522 14 6.96956 13.8361 6.67783 13.5444C6.38611 13.2526 6.22222 12.857 6.22222 12.4444V11.6666C6.22222 11.2541 6.38611 10.8584 6.67783 10.5667C6.96956 10.275 7.36522 10.1111 7.77778 10.1111H8.03989C7.86713 9.74643 7.7776 9.34793 7.77778 8.94442C7.77778 7.44098 8.99655 6.2222 10.4868 6.2222C11.8518 6.19886 13.0628 7.07153 13.8942 8.5042L14 8.6932C14.8034 7.20453 15.9911 6.2712 17.3374 6.22375L17.5 6.2222ZM10.5 7.77775C10.1906 7.77775 9.89383 7.90067 9.67504 8.11946C9.45625 8.33825 9.33333 8.635 9.33333 8.94442C9.33333 9.25384 9.45625 9.55059 9.67504 9.76938C9.89383 9.98817 10.1906 10.1111 10.5 10.1111H12.9446C12.3682 8.62942 11.4287 7.7622 10.5 7.77775ZM17.4868 7.77775C16.569 7.7622 15.6318 8.6302 15.0554 10.1111H17.5C17.8094 10.1093 18.1055 9.98474 18.323 9.7647C18.5406 9.54467 18.6618 9.24723 18.6601 8.93781C18.6583 8.62839 18.5337 8.33234 18.3137 8.11479C18.0936 7.89723 17.7962 7.776 17.4868 7.77775Z" fill="#F3EBEA"/>
<defs>
<linearGradient id="paint0_linear_6328_16291" x1="51.9167" y1="14" x2="-21" y2="14" gradientUnits="userSpaceOnUse">
<stop stop-color="#FDD65F"/>
<stop offset="0.373259" stop-color="#FCA857"/>
<stop offset="0.706606" stop-color="#FC668B"/>
<stop offset="1" stop-color="#C74AD5"/>
</linearGradient>
</defs>
</svg>
