<svg width="20" height="20" viewBox="0 0 20 20" fill="none" xmlns="http://www.w3.org/2000/svg">
<path d="M14.375 5.83325C14.375 5.66749 14.3092 5.50852 14.192 5.39131C14.0747 5.2741 13.9158 5.20825 13.75 5.20825C13.5842 5.20825 13.4253 5.2741 13.3081 5.39131C13.1909 5.50852 13.125 5.66749 13.125 5.83325V6.87492H12.0833C11.9176 6.87492 11.7586 6.94077 11.6414 7.05798C11.5242 7.17519 11.4583 7.33416 11.4583 7.49992C11.4583 7.66568 11.5242 7.82465 11.6414 7.94186C11.7586 8.05907 11.9176 8.12492 12.0833 8.12492H13.125V9.16659C13.125 9.33235 13.1909 9.49132 13.3081 9.60853C13.4253 9.72574 13.5842 9.79159 13.75 9.79159C13.9158 9.79159 14.0747 9.72574 14.192 9.60853C14.3092 9.49132 14.375 9.33235 14.375 9.16659V8.12492H15.4167C15.5824 8.12492 15.7414 8.05907 15.8586 7.94186C15.9758 7.82465 16.0417 7.66568 16.0417 7.49992C16.0417 7.33416 15.9758 7.17519 15.8586 7.05798C15.7414 6.94077 15.5824 6.87492 15.4167 6.87492H14.375V5.83325Z" fill="currentColor"/>
<path d="M13.5396 7.48781H13.8729V7.15448V6.11281C13.8729 6.03546 13.9036 5.96127 13.9583 5.90658C14.013 5.85188 14.0872 5.82115 14.1646 5.82115C14.2231 5.82115 14.2799 5.83875 14.3277 5.87105C14.3431 5.88141 14.3575 5.89327 14.3708 5.90658C14.4255 5.96127 14.4562 6.03546 14.4562 6.11281V7.15448V7.48781H14.7896H15.8312C15.8898 7.48781 15.9465 7.50542 15.9944 7.53772C16.0097 7.54807 16.0242 7.55994 16.0375 7.57324C16.0922 7.62794 16.1229 7.70213 16.1229 7.77948C16.1229 7.85684 16.0922 7.93102 16.0375 7.98572C15.9828 8.04042 15.9086 8.07115 15.8312 8.07115H14.7896H14.4562V8.40448V9.44615C14.4562 9.5235 14.4255 9.59769 14.3708 9.65239C14.3161 9.70709 14.2419 9.73781 14.1646 9.73781C14.106 9.73781 14.0493 9.72021 14.0014 9.68791C13.986 9.67756 13.9716 9.66569 13.9583 9.65239C13.9036 9.59769 13.8729 9.5235 13.8729 9.44615V8.40448V8.07115H13.5396H12.4979C12.4393 8.07115 12.3826 8.05354 12.3347 8.02124C12.3194 8.01089 12.3049 7.99902 12.2916 7.98572C12.2369 7.93102 12.2062 7.85684 12.2062 7.77948C12.2062 7.70213 12.2369 7.62794 12.2916 7.57324C12.3463 7.51854 12.4205 7.48781 12.4979 7.48781H13.5396ZM16.093 2.7624L16.0932 2.76248C16.368 2.86999 16.6275 3.00657 16.87 3.17026C18.1891 4.06045 19.0396 5.78124 19.0396 8.04456C19.0396 9.69702 18.1537 11.36 16.9965 12.8355C15.8331 14.3188 14.3642 15.6543 13.1305 16.6548L13.129 16.6561L13.0187 16.7466C13.0184 16.7468 13.0182 16.747 13.0179 16.7472C11.9995 17.574 11.3687 18.0721 10.4146 18.0721C9.81479 18.0721 9.33754 17.8726 8.81445 17.5192C8.50264 17.3086 8.18296 17.0492 7.81066 16.7467L7.80837 16.7448L7.79869 16.7369L7.75613 16.7019L7.71356 16.667L7.50207 16.9246L7.71356 16.667L7.7039 16.659L7.70124 16.6569L7.70055 16.6563L7.70037 16.6561L7.70033 16.6561L7.70031 16.6561L7.69887 16.6549C6.46497 15.6534 4.99612 14.3188 3.83275 12.8355C2.67554 11.36 1.78963 9.69704 1.78963 8.04373C1.78963 5.36568 2.97744 3.45055 4.73608 2.76248L4.7363 2.7624C6.07461 2.23773 7.66067 2.45297 9.19417 3.48788C9.52911 3.71392 9.86121 3.97899 10.1869 4.28377L10.4146 4.49694L10.6424 4.28377C12.4621 2.5807 14.466 2.12457 16.093 2.7624ZM10.6278 5.12442L10.6277 5.12448C10.6005 5.15369 10.5675 5.17697 10.5308 5.19289C10.4941 5.20881 10.4546 5.21702 10.4146 5.21702C10.3747 5.21702 10.3351 5.20881 10.2985 5.19289C10.2819 5.18571 10.2661 5.17703 10.2513 5.16699L10.0646 5.44313L10.2513 5.16698C10.2332 5.15476 10.2165 5.14052 10.2015 5.12449L10.2015 5.12442C9.75949 4.65169 9.31026 4.26776 8.86162 3.96531C7.45724 3.01853 6.05635 2.87162 4.94823 3.30495L4.94792 3.30508C3.47814 3.88156 2.37297 5.52914 2.37297 8.04456C2.37297 9.4996 3.16123 11.0341 4.29235 12.4761C5.41724 13.9103 6.8483 15.2139 8.06619 16.2017C8.52928 16.5777 8.88002 16.8571 9.17257 17.0543C9.62491 17.3592 9.96828 17.4879 10.4146 17.4879C10.7824 17.4879 11.0845 17.4009 11.4436 17.1895C11.7837 16.9892 12.1883 16.6687 12.763 16.2026L12.763 16.2025C13.9808 15.2141 15.412 13.9111 16.537 12.4751C17.6672 11.0341 18.4563 9.49962 18.4563 8.04456C18.4563 5.91897 17.6697 4.41437 16.5327 3.64782C16.3252 3.50788 16.1069 3.39339 15.8812 3.30501L15.881 3.30496C14.4121 2.73051 12.4499 3.1755 10.6278 5.12442Z" fill="currentColor" stroke="currentColor" stroke-width="0.666667"/>
<mask id="path-3-inside-1_8839_30282" fill="white">
<path d="M1.04175 7.76427C1.04175 4.99344 2.27675 2.92511 4.20008 2.17261L4.6146 2.4522C2.69127 3.2047 1.45627 5.27304 1.45627 8.04387L1.04175 7.76427Z"/>
</mask>
<path d="M1.04175 7.76427C1.04175 4.99344 2.27675 2.92511 4.20008 2.17261L4.6146 2.4522C2.69127 3.2047 1.45627 5.27304 1.45627 8.04387L1.04175 7.76427Z" fill="currentColor"/>
<path d="M4.20008 2.17261L4.57288 1.61992C4.3913 1.49744 4.16115 1.47197 3.95718 1.55177L4.20008 2.17261ZM1.04175 7.76427H0.375081C0.375081 7.9859 0.485217 8.19304 0.668953 8.31697L1.04175 7.76427ZM1.45627 8.04387L1.08347 8.59656C1.28784 8.73441 1.55159 8.74823 1.76925 8.6325C1.9869 8.51677 2.12293 8.29038 2.12293 8.04387H1.45627ZM4.6146 2.4522L4.8575 3.07304C5.0883 2.98275 5.24996 2.77187 5.27722 2.52555C5.30449 2.27922 5.19286 2.0381 4.9874 1.89951L4.6146 2.4522ZM3.95718 1.55177C1.70447 2.43314 0.375081 4.80788 0.375081 7.76427H1.70841C1.70841 5.179 2.84903 3.41708 4.44298 2.79345L3.95718 1.55177ZM0.668953 8.31697L1.08347 8.59656L1.82906 7.49118L1.41454 7.21158L0.668953 8.31697ZM2.12293 8.04387C2.12293 5.4586 3.26355 3.69668 4.8575 3.07304L4.3717 1.83136C2.11899 2.71273 0.7896 5.08748 0.7896 8.04387H2.12293ZM4.9874 1.89951L4.57288 1.61992L3.82729 2.7253L4.24181 3.0049L4.9874 1.89951Z" fill="currentColor" mask="url(#path-3-inside-1_8839_30282)"/>
<mask id="path-5-inside-2_8839_30282" fill="white">
<path d="M4.65508 3.33594C3.34841 3.84844 2.29175 5.34427 2.29175 7.7651L2.70627 8.0447C2.70627 5.62387 3.76293 4.12803 5.0696 3.61553L4.65508 3.33594Z"/>
</mask>
<path d="M4.65508 3.33594C3.34841 3.84844 2.29175 5.34427 2.29175 7.7651L2.70627 8.0447C2.70627 5.62387 3.76293 4.12803 5.0696 3.61553L4.65508 3.33594Z" fill="currentColor"/>
<path d="M2.29175 7.7651H1.62508C1.62508 7.98673 1.73522 8.19387 1.91895 8.3178L2.29175 7.7651ZM4.65508 3.33594L5.02788 2.78325C4.84613 2.66066 4.61574 2.63526 4.41166 2.7153L4.65508 3.33594ZM5.0696 3.61553L5.31303 4.23617C5.54365 4.14571 5.7051 3.93484 5.73225 3.6886C5.7594 3.44236 5.64777 3.20137 5.4424 3.06284L5.0696 3.61553ZM2.70627 8.0447L2.33347 8.59739C2.53784 8.73524 2.80159 8.74906 3.01925 8.63333C3.2369 8.5176 3.37293 8.29121 3.37293 8.0447H2.70627ZM2.95841 7.7651C2.95841 5.53345 3.91807 4.34112 4.89851 3.95657L4.41166 2.7153C2.77875 3.35576 1.62508 5.1551 1.62508 7.7651H2.95841ZM4.28229 3.88863L4.69681 4.16823L5.4424 3.06284L5.02788 2.78325L4.28229 3.88863ZM4.82617 2.9949C3.19327 3.63535 2.0396 5.43469 2.0396 8.0447H3.37293C3.37293 5.81304 4.33259 4.62071 5.31303 4.23617L4.82617 2.9949ZM3.07906 7.49201L2.66454 7.21241L1.91895 8.3178L2.33347 8.59739L3.07906 7.49201Z" fill="currentColor" mask="url(#path-5-inside-2_8839_30282)"/>
<mask id="path-7-inside-3_8839_30282" fill="white">
<path d="M4.2002 2.17252C5.66055 1.60001 7.3612 1.84888 8.9662 2.93204L9.37765 3.20956C7.77355 2.12816 6.07414 1.87997 4.61471 2.45212L4.2002 2.17252Z"/>
</mask>
<path d="M4.2002 2.17252C5.66055 1.60001 7.3612 1.84888 8.9662 2.93204L9.37765 3.20956C7.77355 2.12816 6.07414 1.87997 4.61471 2.45212L4.2002 2.17252Z" fill="currentColor"/>
<path d="M9.1913 3.48594C9.19229 3.48661 9.19328 3.48728 9.19426 3.48794L9.56718 2.93533C9.56612 2.93461 9.56505 2.9339 9.564 2.93319L9.1913 3.48594ZM8.9662 2.93204L8.59327 3.48464L8.59341 3.48473L8.9662 2.93204ZM4.2002 2.17252L3.95687 1.55185C3.72621 1.64227 3.56472 1.85315 3.53755 2.09941C3.51038 2.34566 3.62201 2.58667 3.8274 2.72521L4.2002 2.17252ZM4.61471 2.45212L4.24192 3.00481C4.42363 3.12738 4.65398 3.15279 4.85804 3.07279L4.61471 2.45212ZM9.37765 3.20956L9.00499 3.76235C9.31026 3.96814 9.72455 3.88753 9.93039 3.58229C10.1362 3.27705 10.0557 2.86274 9.75044 2.65687L9.37765 3.20956ZM9.33914 2.37944C7.59115 1.19979 5.66131 0.883642 3.95687 1.55185L4.44352 2.7932C5.65979 2.31637 7.13125 2.49797 8.59327 3.48464L9.33914 2.37944ZM3.8274 2.72521L4.24192 3.00481L4.98751 1.89943L4.57299 1.61983L3.8274 2.72521ZM4.85804 3.07279C6.07355 2.59627 7.54389 2.77734 9.00499 3.76235L9.75031 2.65678C8.00321 1.47897 6.07472 1.16367 4.37139 1.83144L4.85804 3.07279ZM9.75044 2.65687L9.339 2.37935L8.59341 3.48473L9.00485 3.76225L9.75044 2.65687Z" fill="currentColor" mask="url(#path-7-inside-3_8839_30282)"/>
<mask id="path-9-inside-4_8839_30282" fill="white">
<path d="M8.26069 3.96207C6.92968 3.06476 5.64311 2.94937 4.65503 3.33576L5.06955 3.61536C6.05763 3.22897 7.3442 3.34435 8.6752 4.24167L8.26069 3.96207Z"/>
</mask>
<path d="M8.26069 3.96207C6.92968 3.06476 5.64311 2.94937 4.65503 3.33576L5.06955 3.61536C6.05763 3.22897 7.3442 3.34435 8.6752 4.24167L8.26069 3.96207Z" fill="currentColor"/>
<path d="M4.65503 3.33576L4.41223 2.71488C4.1814 2.80515 4.0197 3.01602 3.99242 3.26237C3.96513 3.50871 4.07676 3.74986 4.28223 3.88846L4.65503 3.33576ZM8.26069 3.96207L8.63348 3.40938L8.63335 3.40929L8.26069 3.96207ZM8.6752 4.24167L8.30254 4.79445C8.60781 5.00024 9.02211 4.91964 9.22794 4.61439C9.43378 4.30915 9.35322 3.89485 9.048 3.68897L8.6752 4.24167ZM5.06955 3.61536L4.69675 4.16805C4.8783 4.29051 5.1084 4.31599 5.31235 4.23624L5.06955 3.61536ZM4.89783 3.95664C5.64584 3.66413 6.70376 3.71647 7.88802 4.51485L8.63335 3.40929C7.1556 2.41305 5.64038 2.23461 4.41223 2.71488L4.89783 3.95664ZM7.88789 4.51476L8.30241 4.79436L9.048 3.68897L8.63348 3.40938L7.88789 4.51476ZM9.04787 3.68888C7.57012 2.69264 6.0549 2.5142 4.82675 2.99448L5.31235 4.23624C6.06036 3.94373 7.11828 3.99606 8.30254 4.79445L9.04787 3.68888ZM5.44234 3.06267L5.02782 2.78307L4.28223 3.88846L4.69675 4.16805L5.44234 3.06267Z" fill="currentColor" mask="url(#path-9-inside-4_8839_30282)"/>
<mask id="path-11-inside-5_8839_30282" fill="white">
<path d="M3.15591 12.7617C1.98341 11.2667 1.04175 9.52999 1.04175 7.76416L1.45627 8.04376C1.45627 9.80959 2.39793 11.5463 3.57043 13.0413L3.15591 12.7617Z"/>
</mask>
<path d="M3.15591 12.7617C1.98341 11.2667 1.04175 9.52999 1.04175 7.76416L1.45627 8.04376C1.45627 9.80959 2.39793 11.5463 3.57043 13.0413L3.15591 12.7617Z" fill="currentColor"/>
<path d="M1.04175 7.76416L1.41454 7.21147C1.21018 7.07362 0.946423 7.0598 0.728767 7.17553C0.511111 7.29126 0.375081 7.51765 0.375081 7.76416H1.04175ZM3.15591 12.7617L2.63134 13.1731C2.67425 13.2278 2.72547 13.2755 2.78312 13.3144L3.15591 12.7617ZM3.57043 13.0413L3.19764 13.5939C3.4697 13.7775 3.83484 13.7357 4.05842 13.4955C4.28201 13.2553 4.29753 12.8881 4.09501 12.6298L3.57043 13.0413ZM1.45627 8.04376H2.12293C2.12293 7.82213 2.0128 7.615 1.82906 7.49106L1.45627 8.04376ZM0.375081 7.76416C0.375081 9.75504 1.42827 11.6391 2.63134 13.1731L3.68049 12.3502C2.53856 10.8942 1.70841 9.30495 1.70841 7.76416H0.375081ZM2.78312 13.3144L3.19764 13.5939L3.94323 12.4886L3.52871 12.209L2.78312 13.3144ZM4.09501 12.6298C2.95308 11.1738 2.12293 9.58454 2.12293 8.04376H0.7896C0.7896 10.0346 1.84279 11.9187 3.04586 13.4527L4.09501 12.6298ZM1.82906 7.49106L1.41454 7.21147L0.668953 8.31685L1.08347 8.59645L1.82906 7.49106Z" fill="currentColor" mask="url(#path-11-inside-5_8839_30282)"/>
<mask id="path-13-inside-6_8839_30282" fill="white">
<path d="M2.29175 7.76514C2.29175 9.10764 3.02425 10.5685 4.14008 11.991L4.5546 12.2706C3.43877 10.8481 2.70627 9.38723 2.70627 8.04473L2.29175 7.76514Z"/>
</mask>
<path d="M2.29175 7.76514C2.29175 9.10764 3.02425 10.5685 4.14008 11.991L4.5546 12.2706C3.43877 10.8481 2.70627 9.38723 2.70627 8.04473L2.29175 7.76514Z" fill="currentColor"/>
<path d="M4.14008 11.991L3.61554 12.4024C3.65845 12.4571 3.70965 12.5048 3.76729 12.5437L4.14008 11.991ZM2.29175 7.76514L2.66454 7.21244C2.46018 7.0746 2.19642 7.06078 1.97877 7.1765C1.76111 7.29223 1.62508 7.51863 1.62508 7.76514H2.29175ZM2.70627 8.04473H3.37293C3.37293 7.82311 3.2628 7.61597 3.07906 7.49204L2.70627 8.04473ZM4.5546 12.2706L4.18181 12.8233C4.45387 13.0068 4.81903 12.965 5.04261 12.7248C5.26619 12.4845 5.28169 12.1173 5.07914 11.8591L4.5546 12.2706ZM4.66462 11.5795C3.57937 10.196 2.95841 8.88256 2.95841 7.76514H1.62508C1.62508 9.33271 2.46912 10.9409 3.61554 12.4024L4.66462 11.5795ZM1.91895 8.31783L2.33347 8.59742L3.07906 7.49204L2.66454 7.21244L1.91895 8.31783ZM2.0396 8.04473C2.0396 9.61231 2.88364 11.2205 4.03006 12.682L5.07914 11.8591C3.99389 10.4756 3.37293 9.16216 3.37293 8.04473H2.0396ZM4.9274 11.7179L4.51288 11.4383L3.76729 12.5437L4.18181 12.8233L4.9274 11.7179Z" fill="currentColor" mask="url(#path-13-inside-6_8839_30282)"/>
<mask id="path-15-inside-7_8839_30282" fill="white">
<path d="M8.96606 2.93213C9.31645 3.16859 9.66228 3.44482 10.0001 3.76094L10.4146 4.04054C10.0768 3.72442 9.73097 3.44819 9.38058 3.21173L8.96606 2.93213Z"/>
</mask>
<path d="M8.96606 2.93213C9.31645 3.16859 9.66228 3.44482 10.0001 3.76094L10.4146 4.04054C10.0768 3.72442 9.73097 3.44819 9.38058 3.21173L8.96606 2.93213Z" fill="currentColor"/>
<path d="M10.0001 3.76094L9.54451 4.24769C9.5703 4.27183 9.59797 4.29388 9.62726 4.31364L10.0001 3.76094ZM8.96606 2.93213L9.33886 2.37944C9.03364 2.17357 8.61933 2.25407 8.41342 2.55927C8.20751 2.86446 8.28797 3.27878 8.59313 3.48473L8.96606 2.93213ZM9.38058 3.21173L9.75351 2.65913L9.75338 2.65903L9.38058 3.21173ZM10.4146 4.04054L10.0418 4.59323C10.33 4.78765 10.7193 4.72792 10.9359 4.45602C11.1526 4.18412 11.124 3.79136 10.8701 3.55379L10.4146 4.04054ZM10.4556 3.2742C10.0936 2.93539 9.72029 2.63685 9.339 2.37953L8.59313 3.48473C8.91262 3.70034 9.23098 3.95426 9.54451 4.24769L10.4556 3.2742ZM8.59327 3.48482L9.00779 3.76442L9.75338 2.65903L9.33886 2.37944L8.59327 3.48482ZM9.00765 3.76433C9.32714 3.97994 9.6455 4.23385 9.95903 4.52729L10.8701 3.55379C10.5081 3.21498 10.1348 2.91645 9.75351 2.65913L9.00765 3.76433ZM10.7874 3.48785L10.3729 3.20825L9.62726 4.31364L10.0418 4.59323L10.7874 3.48785Z" fill="currentColor" mask="url(#path-15-inside-7_8839_30282)"/>
<mask id="path-17-inside-8_8839_30282" fill="white">
<path d="M9.54342 5.07252C9.11768 4.61715 8.68818 4.25062 8.2632 3.96382L8.67526 4.24175C9.10104 4.5288 9.53138 4.89586 9.95794 5.35212L9.54342 5.07252Z"/>
</mask>
<path d="M9.54342 5.07252C9.11768 4.61715 8.68818 4.25062 8.2632 3.96382L8.67526 4.24175C9.10104 4.5288 9.53138 4.89586 9.95794 5.35212L9.54342 5.07252Z" fill="currentColor"/>
<path d="M8.07441 4.23855C8.07519 4.23907 8.07596 4.23959 8.07674 4.24012L8.44966 3.68752C8.4488 3.68693 8.44794 3.68635 8.44707 3.68577L8.07441 4.23855ZM8.2632 3.96382L8.636 3.41112C8.33078 3.20525 7.91646 3.28576 7.71055 3.59096C7.50465 3.89615 7.58511 4.31047 7.89027 4.51642L8.2632 3.96382ZM9.54342 5.07252L9.05644 5.52781C9.09071 5.56447 9.12902 5.59715 9.17062 5.62521L9.54342 5.07252ZM9.95794 5.35212L9.58514 5.90481C9.86631 6.09446 10.2451 6.04279 10.4652 5.78476C10.6853 5.52672 10.6765 5.14457 10.4449 4.89682L9.95794 5.35212ZM8.67526 4.24175L8.30247 4.79445L8.3026 4.79454L8.67526 4.24175ZM7.89027 4.51642C8.26967 4.77245 8.66144 5.10533 9.05644 5.52781L10.0304 4.61723C9.57391 4.12896 9.1067 3.72878 8.63613 3.41121L7.89027 4.51642ZM9.17062 5.62521L9.58514 5.90481L10.3307 4.79942L9.91621 4.51983L9.17062 5.62521ZM10.4449 4.89682C9.98755 4.40762 9.51942 4.00683 9.04792 3.68897L8.3026 4.79454C8.68267 5.05077 9.0752 5.38411 9.47095 5.80741L10.4449 4.89682ZM9.04806 3.68906L8.636 3.41112L7.89041 4.51651L8.30247 4.79445L9.04806 3.68906Z" fill="currentColor" mask="url(#path-17-inside-8_8839_30282)"/>
<mask id="path-19-inside-9_8839_30282" fill="white">
<path d="M9.65008 5.16358C9.61134 5.13739 9.57555 5.10686 9.54346 5.07251L9.95798 5.35211C9.99007 5.38646 10.0259 5.41698 10.0646 5.44318L9.65008 5.16358Z"/>
</mask>
<path d="M9.65008 5.16358C9.61134 5.13739 9.57555 5.10686 9.54346 5.07251L9.95798 5.35211C9.99007 5.38646 10.0259 5.41698 10.0646 5.44318L9.65008 5.16358Z" fill="currentColor"/>
<path d="M9.54346 5.07251L9.91625 4.51982C9.63511 4.33019 9.25641 4.38182 9.0363 4.6398C8.81619 4.89778 8.82482 5.27988 9.05635 5.52767L9.54346 5.07251ZM9.65008 5.16358L9.2767 5.71588L9.27729 5.71627L9.65008 5.16358ZM10.0646 5.44318L9.6918 5.99587C9.99693 6.20168 10.4111 6.12128 10.6171 5.81626C10.8231 5.51124 10.7429 5.09701 10.438 4.89088L10.0646 5.44318ZM9.95798 5.35211L10.4451 4.89695C10.4108 4.86023 10.3724 4.82751 10.3308 4.79941L9.95798 5.35211ZM9.05635 5.52767C9.12268 5.59865 9.19663 5.66174 9.2767 5.71588L10.0235 4.61128C10.026 4.61303 10.0284 4.61506 10.0306 4.61735L9.05635 5.52767ZM9.27729 5.71627L9.6918 5.99587L10.4374 4.89048L10.0229 4.61089L9.27729 5.71627ZM10.438 4.89088C10.4406 4.89262 10.4429 4.89466 10.4451 4.89695L9.47086 5.80726C9.5372 5.87825 9.61115 5.94134 9.69122 5.99547L10.438 4.89088ZM10.3308 4.79941L9.91625 4.51982L9.17066 5.6252L9.58518 5.9048L10.3308 4.79941Z" fill="currentColor" mask="url(#path-19-inside-9_8839_30282)"/>
<mask id="path-21-inside-10_8839_30282" fill="white">
<path d="M9.75126 5.21908C9.71623 5.20387 9.68276 5.18553 9.65124 5.16431L10.0647 5.44317C10.0965 5.4647 10.1303 5.48329 10.1658 5.49868L9.75126 5.21908Z"/>
</mask>
<path d="M9.75126 5.21908C9.71623 5.20387 9.68276 5.18553 9.65124 5.16431L10.0647 5.44317C10.0965 5.4647 10.1303 5.48329 10.1658 5.49868L9.75126 5.21908Z" fill="currentColor"/>
<path d="M9.46346 5.43972C9.46402 5.4401 9.46458 5.44048 9.46514 5.44086L9.83735 4.88777C9.83718 4.88766 9.83701 4.88754 9.83684 4.88743L9.46346 5.43972ZM9.65124 5.16431L10.0235 4.61123C9.71811 4.40574 9.304 4.48657 9.09835 4.79181C8.8927 5.09705 8.97332 5.51119 9.27845 5.71701L9.65124 5.16431ZM9.75126 5.21908L10.1241 4.66639C10.0902 4.64354 10.0543 4.62385 10.0168 4.60758L9.75126 5.21908ZM10.1658 5.49868L9.90025 6.11019C10.2162 6.24739 10.5847 6.12126 10.7503 5.81919C10.916 5.51713 10.8242 5.13862 10.5386 4.94599L10.1658 5.49868ZM10.0647 5.44317L10.438 4.89087L10.4375 4.89048L10.0647 5.44317ZM9.27903 5.7174C9.34417 5.76124 9.41334 5.79916 9.48573 5.83059L10.0168 4.60758C10.0191 4.60859 10.0214 4.60981 10.0235 4.61123L9.27903 5.7174ZM9.37846 5.77178L9.79298 6.05137L10.5386 4.94599L10.1241 4.66639L9.37846 5.77178ZM10.4313 4.88717C10.4337 4.8882 10.4359 4.88944 10.438 4.89087L9.69129 5.99547C9.75709 6.03995 9.82702 6.07839 9.90025 6.11019L10.4313 4.88717ZM10.4375 4.89048L10.024 4.61162L9.27845 5.71701L9.69187 5.99586L10.4375 4.89048Z" fill="currentColor" mask="url(#path-21-inside-10_8839_30282)"/>
<mask id="path-23-inside-11_8839_30282" fill="white">
<path d="M10.0002 5.27071C9.91451 5.27071 9.82978 5.2531 9.75122 5.21899L10.1657 5.49859C10.2443 5.5327 10.329 5.5503 10.4147 5.5503L10.0002 5.27071Z"/>
</mask>
<path d="M10.0002 5.27071C9.91451 5.27071 9.82978 5.2531 9.75122 5.21899L10.1657 5.49859C10.2443 5.5327 10.329 5.5503 10.4147 5.5503L10.0002 5.27071Z" fill="currentColor"/>
<path d="M9.75122 5.21899L10.0167 4.60749C9.70076 4.47028 9.33228 4.59642 9.16666 4.89848C9.00104 5.20055 9.09283 5.57905 9.37843 5.77169L9.75122 5.21899ZM10.0002 5.27071L10.3729 4.71801C10.2628 4.64373 10.133 4.60404 10.0002 4.60404V5.27071ZM10.4147 5.5503V6.21697C10.7078 6.21697 10.9665 6.02552 11.0522 5.74522C11.1379 5.46491 11.0305 5.16152 10.7875 4.99761L10.4147 5.5503ZM10.1657 5.49859L9.79294 6.05128C9.82682 6.07413 9.86273 6.09382 9.90021 6.1101L10.1657 5.49859ZM9.4857 5.8305C9.64805 5.901 9.82315 5.93737 10.0002 5.93737V4.60404C10.0059 4.60404 10.0115 4.60521 10.0167 4.60749L9.4857 5.8305ZM9.62736 5.8234L10.0419 6.10299L10.7875 4.99761L10.3729 4.71801L9.62736 5.8234ZM10.4147 4.88364C10.4204 4.88364 10.426 4.88481 10.4313 4.88708L9.90021 6.1101C10.0626 6.18059 10.2377 6.21697 10.4147 6.21697V4.88364ZM10.5385 4.9459L10.124 4.6663L9.37843 5.77169L9.79294 6.05128L10.5385 4.9459Z" fill="currentColor" mask="url(#path-23-inside-11_8839_30282)"/>
<mask id="path-25-inside-12_8839_30282" fill="white">
<path d="M10.2489 5.21899C10.1704 5.2531 10.0856 5.27071 10 5.27071L10.4145 5.5503C10.5002 5.5503 10.5849 5.5327 10.6634 5.49859L10.2489 5.21899Z"/>
</mask>
<path d="M10.2489 5.21899C10.1704 5.2531 10.0856 5.27071 10 5.27071L10.4145 5.5503C10.5002 5.5503 10.5849 5.5327 10.6634 5.49859L10.2489 5.21899Z" fill="currentColor"/>
<path d="M10 5.27071V4.60404C9.70689 4.60404 9.44816 4.79549 9.36246 5.07579C9.27677 5.3561 9.3842 5.65949 9.6272 5.8234L10 5.27071ZM10.2489 5.21899L10.6217 4.6663C10.433 4.53898 10.1923 4.5168 9.9834 4.60749L10.2489 5.21899ZM10.6634 5.49859L10.929 6.1101C11.1523 6.01314 11.305 5.80217 11.3273 5.55976C11.3496 5.31734 11.2381 5.08203 11.0362 4.9459L10.6634 5.49859ZM10.4145 5.5503L10.0417 6.10299C10.1519 6.17728 10.2817 6.21697 10.4145 6.21697V5.5503ZM10 5.93737C10.177 5.93737 10.3521 5.901 10.5145 5.8305L9.9834 4.60749C9.98864 4.60521 9.99429 4.60404 10 4.60404V5.93737ZM9.87613 5.77169L10.2907 6.05128L11.0362 4.9459L10.6217 4.6663L9.87613 5.77169ZM10.3979 4.88708C10.4032 4.88481 10.4088 4.88364 10.4145 4.88364V6.21697C10.5915 6.21697 10.7666 6.18059 10.929 6.1101L10.3979 4.88708ZM10.7873 4.99761L10.3728 4.71801L9.6272 5.8234L10.0417 6.10299L10.7873 4.99761Z" fill="currentColor" mask="url(#path-25-inside-12_8839_30282)"/>
<mask id="path-27-inside-13_8839_30282" fill="white">
<path d="M10.4568 5.07251C10.3983 5.13509 10.3276 5.18498 10.249 5.21909L10.6635 5.49869C10.7421 5.46457 10.8128 5.41468 10.8713 5.35211L10.4568 5.07251Z"/>
</mask>
<path d="M10.4568 5.07251C10.3983 5.13509 10.3276 5.18498 10.249 5.21909L10.6635 5.49869C10.7421 5.46457 10.8128 5.41468 10.8713 5.35211L10.4568 5.07251Z" fill="currentColor"/>
<path d="M10.249 5.21909L9.9835 4.60758C9.7602 4.70454 9.60751 4.91551 9.58517 5.15792C9.56283 5.40033 9.67441 5.63565 9.87623 5.77178L10.249 5.21909ZM10.4568 5.07251L10.8296 4.51982C10.5579 4.33658 10.1934 4.37793 9.96965 4.61735L10.4568 5.07251ZM10.8713 5.35211L11.3584 5.80726C11.4916 5.66468 11.5557 5.47087 11.5337 5.27697C11.5117 5.08307 11.4059 4.90854 11.2441 4.79941L10.8713 5.35211ZM10.6635 5.49869L10.2907 6.05138C10.4795 6.1787 10.7202 6.20088 10.9291 6.11019L10.6635 5.49869ZM10.5145 5.8306C10.6769 5.7601 10.823 5.65699 10.9439 5.52767L9.96965 4.61735C9.97355 4.61318 9.97826 4.60985 9.9835 4.60758L10.5145 5.8306ZM10.084 5.6252L10.4985 5.9048L11.2441 4.79941L10.8296 4.51982L10.084 5.6252ZM10.3842 4.89695C10.3881 4.89278 10.3928 4.88945 10.398 4.88718L10.9291 6.11019C11.0914 6.0397 11.2375 5.93659 11.3584 5.80726L10.3842 4.89695ZM11.0363 4.94599L10.6218 4.6664L9.87623 5.77178L10.2907 6.05138L11.0363 4.94599Z" fill="currentColor" mask="url(#path-27-inside-13_8839_30282)"/>
<mask id="path-29-inside-14_8839_30282" fill="white">
<path d="M10 3.76085C11.885 1.99669 14.0208 1.47502 15.8 2.17252L16.2145 2.45212C14.4354 1.75462 12.2995 2.27628 10.4145 4.04045L10 3.76085Z"/>
</mask>
<path d="M10 3.76085C11.885 1.99669 14.0208 1.47502 15.8 2.17252L16.2145 2.45212C14.4354 1.75462 12.2995 2.27628 10.4145 4.04045L10 3.76085Z" fill="currentColor"/>
<path d="M15.8 2.17252L16.1728 1.61983C16.1323 1.59249 16.0888 1.56969 16.0433 1.55185L15.8 2.17252ZM10 3.76085L9.54445 3.27411C9.39627 3.4128 9.31933 3.61144 9.33544 3.81376C9.35154 4.01608 9.45894 4.20005 9.6272 4.31355L10 3.76085ZM10.4145 4.04045L10.0417 4.59314C10.2994 4.76698 10.6431 4.73962 10.8701 4.5272L10.4145 4.04045ZM16.2145 2.45212L15.9712 3.07279C16.2876 3.19685 16.6467 3.06298 16.8048 2.76205C16.9628 2.46112 16.8691 2.08949 16.5873 1.89943L16.2145 2.45212ZM16.0433 1.55185C13.9598 0.735009 11.56 1.38776 9.54445 3.27411L10.4555 4.2476C12.21 2.60562 14.0819 2.21503 15.5567 2.7932L16.0433 1.55185ZM9.6272 4.31355L10.0417 4.59314L10.7873 3.48776L10.3728 3.20816L9.6272 4.31355ZM10.8701 4.5272C12.6245 2.88522 14.4964 2.49463 15.9712 3.07279L16.4578 1.83144C14.3743 1.01461 11.9745 1.66735 9.95897 3.5537L10.8701 4.5272ZM16.5873 1.89943L16.1728 1.61983L15.4272 2.72521L15.8417 3.00481L16.5873 1.89943Z" fill="currentColor" mask="url(#path-29-inside-14_8839_30282)"/>
<mask id="path-31-inside-15_8839_30282" fill="white">
<path d="M7.07434 16.6342C5.83101 15.6251 4.34101 14.2726 3.15601 12.7617L3.57052 13.0413C4.75552 14.5521 6.24553 15.9046 7.48886 16.9138L7.07434 16.6342Z"/>
</mask>
<path d="M7.07434 16.6342C5.83101 15.6251 4.34101 14.2726 3.15601 12.7617L3.57052 13.0413C4.75552 14.5521 6.24553 15.9046 7.48886 16.9138L7.07434 16.6342Z" fill="currentColor"/>
<path d="M3.15601 12.7617L3.5288 12.209C3.25674 12.0255 2.89159 12.0673 2.66801 12.3075C2.44442 12.5477 2.42891 12.9149 2.63144 13.1732L3.15601 12.7617ZM7.07434 16.6342L6.65421 17.1518C6.66946 17.1642 6.68526 17.1759 6.70154 17.1869L7.07434 16.6342ZM7.48886 16.9138L7.11606 17.4665C7.41181 17.666 7.81218 17.5973 8.02454 17.3107C8.23689 17.024 8.18597 16.621 7.90899 16.3962L7.48886 16.9138ZM3.57052 13.0413L4.09509 12.6299C4.05217 12.5752 4.00097 12.5275 3.94332 12.4886L3.57052 13.0413ZM2.63144 13.1732C3.85969 14.7391 5.392 16.1274 6.65421 17.1518L7.49447 16.1166C6.27002 15.1228 4.82232 13.806 3.68057 12.3503L2.63144 13.1732ZM6.70154 17.1869L7.11606 17.4665L7.86165 16.3611L7.44713 16.0815L6.70154 17.1869ZM7.90899 16.3962C6.68453 15.4023 5.23684 14.0856 4.09509 12.6299L3.04596 13.4527C4.27421 15.0187 5.80652 16.4069 7.06872 17.4314L7.90899 16.3962ZM3.94332 12.4886L3.5288 12.209L2.78321 13.3144L3.19773 13.594L3.94332 12.4886Z" fill="currentColor" mask="url(#path-31-inside-15_8839_30282)"/>
<mask id="path-33-inside-16_8839_30282" fill="white">
<path d="M4.14014 11.991C5.24347 13.3976 6.65347 14.6835 7.8618 15.6635L8.27632 15.9431C7.06799 14.9631 5.65799 13.6772 4.55466 12.2706L4.14014 11.991Z"/>
</mask>
<path d="M4.14014 11.991C5.24347 13.3976 6.65347 14.6835 7.8618 15.6635L8.27632 15.9431C7.06799 14.9631 5.65799 13.6772 4.55466 12.2706L4.14014 11.991Z" fill="currentColor"/>
<path d="M7.8618 15.6635L7.44187 16.1812C7.45706 16.1936 7.47279 16.2052 7.48901 16.2162L7.8618 15.6635ZM4.14014 11.991L4.51293 11.4383C4.24087 11.2548 3.87572 11.2965 3.65213 11.5368C3.42855 11.777 3.41305 12.1442 3.61558 12.4024L4.14014 11.991ZM4.55466 12.2706L5.07921 11.8591C5.0363 11.8044 4.98509 11.7568 4.92745 11.7179L4.55466 12.2706ZM8.27632 15.9431L7.90353 16.4958C8.19931 16.6953 8.59975 16.6265 8.81208 16.3398C9.02441 16.0531 8.97336 15.65 8.69626 15.4253L8.27632 15.9431ZM8.28174 15.1457C7.09258 14.1812 5.72483 12.9311 4.66469 11.5795L3.61558 12.4024C4.76211 13.8641 6.21436 15.1857 7.44187 16.1812L8.28174 15.1457ZM3.76734 12.5437L4.18186 12.8233L4.92745 11.7179L4.51293 11.4383L3.76734 12.5437ZM4.0301 12.682C5.17663 14.1437 6.62888 15.4653 7.85638 16.4608L8.69626 15.4253C7.50709 14.4608 6.13935 13.2107 5.07921 11.8591L4.0301 12.682ZM8.64912 15.3904L8.2346 15.1108L7.48901 16.2162L7.90353 16.4958L8.64912 15.3904Z" fill="currentColor" mask="url(#path-33-inside-16_8839_30282)"/>
<mask id="path-35-inside-17_8839_30282" fill="white">
<path d="M15.3451 3.33576C14.041 2.82576 12.2168 3.18993 10.4568 5.07243L10.8713 5.35203C12.6313 3.46953 14.4555 3.10536 15.7596 3.61536L15.3451 3.33576Z"/>
</mask>
<path d="M15.3451 3.33576C14.041 2.82576 12.2168 3.18993 10.4568 5.07243L10.8713 5.35203C12.6313 3.46953 14.4555 3.10536 15.7596 3.61536L15.3451 3.33576Z" fill="currentColor"/>
<path d="M10.4568 5.07243L9.9698 4.61714C9.83651 4.75971 9.77239 4.95353 9.79436 5.14747C9.81633 5.34141 9.92218 5.51598 10.084 5.62512L10.4568 5.07243ZM15.3451 3.33576L15.7179 2.78307C15.6772 2.75563 15.6336 2.73276 15.5879 2.71488L15.3451 3.33576ZM15.7596 3.61536L15.5168 4.23624C15.8333 4.35999 16.1922 4.22594 16.35 3.92504C16.5079 3.62414 16.4141 3.25267 16.1324 3.06267L15.7596 3.61536ZM10.8713 5.35203L10.4985 5.90472C10.7701 6.08791 11.1346 6.04663 11.3583 5.80732L10.8713 5.35203ZM10.9438 5.52772C12.5796 3.77805 14.1278 3.57554 15.1023 3.95664L15.5879 2.71488C13.9541 2.07599 11.854 2.60181 9.9698 4.61714L10.9438 5.52772ZM14.9723 3.88846L15.3868 4.16805L16.1324 3.06267L15.7179 2.78307L14.9723 3.88846ZM16.0024 2.99448C14.3687 2.35558 12.2685 2.8814 10.3843 4.89673L11.3583 5.80732C12.9941 4.05765 14.5423 3.85514 15.5168 4.23624L16.0024 2.99448ZM11.2441 4.79934L10.8296 4.51974L10.084 5.62512L10.4985 5.90472L11.2441 4.79934Z" fill="currentColor" mask="url(#path-35-inside-17_8839_30282)"/>
<mask id="path-37-inside-18_8839_30282" fill="white">
<path d="M11.4583 7.50005C11.4583 7.33429 11.5241 7.17532 11.6413 7.05811L12.0558 7.3377C11.9386 7.45491 11.8728 7.61388 11.8728 7.77964L11.4583 7.50005Z"/>
</mask>
<path d="M11.4583 7.50005C11.4583 7.33429 11.5241 7.17532 11.6413 7.05811L12.0558 7.3377C11.9386 7.45491 11.8728 7.61388 11.8728 7.77964L11.4583 7.50005Z" fill="currentColor"/>
<path d="M11.6413 7.05811L12.0141 6.50541C11.7495 6.32695 11.3956 6.36103 11.1699 6.5867L11.6413 7.05811ZM11.4583 7.50005H10.7916C10.7916 7.72167 10.9017 7.92881 11.0855 8.05274L11.4583 7.50005ZM11.8728 7.77964L11.5 8.33233C11.7043 8.47018 11.9681 8.484 12.1858 8.36827C12.4034 8.25255 12.5394 8.02615 12.5394 7.77964H11.8728ZM12.0558 7.3377L12.5272 7.80911C12.668 7.66832 12.7385 7.47199 12.7194 7.2738C12.7003 7.07562 12.5937 6.89634 12.4286 6.78501L12.0558 7.3377ZM11.1699 6.5867C10.9277 6.82894 10.7916 7.15748 10.7916 7.50005H12.1249C12.1249 7.5111 12.1205 7.5217 12.1127 7.52951L11.1699 6.5867ZM11.0855 8.05274L11.5 8.33233L12.2456 7.22695L11.831 6.94736L11.0855 8.05274ZM12.5394 7.77964C12.5394 7.79069 12.535 7.80129 12.5272 7.80911L11.5844 6.8663C11.3422 7.10853 11.2061 7.43707 11.2061 7.77964H12.5394ZM12.4286 6.78501L12.0141 6.50541L11.2685 7.6108L11.683 7.89039L12.4286 6.78501Z" fill="currentColor" mask="url(#path-37-inside-18_8839_30282)"/>
<mask id="path-39-inside-19_8839_30282" fill="white">
<path d="M11.6414 7.05806C11.7586 6.94085 11.9175 6.875 12.0833 6.875L12.4978 7.1546C12.3321 7.1546 12.1731 7.22044 12.0559 7.33766L11.6414 7.05806Z"/>
</mask>
<path d="M11.6414 7.05806C11.7586 6.94085 11.9175 6.875 12.0833 6.875L12.4978 7.1546C12.3321 7.1546 12.1731 7.22044 12.0559 7.33766L11.6414 7.05806Z" fill="currentColor"/>
<path d="M12.0833 6.875L12.4561 6.32231C12.346 6.24802 12.2161 6.20833 12.0833 6.20833V6.875ZM11.6414 7.05806L11.17 6.58665C11.0292 6.72744 10.9587 6.92378 10.9778 7.12196C10.9968 7.32014 11.1035 7.49942 11.2686 7.61075L11.6414 7.05806ZM12.0559 7.33766L11.6831 7.89035C11.9477 8.06881 12.3016 8.03473 12.5273 7.80906L12.0559 7.33766ZM12.4978 7.1546V7.82126C12.7909 7.82126 13.0497 7.62981 13.1354 7.34951C13.2211 7.06921 13.1136 6.76581 12.8706 6.6019L12.4978 7.1546ZM12.0833 6.20833C11.7407 6.20833 11.4122 6.34442 11.17 6.58665L12.1128 7.52946C12.1049 7.53728 12.0944 7.54167 12.0833 7.54167V6.20833ZM11.2686 7.61075L11.6831 7.89035L12.4287 6.78496L12.0142 6.50537L11.2686 7.61075ZM12.5273 7.80906C12.5195 7.81687 12.5089 7.82126 12.4978 7.82126V6.48793C12.1552 6.48793 11.8267 6.62402 11.5845 6.86625L12.5273 7.80906ZM12.8706 6.6019L12.4561 6.32231L11.7105 7.42769L12.125 7.70729L12.8706 6.6019Z" fill="currentColor" mask="url(#path-39-inside-19_8839_30282)"/>
<mask id="path-41-inside-20_8839_30282" fill="white">
<path d="M11.6413 7.94194C11.5241 7.82473 11.4583 7.66576 11.4583 7.5L11.8728 7.7796C11.8728 7.94536 11.9386 8.10433 12.0558 8.22154L11.6413 7.94194Z"/>
</mask>
<path d="M11.6413 7.94194C11.5241 7.82473 11.4583 7.66576 11.4583 7.5L11.8728 7.7796C11.8728 7.94536 11.9386 8.10433 12.0558 8.22154L11.6413 7.94194Z" fill="currentColor"/>
<path d="M11.4583 7.5L11.831 6.94731C11.6267 6.80946 11.3629 6.79564 11.1453 6.91137C10.9276 7.0271 10.7916 7.25349 10.7916 7.5H11.4583ZM11.6413 7.94194L11.1699 8.41335C11.2001 8.44354 11.2331 8.47076 11.2685 8.49463L11.6413 7.94194ZM12.0558 8.22154L11.683 8.77423C11.9678 8.96628 12.3518 8.9106 12.5702 8.64559C12.7887 8.38058 12.7701 7.99298 12.5272 7.75013L12.0558 8.22154ZM11.8728 7.7796H12.5394C12.5394 7.55797 12.4293 7.35084 12.2456 7.2269L11.8728 7.7796ZM10.7916 7.5C10.7916 7.84257 10.9277 8.17111 11.1699 8.41335L12.1127 7.47054C12.1205 7.47835 12.1249 7.48895 12.1249 7.5H10.7916ZM11.2685 8.49463L11.683 8.77423L12.4286 7.66885L12.0141 7.38925L11.2685 8.49463ZM12.5272 7.75013C12.535 7.75795 12.5394 7.76855 12.5394 7.7796H11.2061C11.2061 8.12217 11.3422 8.45071 11.5844 8.69294L12.5272 7.75013ZM12.2456 7.2269L11.831 6.94731L11.0855 8.05269L11.5 8.33229L12.2456 7.2269Z" fill="currentColor" mask="url(#path-41-inside-20_8839_30282)"/>
<mask id="path-43-inside-21_8839_30282" fill="white">
<path d="M13.125 5.8333C13.125 5.66754 13.1908 5.50857 13.3081 5.39136L13.7226 5.67095C13.6054 5.78816 13.5395 5.94714 13.5395 6.1129L13.125 5.8333Z"/>
</mask>
<path d="M13.125 5.8333C13.125 5.66754 13.1908 5.50857 13.3081 5.39136L13.7226 5.67095C13.6054 5.78816 13.5395 5.94714 13.5395 6.1129L13.125 5.8333Z" fill="currentColor"/>
<path d="M13.3081 5.39136L13.6809 4.83867C13.4163 4.6602 13.0623 4.69428 12.8367 4.91995L13.3081 5.39136ZM13.125 5.8333H12.4583C12.4583 6.05492 12.5685 6.26206 12.7522 6.38599L13.125 5.8333ZM13.5395 6.1129L13.1667 6.66559C13.3711 6.80343 13.6348 6.81726 13.8525 6.70153C14.0702 6.5858 14.2062 6.35941 14.2062 6.1129H13.5395ZM13.7226 5.67095L14.194 6.14236C14.3348 6.00158 14.4053 5.80524 14.3862 5.60706C14.3671 5.40888 14.2604 5.2296 14.0954 5.11826L13.7226 5.67095ZM12.8367 4.91995C12.5944 5.16219 12.4583 5.49073 12.4583 5.8333H13.7917C13.7917 5.84435 13.7873 5.85495 13.7795 5.86276L12.8367 4.91995ZM12.7522 6.38599L13.1667 6.66559L13.9123 5.5602L13.4978 5.28061L12.7522 6.38599ZM14.2062 6.1129C14.2062 6.12395 14.2018 6.13455 14.194 6.14236L13.2512 5.19955C13.0089 5.44178 12.8729 5.77032 12.8729 6.1129H14.2062ZM14.0954 5.11826L13.6809 4.83867L12.9353 5.94405L13.3498 6.22365L14.0954 5.11826Z" fill="currentColor" mask="url(#path-43-inside-21_8839_30282)"/>
<mask id="path-45-inside-22_8839_30282" fill="white">
<path d="M11.7337 8.01801C11.7008 7.99581 11.6698 7.97037 11.6414 7.94189L12.0559 8.22149C12.0843 8.24996 12.1153 8.27541 12.1482 8.29761L11.7337 8.01801Z"/>
</mask>
<path d="M11.7337 8.01801C11.7008 7.99581 11.6698 7.97037 11.6414 7.94189L12.0559 8.22149C12.0843 8.24996 12.1153 8.27541 12.1482 8.29761L11.7337 8.01801Z" fill="currentColor"/>
<path d="M11.6414 7.94189L12.0142 7.3892C11.7294 7.19715 11.3454 7.25284 11.1269 7.51784C10.9085 7.78285 10.9271 8.17045 11.17 8.4133L11.6414 7.94189ZM11.7337 8.01801L11.3607 8.57061L11.3609 8.5707L11.7337 8.01801ZM12.1482 8.29761L11.7754 8.8503C12.0806 9.05617 12.4949 8.97566 12.7008 8.67047C12.9067 8.36528 12.8263 7.95096 12.5211 7.74501L12.1482 8.29761ZM12.0559 8.22149L12.5273 7.75009C12.4971 7.7199 12.4641 7.69267 12.4287 7.6688L12.0559 8.22149ZM11.17 8.4133C11.2288 8.47212 11.2927 8.52471 11.3607 8.57061L12.1066 7.46541C12.1088 7.46691 12.1109 7.46862 12.1128 7.47049L11.17 8.4133ZM11.3609 8.5707L11.7754 8.8503L12.521 7.74492L12.1065 7.46532L11.3609 8.5707ZM12.5211 7.74501C12.5233 7.74651 12.5254 7.74822 12.5273 7.75009L11.5845 8.6929C11.6433 8.75171 11.7072 8.8043 11.7753 8.85021L12.5211 7.74501ZM12.4287 7.6688L12.0142 7.3892L11.2686 8.49459L11.6831 8.77418L12.4287 7.6688Z" fill="currentColor" mask="url(#path-45-inside-22_8839_30282)"/>
<mask id="path-47-inside-23_8839_30282" fill="white">
<path d="M13.3081 5.39131C13.4253 5.2741 13.5843 5.20825 13.75 5.20825L14.1646 5.48785C13.9988 5.48785 13.8398 5.5537 13.7226 5.67091L13.3081 5.39131Z"/>
</mask>
<path d="M13.3081 5.39131C13.4253 5.2741 13.5843 5.20825 13.75 5.20825L14.1646 5.48785C13.9988 5.48785 13.8398 5.5537 13.7226 5.67091L13.3081 5.39131Z" fill="currentColor"/>
<path d="M13.75 5.20825L14.1228 4.65556C14.0127 4.58127 13.8829 4.54159 13.75 4.54159V5.20825ZM13.3081 5.39131L12.8367 4.91991C12.6959 5.06069 12.6254 5.25703 12.6445 5.45521C12.6636 5.65339 12.7703 5.83267 12.9353 5.944L13.3081 5.39131ZM13.7226 5.67091L13.3498 6.2236C13.6144 6.40206 13.9684 6.36798 14.194 6.14231L13.7226 5.67091ZM14.1646 5.48785V6.15452C14.4577 6.15452 14.7164 5.96307 14.8021 5.68276C14.8878 5.40246 14.7804 5.09906 14.5374 4.93516L14.1646 5.48785ZM13.75 4.54159C13.4075 4.54159 13.0789 4.67767 12.8367 4.91991L13.7795 5.86271C13.7717 5.87053 13.7611 5.87492 13.75 5.87492V4.54159ZM12.9353 5.944L13.3498 6.2236L14.0954 5.11821L13.6809 4.83862L12.9353 5.944ZM14.194 6.14231C14.1862 6.15012 14.1756 6.15452 14.1646 6.15452V4.82118C13.822 4.82118 13.4935 4.95727 13.2512 5.1995L14.194 6.14231ZM14.5374 4.93516L14.1228 4.65556L13.3773 5.76094L13.7918 6.04054L14.5374 4.93516Z" fill="currentColor" mask="url(#path-47-inside-23_8839_30282)"/>
<mask id="path-49-inside-24_8839_30282" fill="white">
<path d="M12.0833 6.875H13.1249L13.5394 7.1546H12.4978L12.0833 6.875Z"/>
</mask>
<path d="M12.0833 6.875H13.1249L13.5394 7.1546H12.4978L12.0833 6.875Z" fill="currentColor"/>
<path d="M13.1249 6.875L13.4977 6.32231C13.3876 6.24802 13.2578 6.20833 13.1249 6.20833V6.875ZM12.0833 6.875V6.20833C11.7901 6.20833 11.5314 6.39978 11.4457 6.68009C11.36 6.96039 11.4675 7.26379 11.7105 7.42769L12.0833 6.875ZM12.4978 7.1546L12.125 7.70729C12.2351 7.78157 12.3649 7.82126 12.4978 7.82126V7.1546ZM13.5394 7.1546V7.82126C13.8325 7.82126 14.0913 7.62981 14.177 7.34951C14.2627 7.06921 14.1552 6.76581 13.9122 6.6019L13.5394 7.1546ZM13.1249 6.20833H12.0833V7.54167H13.1249V6.20833ZM11.7105 7.42769L12.125 7.70729L12.8706 6.6019L12.456 6.32231L11.7105 7.42769ZM12.4978 7.82126H13.5394V6.48793H12.4978V7.82126ZM13.9122 6.6019L13.4977 6.32231L12.7521 7.42769L13.1666 7.70729L13.9122 6.6019Z" fill="currentColor" mask="url(#path-49-inside-24_8839_30282)"/>
<mask id="path-51-inside-25_8839_30282" fill="white">
<path d="M12.0833 8.12501C11.9579 8.12501 11.8364 8.08733 11.7339 8.01824L12.1482 8.29766C12.2507 8.36686 12.3723 8.4046 12.4978 8.4046L12.0833 8.12501Z"/>
</mask>
<path d="M12.0833 8.12501C11.9579 8.12501 11.8364 8.08733 11.7339 8.01824L12.1482 8.29766C12.2507 8.36686 12.3723 8.4046 12.4978 8.4046L12.0833 8.12501Z" fill="currentColor"/>
<path d="M11.5472 8.29437C11.5473 8.29445 11.5474 8.29454 11.5476 8.29463L11.9202 7.74185C11.9202 7.74182 11.9201 7.74179 11.9201 7.74177L11.5472 8.29437ZM11.7339 8.01824L12.1066 7.46546C11.8013 7.25966 11.387 7.34027 11.1812 7.64551C10.9753 7.95076 11.0559 8.36506 11.3611 8.57093L11.7339 8.01824ZM12.0833 8.12501L12.4561 7.57232C12.3459 7.49803 12.2161 7.45834 12.0833 7.45834V8.12501ZM12.4978 8.4046V9.07127C12.7909 9.07127 13.0496 8.87982 13.1353 8.59952C13.221 8.31921 13.1136 8.01582 12.8706 7.85191L12.4978 8.4046ZM12.1482 8.29766L12.5211 7.74506L12.521 7.74497L12.1482 8.29766ZM11.3612 8.57103C11.573 8.71379 11.8241 8.79167 12.0833 8.79167V7.45834C12.0917 7.45834 12.0998 7.46087 12.1066 7.46546L11.3612 8.57103ZM11.7105 8.6777L12.125 8.9573L12.8706 7.85191L12.4561 7.57232L11.7105 8.6777ZM12.4978 7.73794C12.5062 7.73794 12.5143 7.74047 12.5211 7.74506L11.7752 8.85026C11.9871 8.99325 12.2384 9.07127 12.4978 9.07127V7.73794ZM12.521 7.74497L12.1067 7.46555L11.3611 8.57093L11.7754 8.85035L12.521 7.74497Z" fill="currentColor" mask="url(#path-51-inside-25_8839_30282)"/>
<mask id="path-53-inside-26_8839_30282" fill="white">
<path d="M13.125 6.87492V5.83325L13.5395 6.11285V7.15452L13.125 6.87492Z"/>
</mask>
<path d="M13.125 6.87492V5.83325L13.5395 6.11285V7.15452L13.125 6.87492Z" fill="currentColor"/>
<path d="M13.125 5.83325L13.4978 5.28056C13.2934 5.14271 13.0297 5.12889 12.812 5.24462C12.5944 5.36035 12.4583 5.58674 12.4583 5.83325H13.125ZM13.125 6.87492H12.4583C12.4583 7.09654 12.5685 7.30368 12.7522 7.42761L13.125 6.87492ZM13.5395 7.15452L13.1667 7.70721C13.3711 7.84505 13.6348 7.85888 13.8525 7.74315C14.0702 7.62742 14.2062 7.40103 14.2062 7.15452H13.5395ZM13.5395 6.11285H14.2062C14.2062 5.89122 14.096 5.68409 13.9123 5.56016L13.5395 6.11285ZM12.4583 5.83325V6.87492H13.7917V5.83325H12.4583ZM12.7522 7.42761L13.1667 7.70721L13.9123 6.60182L13.4978 6.32223L12.7522 7.42761ZM14.2062 7.15452V6.11285H12.8729V7.15452H14.2062ZM13.9123 5.56016L13.4978 5.28056L12.7522 6.38594L13.1667 6.66554L13.9123 5.56016Z" fill="currentColor" mask="url(#path-53-inside-26_8839_30282)"/>
<mask id="path-55-inside-27_8839_30282" fill="white">
<path d="M13.75 5.20825C13.8755 5.20825 13.9971 5.24599 14.0996 5.31519L14.5139 5.59462C14.4114 5.52553 14.2899 5.48785 14.1645 5.48785L13.75 5.20825Z"/>
</mask>
<path d="M13.75 5.20825C13.8755 5.20825 13.9971 5.24599 14.0996 5.31519L14.5139 5.59462C14.4114 5.52553 14.2899 5.48785 14.1645 5.48785L13.75 5.20825Z" fill="currentColor"/>
<path d="M14.3276 5.87105L14.3277 5.87107L14.7006 5.3185C14.7005 5.31842 14.7003 5.31831 14.7002 5.31818L14.3276 5.87105ZM14.0996 5.31519L13.7267 5.86779L13.7268 5.86788L14.0996 5.31519ZM13.75 5.20825V4.54159C13.4569 4.54159 13.1982 4.73303 13.1125 5.01334C13.0268 5.29364 13.1342 5.59704 13.3772 5.76094L13.75 5.20825ZM14.1645 5.48785L13.7917 6.04054C13.9019 6.11483 14.0317 6.15452 14.1645 6.15452V5.48785ZM14.5139 5.59462L14.1412 6.1474C14.4465 6.35319 14.8608 6.27258 15.0666 5.96734C15.2725 5.6621 15.1919 5.24779 14.8867 5.04192L14.5139 5.59462ZM14.4726 4.76259C14.2607 4.6196 14.0094 4.54159 13.75 4.54159V5.87492C13.7416 5.87492 13.7335 5.87239 13.7267 5.86779L14.4726 4.76259ZM13.3772 5.76094L13.7917 6.04054L14.5373 4.93516L14.1228 4.65556L13.3772 5.76094ZM14.1645 6.15452C14.1561 6.15452 14.148 6.15199 14.1412 6.1474L14.8866 5.04183C14.6748 4.89907 14.4237 4.82118 14.1645 4.82118V6.15452ZM14.8867 5.04192L14.4724 4.7625L13.7268 5.86788L14.1411 6.14731L14.8867 5.04192Z" fill="currentColor" mask="url(#path-55-inside-27_8839_30282)"/>
<mask id="path-57-inside-28_8839_30282" fill="white">
<path d="M14.0996 5.31519C14.1325 5.33739 14.1634 5.36283 14.1919 5.3913L14.6064 5.6709C14.578 5.64243 14.547 5.61699 14.5141 5.59478L14.0996 5.31519Z"/>
</mask>
<path d="M14.0996 5.31519C14.1325 5.33739 14.1634 5.36283 14.1919 5.3913L14.6064 5.6709C14.578 5.64243 14.547 5.61699 14.5141 5.59478L14.0996 5.31519Z" fill="currentColor"/>
<path d="M14.1919 5.3913L13.7205 5.86271C13.7507 5.8929 13.7837 5.92012 13.8191 5.94399L14.1919 5.3913ZM14.0996 5.31519L14.4724 4.76249C14.1672 4.55662 13.7529 4.63713 13.547 4.94232C13.3411 5.24751 13.4215 5.66184 13.7267 5.86778L14.0996 5.31519ZM14.5141 5.59478L14.8871 5.04218L14.8869 5.04209L14.5141 5.59478ZM14.6064 5.6709L14.2336 6.22359C14.5184 6.41564 14.9024 6.35996 15.1209 6.09495C15.3393 5.82995 15.3207 5.44234 15.0778 5.19949L14.6064 5.6709ZM14.6633 4.9199C14.6045 4.86108 14.5406 4.80849 14.4725 4.76259L13.7267 5.86778C13.7245 5.86628 13.7224 5.86458 13.7205 5.86271L14.6633 4.9199ZM13.7268 5.86788L14.1413 6.14747L14.8869 5.04209L14.4724 4.76249L13.7268 5.86788ZM14.1412 6.14738C14.139 6.14588 14.1369 6.14417 14.135 6.1423L15.0778 5.19949C15.019 5.14068 14.9551 5.08809 14.8871 5.04218L14.1412 6.14738ZM14.9792 5.11821L14.5647 4.83861L13.8191 5.94399L14.2336 6.22359L14.9792 5.11821Z" fill="currentColor" mask="url(#path-57-inside-28_8839_30282)"/>
<mask id="path-59-inside-29_8839_30282" fill="white">
<path d="M15.8 2.17261C16.0978 2.28912 16.3791 2.43717 16.6419 2.6145L17.0547 2.89293C16.7924 2.71612 16.5117 2.56846 16.2146 2.4522L15.8 2.17261Z"/>
</mask>
<path d="M15.8 2.17261C16.0978 2.28912 16.3791 2.43717 16.6419 2.6145L17.0547 2.89293C16.7924 2.71612 16.5117 2.56846 16.2146 2.4522L15.8 2.17261Z" fill="currentColor"/>
<path d="M16.8683 3.16932C16.8689 3.16969 16.8694 3.17005 16.8699 3.1704L17.2429 2.6178C17.2423 2.61737 17.2416 2.61695 17.241 2.61655L16.8683 3.16932ZM16.6419 2.6145L16.269 3.1671L16.2691 3.16719L16.6419 2.6145ZM15.8 2.17261L16.043 1.55177C15.7265 1.42796 15.3676 1.56197 15.2097 1.86288C15.0518 2.16379 15.1455 2.53528 15.4273 2.7253L15.8 2.17261ZM16.2146 2.4522L15.8418 3.0049C15.8824 3.03232 15.926 3.05518 15.9717 3.07304L16.2146 2.4522ZM17.0547 2.89293L16.682 3.44571C16.9873 3.65151 17.4016 3.5709 17.6074 3.26566C17.8133 2.96042 17.7327 2.54611 17.4275 2.34024L17.0547 2.89293ZM17.0148 2.0619C16.7116 1.85729 16.3868 1.68628 16.043 1.55177L15.5571 2.79345C15.8089 2.89195 16.0466 3.01706 16.269 3.1671L17.0148 2.0619ZM15.4273 2.7253L15.8418 3.0049L16.5874 1.89951L16.1728 1.61992L15.4273 2.7253ZM15.9717 3.07304C16.2229 3.17133 16.4601 3.29611 16.682 3.44571L17.4274 2.34015C17.1247 2.13614 16.8005 1.96559 16.4575 1.83136L15.9717 3.07304ZM17.4275 2.34024L17.0147 2.06181L16.2691 3.16719L16.6819 3.44562L17.4275 2.34024Z" fill="currentColor" mask="url(#path-59-inside-29_8839_30282)"/>
<mask id="path-61-inside-30_8839_30282" fill="white">
<path d="M15.9317 3.64475C15.7442 3.51828 15.5476 3.41527 15.345 3.33594L15.7595 3.61553C15.9621 3.69487 16.1587 3.79788 16.3462 3.92434L15.9317 3.64475Z"/>
</mask>
<path d="M15.9317 3.64475C15.7442 3.51828 15.5476 3.41527 15.345 3.33594L15.7595 3.61553C15.9621 3.69487 16.1587 3.79788 16.3462 3.92434L15.9317 3.64475Z" fill="currentColor"/>
<path d="M15.345 3.33594L15.5881 2.71517C15.2716 2.59125 14.9126 2.72521 14.7547 3.02612C14.5967 3.32704 14.6904 3.69859 14.9722 3.88863L15.345 3.33594ZM15.9317 3.64475L16.3045 3.09206L16.3044 3.09198L15.9317 3.64475ZM16.3462 3.92434L15.9736 4.47711C16.2788 4.68292 16.6931 4.60233 16.899 4.29709C17.1048 3.99184 17.0243 3.57753 16.719 3.37165L16.3462 3.92434ZM15.7595 3.61553L15.3867 4.16823C15.4273 4.19561 15.4708 4.21845 15.5164 4.2363L15.7595 3.61553ZM15.1019 3.95671C15.2583 4.01794 15.4114 4.09801 15.559 4.19751L16.3044 3.09198C16.0769 2.93856 15.8369 2.8126 15.5881 2.71517L15.1019 3.95671ZM15.5589 4.19744L15.9734 4.47704L16.719 3.37165L16.3045 3.09206L15.5589 4.19744ZM16.7189 3.37158C16.4914 3.21816 16.2514 3.0922 16.0026 2.99476L15.5164 4.2363C15.6728 4.29754 15.826 4.3776 15.9736 4.47711L16.7189 3.37158ZM16.1323 3.06284L15.7178 2.78325L14.9722 3.88863L15.3867 4.16823L16.1323 3.06284Z" fill="currentColor" mask="url(#path-61-inside-30_8839_30282)"/>
<mask id="path-63-inside-31_8839_30282" fill="white">
<path d="M14.1919 5.39136C14.3091 5.50857 14.375 5.66754 14.375 5.8333L14.7895 6.1129C14.7895 5.94714 14.7236 5.78816 14.6064 5.67095L14.1919 5.39136Z"/>
</mask>
<path d="M14.1919 5.39136C14.3091 5.50857 14.375 5.66754 14.375 5.8333L14.7895 6.1129C14.7895 5.94714 14.7236 5.78816 14.6064 5.67095L14.1919 5.39136Z" fill="currentColor"/>
<path d="M14.375 5.8333H13.7083C13.7083 6.05492 13.8184 6.26206 14.0022 6.38599L14.375 5.8333ZM14.1919 5.39136L14.5647 4.83867C14.28 4.64662 13.8959 4.7023 13.6775 4.96731C13.459 5.23231 13.4776 5.61991 13.7205 5.86276L14.1919 5.39136ZM14.6064 5.67095L15.0778 5.19955C15.0476 5.16936 15.0146 5.14214 14.9792 5.11826L14.6064 5.67095ZM14.7895 6.1129L14.4167 6.66559C14.621 6.80343 14.8848 6.81726 15.1025 6.70153C15.3201 6.5858 15.4561 6.35941 15.4561 6.1129H14.7895ZM15.0416 5.8333C15.0416 5.49073 14.9055 5.16219 14.6633 4.91995L13.7205 5.86276C13.7127 5.85495 13.7083 5.84435 13.7083 5.8333H15.0416ZM13.8191 5.94405L14.2336 6.22365L14.9792 5.11826L14.5647 4.83867L13.8191 5.94405ZM14.135 6.14236C14.1272 6.13454 14.1228 6.12395 14.1228 6.1129H15.4561C15.4561 5.77033 15.3201 5.44178 15.0778 5.19955L14.135 6.14236ZM15.1623 5.5602L14.7477 5.28061L14.0022 6.38599L14.4167 6.66559L15.1623 5.5602Z" fill="currentColor" mask="url(#path-63-inside-31_8839_30282)"/>
<mask id="path-65-inside-32_8839_30282" fill="white">
<path d="M13.1249 8.125H12.0833L12.4978 8.4046H13.5394L13.1249 8.125Z"/>
</mask>
<path d="M13.1249 8.125H12.0833L12.4978 8.4046H13.5394L13.1249 8.125Z" fill="currentColor"/>
<path d="M12.0833 8.125V7.45833C11.7901 7.45833 11.5314 7.64978 11.4457 7.93009C11.36 8.21039 11.4675 8.51379 11.7105 8.67769L12.0833 8.125ZM13.1249 8.125L13.4977 7.57231C13.3876 7.49802 13.2578 7.45833 13.1249 7.45833V8.125ZM13.5394 8.4046V9.07126C13.8325 9.07126 14.0913 8.87981 14.177 8.59951C14.2627 8.31921 14.1552 8.01581 13.9122 7.8519L13.5394 8.4046ZM12.4978 8.4046L12.125 8.95729C12.2351 9.03157 12.3649 9.07126 12.4978 9.07126V8.4046ZM12.0833 8.79167H13.1249V7.45833H12.0833V8.79167ZM12.7521 8.67769L13.1666 8.95729L13.9122 7.8519L13.4977 7.57231L12.7521 8.67769ZM13.5394 7.73793H12.4978V9.07126H13.5394V7.73793ZM12.8706 7.8519L12.456 7.57231L11.7105 8.67769L12.125 8.95729L12.8706 7.8519Z" fill="currentColor" mask="url(#path-65-inside-32_8839_30282)"/>
<mask id="path-67-inside-33_8839_30282" fill="white">
<path d="M7.08749 16.6452L7.07422 16.6343L7.48874 16.9139L7.502 16.9248L7.08749 16.6452Z"/>
</mask>
<path d="M7.08749 16.6452L7.07422 16.6343L7.48874 16.9139L7.502 16.9248L7.08749 16.6452Z" fill="currentColor"/>
<path d="M7.07422 16.6343L7.44701 16.0816C7.15186 15.8825 6.75236 15.9505 6.53964 16.2359C6.32692 16.5214 6.37604 16.9237 6.65122 17.1496L7.07422 16.6343ZM7.08749 16.6452L6.66449 17.1605C6.68063 17.1737 6.69738 17.1862 6.71469 17.1979L7.08749 16.6452ZM7.502 16.9248L7.12921 17.4775C7.42436 17.6765 7.82386 17.6086 8.03658 17.3231C8.2493 17.0376 8.20018 16.6354 7.925 16.4095L7.502 16.9248ZM7.48874 16.9139L7.91174 16.3986C7.8956 16.3853 7.87884 16.3729 7.86153 16.3612L7.48874 16.9139ZM6.65122 17.1496L6.66449 17.1605L7.51048 16.1299L7.49722 16.119L6.65122 17.1496ZM6.71469 17.1979L7.12921 17.4775L7.8748 16.3721L7.46028 16.0925L6.71469 17.1979ZM7.925 16.4095L7.91174 16.3986L7.06574 17.4292L7.07901 17.44L7.925 16.4095ZM7.86153 16.3612L7.44701 16.0816L6.70142 17.187L7.11594 17.4666L7.86153 16.3612Z" fill="currentColor" mask="url(#path-67-inside-33_8839_30282)"/>
<mask id="path-69-inside-34_8839_30282" fill="white">
<path d="M7.17253 16.7149L7.0874 16.645L7.50192 16.9246L7.58705 16.9945L7.17253 16.7149Z"/>
</mask>
<path d="M7.17253 16.7149L7.0874 16.645L7.50192 16.9246L7.58705 16.9945L7.17253 16.7149Z" fill="currentColor"/>
<path d="M7.0874 16.645L7.4602 16.0923C7.16504 15.8932 6.76554 15.9612 6.55282 16.2467C6.3401 16.5322 6.38923 16.9344 6.66441 17.1603L7.0874 16.645ZM7.17253 16.7149L6.74954 17.2302C6.76568 17.2434 6.78243 17.2559 6.79974 17.2676L7.17253 16.7149ZM7.58705 16.9945L7.21426 17.5472C7.50941 17.7463 7.90891 17.6783 8.12163 17.3928C8.33436 17.1073 8.28522 16.7051 8.01004 16.4792L7.58705 16.9945ZM7.50192 16.9246L7.92491 16.4093C7.90878 16.3961 7.89202 16.3836 7.87472 16.3719L7.50192 16.9246ZM6.66441 17.1603L6.74954 17.2302L7.59553 16.1996L7.51039 16.1297L6.66441 17.1603ZM6.79974 17.2676L7.21426 17.5472L7.95985 16.4418L7.54533 16.1622L6.79974 17.2676ZM8.01004 16.4792L7.92491 16.4093L7.07893 17.4399L7.16406 17.5098L8.01004 16.4792ZM7.87472 16.3719L7.4602 16.0923L6.71461 17.1977L7.12913 17.4773L7.87472 16.3719Z" fill="currentColor" mask="url(#path-69-inside-34_8839_30282)"/>
<mask id="path-71-inside-35_8839_30282" fill="white">
<path d="M7.18587 16.7257L7.17261 16.7148L7.58713 16.9944L7.60039 17.0053L7.18587 16.7257Z"/>
</mask>
<path d="M7.18587 16.7257L7.17261 16.7148L7.58713 16.9944L7.60039 17.0053L7.18587 16.7257Z" fill="currentColor"/>
<path d="M7.17261 16.7148L7.5454 16.1622C7.25025 15.9631 6.85075 16.031 6.63803 16.3165C6.42531 16.602 6.47443 17.0042 6.74961 17.2301L7.17261 16.7148ZM7.18587 16.7257L6.76288 17.241C6.77902 17.2543 6.79577 17.2668 6.81308 17.2784L7.18587 16.7257ZM7.60039 17.0053L7.2276 17.558C7.52275 17.7571 7.92225 17.6891 8.13497 17.4037C8.34769 17.1182 8.29857 16.7159 8.02339 16.49L7.60039 17.0053ZM7.58713 16.9944L8.01012 16.4792C7.99399 16.4659 7.97723 16.4534 7.95992 16.4417L7.58713 16.9944ZM6.74961 17.2301L6.76288 17.241L7.60887 16.2105L7.59561 16.1996L6.74961 17.2301ZM6.81308 17.2784L7.2276 17.558L7.97319 16.4526L7.55867 16.173L6.81308 17.2784ZM8.02339 16.49L8.01012 16.4792L7.16413 17.5097L7.1774 17.5206L8.02339 16.49ZM7.95992 16.4417L7.5454 16.1622L6.79981 17.2675L7.21433 17.5471L7.95992 16.4417Z" fill="currentColor" mask="url(#path-71-inside-35_8839_30282)"/>
<mask id="path-73-inside-36_8839_30282" fill="white">
<path d="M14.375 5.83325V6.87492L14.7895 7.15452V6.11285L14.375 5.83325Z"/>
</mask>
<path d="M14.375 5.83325V6.87492L14.7895 7.15452V6.11285L14.375 5.83325Z" fill="currentColor"/>
<path d="M14.375 6.87492H13.7083C13.7083 7.09654 13.8185 7.30368 14.0022 7.42761L14.375 6.87492ZM14.375 5.83325L14.7478 5.28056C14.5434 5.14271 14.2797 5.12889 14.062 5.24462C13.8444 5.36035 13.7083 5.58674 13.7083 5.83325H14.375ZM14.7895 6.11285H15.4562C15.4562 5.89122 15.346 5.68409 15.1623 5.56016L14.7895 6.11285ZM14.7895 7.15452L14.4167 7.70721C14.6211 7.84505 14.8848 7.85888 15.1025 7.74315C15.3202 7.62742 15.4562 7.40103 15.4562 7.15452H14.7895ZM15.0417 6.87492V5.83325H13.7083V6.87492H15.0417ZM14.0022 6.38594L14.4167 6.66554L15.1623 5.56016L14.7478 5.28056L14.0022 6.38594ZM14.1229 6.11285V7.15452H15.4562V6.11285H14.1229ZM15.1623 6.60182L14.7478 6.32223L14.0022 7.42761L14.4167 7.70721L15.1623 6.60182Z" fill="currentColor" mask="url(#path-73-inside-36_8839_30282)"/>
<mask id="path-75-inside-37_8839_30282" fill="white">
<path d="M13.125 9.16667V8.125L13.5395 8.4046V9.44626L13.125 9.16667Z"/>
</mask>
<path d="M13.125 9.16667V8.125L13.5395 8.4046V9.44626L13.125 9.16667Z" fill="currentColor"/>
<path d="M13.125 8.125L13.4978 7.57231C13.2934 7.43446 13.0297 7.42064 12.812 7.53637C12.5944 7.6521 12.4583 7.87849 12.4583 8.125H13.125ZM13.125 9.16667H12.4583C12.4583 9.38829 12.5685 9.59543 12.7522 9.71936L13.125 9.16667ZM13.5395 9.44626L13.1667 9.99896C13.3711 10.1368 13.6348 10.1506 13.8525 10.0349C14.0702 9.91917 14.2062 9.69277 14.2062 9.44626H13.5395ZM13.5395 8.4046H14.2062C14.2062 8.18297 14.096 7.97584 13.9123 7.8519L13.5395 8.4046ZM12.4583 8.125V9.16667H13.7917V8.125H12.4583ZM12.7522 9.71936L13.1667 9.99896L13.9123 8.89357L13.4978 8.61398L12.7522 9.71936ZM14.2062 9.44626V8.4046H12.8729V9.44626H14.2062ZM13.9123 7.8519L13.4978 7.57231L12.7522 8.67769L13.1667 8.95729L13.9123 7.8519Z" fill="currentColor" mask="url(#path-75-inside-37_8839_30282)"/>
<mask id="path-77-inside-38_8839_30282" fill="white">
<path d="M8.21343 17.5158C7.88707 17.2954 7.55543 17.026 7.18604 16.7258L7.60055 17.0054C7.96995 17.3056 8.30159 17.575 8.62795 17.7954L8.21343 17.5158Z"/>
</mask>
<path d="M8.21343 17.5158C7.88707 17.2954 7.55543 17.026 7.18604 16.7258L7.60055 17.0054C7.96995 17.3056 8.30159 17.575 8.62795 17.7954L8.21343 17.5158Z" fill="currentColor"/>
<path d="M7.18604 16.7258L7.55883 16.1731C7.26314 15.9737 6.86285 16.0423 6.65046 16.3288C6.43807 16.6154 6.48882 17.0183 6.76564 17.2432L7.18604 16.7258ZM8.21343 17.5158L7.84025 18.0683L7.84063 18.0685L8.21343 17.5158ZM8.62795 17.7954L8.25515 18.3481C8.56032 18.554 8.97457 18.4735 9.18051 18.1684C9.38645 17.8633 9.30615 17.4491 9.00112 17.243L8.62795 17.7954ZM7.60055 17.0054L8.02095 16.488C8.00561 16.4756 7.98973 16.4638 7.97335 16.4527L7.60055 17.0054ZM6.76564 17.2432C7.12923 17.5387 7.48478 17.8282 7.84025 18.0683L8.5866 16.9634C8.28936 16.7626 7.98163 16.5133 7.60643 16.2084L6.76564 17.2432ZM7.84063 18.0685L8.25515 18.3481L9.00074 17.2428L8.58622 16.9632L7.84063 18.0685ZM9.00112 17.243C8.70387 17.0422 8.39614 16.7929 8.02095 16.488L7.18016 17.5228C7.54375 17.8183 7.8993 18.1078 8.25477 18.3479L9.00112 17.243ZM7.97335 16.4527L7.55883 16.1731L6.81324 17.2785L7.22776 17.5581L7.97335 16.4527Z" fill="currentColor" mask="url(#path-77-inside-38_8839_30282)"/>
<mask id="path-79-inside-39_8839_30282" fill="white">
<path d="M7.86182 15.6633C8.32723 16.0412 8.66633 16.3109 8.94441 16.4983L9.35659 16.7763C9.07894 16.5889 8.74045 16.3197 8.27634 15.9429L7.86182 15.6633Z"/>
</mask>
<path d="M7.86182 15.6633C8.32723 16.0412 8.66633 16.3109 8.94441 16.4983L9.35659 16.7763C9.07894 16.5889 8.74045 16.3197 8.27634 15.9429L7.86182 15.6633Z" fill="currentColor"/>
<path d="M9.1701 17.0526C9.17095 17.0532 9.17179 17.0537 9.17261 17.0543L9.54525 16.5015C9.54451 16.501 9.54379 16.5005 9.54307 16.5L9.1701 17.0526ZM8.94441 16.4983L9.31721 15.9456L9.31705 15.9455L8.94441 16.4983ZM7.86182 15.6633L8.23461 15.1106C7.93888 14.9112 7.53853 14.9798 7.32617 15.2664C7.1138 15.553 7.16467 15.956 7.4416 16.1809L7.86182 15.6633ZM8.27634 15.9429L8.69655 15.4254C8.68127 15.413 8.66545 15.4012 8.64913 15.3902L8.27634 15.9429ZM9.35659 16.7763L8.98379 17.329C9.28901 17.5349 9.70332 17.4544 9.90923 17.1492C10.1151 16.844 10.0347 16.4297 9.72954 16.2237L9.35659 16.7763ZM9.31705 15.9455C9.06791 15.7776 8.75211 15.5274 8.28203 15.1458L7.4416 16.1809C7.90235 16.555 8.26474 16.8441 8.57177 17.0511L9.31705 15.9455ZM7.48902 16.216L7.90354 16.4956L8.64913 15.3902L8.23461 15.1106L7.48902 16.216ZM7.85612 16.4605C8.31563 16.8336 8.67725 17.1221 8.98364 17.3289L9.72954 16.2237C9.48064 16.0557 9.16526 15.8059 8.69655 15.4254L7.85612 16.4605ZM9.72938 16.2236L9.31721 15.9456L8.57162 17.051L8.98379 17.329L9.72938 16.2236Z" fill="currentColor" mask="url(#path-79-inside-39_8839_30282)"/>
<mask id="path-81-inside-40_8839_30282" fill="white">
<path d="M14.375 6.875H15.4167L15.8312 7.1546H14.7895L14.375 6.875Z"/>
</mask>
<path d="M14.375 6.875H15.4167L15.8312 7.1546H14.7895L14.375 6.875Z" fill="currentColor"/>
<path d="M15.4167 6.875L15.7895 6.32231C15.6793 6.24802 15.5495 6.20833 15.4167 6.20833V6.875ZM14.375 6.875V6.20833C14.0819 6.20833 13.8232 6.39978 13.7375 6.68009C13.6518 6.96039 13.7592 7.26379 14.0022 7.42769L14.375 6.875ZM14.7895 7.1546L14.4167 7.70729C14.5269 7.78157 14.6567 7.82126 14.7895 7.82126V7.1546ZM15.8312 7.1546V7.82126C16.1243 7.82126 16.383 7.62981 16.4687 7.34951C16.5544 7.06921 16.447 6.76581 16.204 6.6019L15.8312 7.1546ZM15.4167 6.20833H14.375V7.54167H15.4167V6.20833ZM14.0022 7.42769L14.4167 7.70729L15.1623 6.6019L14.7478 6.32231L14.0022 7.42769ZM14.7895 7.82126H15.8312V6.48793H14.7895V7.82126ZM16.204 6.6019L15.7895 6.32231L15.0439 7.42769L15.4584 7.70729L16.204 6.6019Z" fill="currentColor" mask="url(#path-81-inside-40_8839_30282)"/>
<mask id="path-83-inside-41_8839_30282" fill="white">
<path d="M13.3081 9.60845C13.1908 9.49123 13.125 9.33226 13.125 9.1665L13.5395 9.4461C13.5395 9.61186 13.6054 9.77083 13.7226 9.88804L13.3081 9.60845Z"/>
</mask>
<path d="M13.3081 9.60845C13.1908 9.49123 13.125 9.33226 13.125 9.1665L13.5395 9.4461C13.5395 9.61186 13.6054 9.77083 13.7226 9.88804L13.3081 9.60845Z" fill="currentColor"/>
<path d="M13.125 9.1665L13.4978 8.61381C13.2934 8.47597 13.0297 8.46214 12.812 8.57787C12.5944 8.6936 12.4583 8.91999 12.4583 9.1665H13.125ZM13.3081 9.60845L12.8367 10.0798C12.8668 10.11 12.8999 10.1373 12.9353 10.1611L13.3081 9.60845ZM13.7226 9.88804L13.3498 10.4407C13.6345 10.6328 14.0185 10.5771 14.237 10.3121C14.4554 10.0471 14.4368 9.65949 14.194 9.41664L13.7226 9.88804ZM13.5395 9.4461H14.2062C14.2062 9.22448 14.096 9.01734 13.9123 8.89341L13.5395 9.4461ZM12.4583 9.1665C12.4583 9.50908 12.5944 9.83762 12.8367 10.0798L13.7795 9.13704C13.7873 9.14485 13.7917 9.15545 13.7917 9.1665H12.4583ZM12.9353 10.1611L13.3498 10.4407L14.0954 9.33535L13.6809 9.05575L12.9353 10.1611ZM14.194 9.41664C14.2018 9.42445 14.2062 9.43505 14.2062 9.4461H12.8729C12.8729 9.78867 13.0089 10.1172 13.2512 10.3594L14.194 9.41664ZM13.9123 8.89341L13.4978 8.61381L12.7522 9.7192L13.1667 9.99879L13.9123 8.89341Z" fill="currentColor" mask="url(#path-83-inside-41_8839_30282)"/>
<mask id="path-85-inside-42_8839_30282" fill="white">
<path d="M13.4004 9.68476C13.3675 9.66256 13.3366 9.63712 13.3081 9.60864L13.7226 9.88824C13.7511 9.91671 13.782 9.94215 13.8149 9.96436L13.4004 9.68476Z"/>
</mask>
<path d="M13.4004 9.68476C13.3675 9.66256 13.3366 9.63712 13.3081 9.60864L13.7226 9.88824C13.7511 9.91671 13.782 9.94215 13.8149 9.96436L13.4004 9.68476Z" fill="currentColor"/>
<path d="M13.3081 9.60864L13.6809 9.05595C13.3962 8.8639 13.0121 8.91958 12.7937 9.18459C12.5752 9.4496 12.5939 9.8372 12.8367 10.08L13.3081 9.60864ZM13.4004 9.68476L13.0275 10.2374L13.0276 10.2375L13.4004 9.68476ZM13.8149 9.96436L13.4421 10.517C13.7474 10.7229 14.1617 10.6424 14.3676 10.3372C14.5735 10.032 14.493 9.61771 14.1879 9.41176L13.8149 9.96436ZM13.7226 9.88824L14.194 9.41683C14.1638 9.38664 14.1308 9.35942 14.0954 9.33555L13.7226 9.88824ZM12.8367 10.08C12.8955 10.1389 12.9595 10.1915 13.0275 10.2374L13.7733 9.13216C13.7756 9.13366 13.7776 9.13537 13.7795 9.13724L12.8367 10.08ZM13.0276 10.2375L13.4421 10.517L14.1877 9.41167L13.7732 9.13207L13.0276 10.2375ZM14.1879 9.41176C14.1901 9.41326 14.1922 9.41497 14.194 9.41683L13.2512 10.3596C13.31 10.4185 13.374 10.471 13.442 10.517L14.1879 9.41176ZM14.0954 9.33555L13.6809 9.05595L12.9353 10.1613L13.3498 10.4409L14.0954 9.33555Z" fill="currentColor" mask="url(#path-85-inside-42_8839_30282)"/>
<mask id="path-87-inside-43_8839_30282" fill="white">
<path d="M13.75 9.79151C13.6246 9.79151 13.5031 9.75383 13.4006 9.68474L13.8149 9.96417C13.9174 10.0334 14.039 10.0711 14.1645 10.0711L13.75 9.79151Z"/>
</mask>
<path d="M13.75 9.79151C13.6246 9.79151 13.5031 9.75383 13.4006 9.68474L13.8149 9.96417C13.9174 10.0334 14.039 10.0711 14.1645 10.0711L13.75 9.79151Z" fill="currentColor"/>
<path d="M13.2139 9.96087C13.2141 9.96096 13.2142 9.96105 13.2143 9.96114L13.587 9.40835C13.5869 9.40833 13.5869 9.4083 13.5869 9.40827L13.2139 9.96087ZM13.4006 9.68474L13.7733 9.13196C13.468 8.92616 13.0537 9.00678 12.8479 9.31202C12.6421 9.61726 12.7226 10.0316 13.0279 10.2374L13.4006 9.68474ZM13.75 9.79151L14.1228 9.23882C14.0127 9.16453 13.8829 9.12484 13.75 9.12484V9.79151ZM14.1645 10.0711V10.7378C14.4577 10.7378 14.7164 10.5463 14.8021 10.266C14.8878 9.98572 14.7803 9.68232 14.5373 9.51842L14.1645 10.0711ZM13.8149 9.96417L14.1878 9.41157L14.1877 9.41148L13.8149 9.96417ZM13.028 10.2375C13.2398 10.3803 13.4909 10.4582 13.75 10.4582V9.12484C13.7584 9.12484 13.7665 9.12737 13.7733 9.13196L13.028 10.2375ZM13.3772 10.3442L13.7917 10.6238L14.5373 9.51842L14.1228 9.23882L13.3772 10.3442ZM14.1645 9.40444C14.1729 9.40444 14.181 9.40697 14.1878 9.41157L13.442 10.5168C13.6539 10.6598 13.9052 10.7378 14.1645 10.7378V9.40444ZM14.1877 9.41148L13.7734 9.13205L13.0279 10.2374L13.4421 10.5169L14.1877 9.41148Z" fill="currentColor" mask="url(#path-87-inside-43_8839_30282)"/>
<mask id="path-89-inside-44_8839_30282" fill="white">
<path d="M14.375 8.125V9.16667L14.7895 9.44626V8.4046L14.375 8.125Z"/>
</mask>
<path d="M14.375 8.125V9.16667L14.7895 9.44626V8.4046L14.375 8.125Z" fill="currentColor"/>
<path d="M14.375 9.16667H13.7083C13.7083 9.38829 13.8185 9.59543 14.0022 9.71936L14.375 9.16667ZM14.375 8.125L14.7478 7.57231C14.5434 7.43446 14.2797 7.42064 14.062 7.53637C13.8444 7.6521 13.7083 7.87849 13.7083 8.125H14.375ZM14.7895 8.4046H15.4562C15.4562 8.18297 15.346 7.97584 15.1623 7.8519L14.7895 8.4046ZM14.7895 9.44626L14.4167 9.99896C14.6211 10.1368 14.8848 10.1506 15.1025 10.0349C15.3202 9.91917 15.4562 9.69277 15.4562 9.44626H14.7895ZM15.0417 9.16667V8.125H13.7083V9.16667H15.0417ZM14.0022 8.67769L14.4167 8.95729L15.1623 7.8519L14.7478 7.57231L14.0022 8.67769ZM14.1229 8.4046V9.44626H15.4562V8.4046H14.1229ZM15.1623 8.89357L14.7478 8.61398L14.0022 9.71936L14.4167 9.99896L15.1623 8.89357Z" fill="currentColor" mask="url(#path-89-inside-44_8839_30282)"/>
<mask id="path-91-inside-45_8839_30282" fill="white">
<path d="M15.4167 6.875C15.5422 6.875 15.6638 6.91274 15.7664 6.98194L16.1806 7.26136C16.0782 7.19228 15.9567 7.1546 15.8313 7.1546L15.4167 6.875Z"/>
</mask>
<path d="M15.4167 6.875C15.5422 6.875 15.6638 6.91274 15.7664 6.98194L16.1806 7.26136C16.0782 7.19228 15.9567 7.1546 15.8313 7.1546L15.4167 6.875Z" fill="currentColor"/>
<path d="M15.9942 7.53771L15.9944 7.53784L16.3674 6.98524C16.3673 6.98517 16.3672 6.98512 16.3671 6.98509C16.3671 6.98504 16.3671 6.98503 16.367 6.98502L15.9942 7.53771ZM15.7664 6.98194L15.3934 7.53454L15.3936 7.53463L15.7664 6.98194ZM15.4167 6.875V6.20833C15.1236 6.20833 14.8649 6.39978 14.7792 6.68009C14.6935 6.96039 14.801 7.26379 15.044 7.42769L15.4167 6.875ZM15.8313 7.1546L15.4585 7.70729C15.5686 7.78157 15.6984 7.82126 15.8313 7.82126V7.1546ZM16.1806 7.26136L15.808 7.81415C16.1133 8.01994 16.5275 7.93933 16.7334 7.63409C16.9392 7.32885 16.8587 6.91454 16.5534 6.70867L16.1806 7.26136ZM16.1393 6.42934C15.9274 6.28635 15.6761 6.20833 15.4167 6.20833V7.54167C15.4084 7.54167 15.4003 7.53913 15.3934 7.53454L16.1393 6.42934ZM15.044 7.42769L15.4585 7.70729L16.2041 6.6019L15.7895 6.32231L15.044 7.42769ZM15.8313 7.82126C15.8229 7.82126 15.8148 7.81873 15.808 7.81415L16.5533 6.70858C16.3415 6.56582 16.0904 6.48793 15.8313 6.48793V7.82126ZM16.5534 6.70867L16.1392 6.42925L15.3936 7.53463L15.8078 7.81405L16.5534 6.70867Z" fill="currentColor" mask="url(#path-91-inside-45_8839_30282)"/>
<mask id="path-93-inside-46_8839_30282" fill="white">
<path d="M15.4167 8.125H14.375L14.7895 8.4046H15.8312L15.4167 8.125Z"/>
</mask>
<path d="M15.4167 8.125H14.375L14.7895 8.4046H15.8312L15.4167 8.125Z" fill="currentColor"/>
<path d="M14.375 8.125V7.45833C14.0819 7.45833 13.8232 7.64978 13.7375 7.93009C13.6518 8.21039 13.7592 8.51379 14.0022 8.67769L14.375 8.125ZM15.4167 8.125L15.7895 7.57231C15.6793 7.49802 15.5495 7.45833 15.4167 7.45833V8.125ZM15.8312 8.4046V9.07126C16.1243 9.07126 16.383 8.87981 16.4687 8.59951C16.5544 8.31921 16.447 8.01581 16.204 7.8519L15.8312 8.4046ZM14.7895 8.4046L14.4167 8.95729C14.5269 9.03157 14.6567 9.07126 14.7895 9.07126V8.4046ZM14.375 8.79167H15.4167V7.45833H14.375V8.79167ZM15.0439 8.67769L15.4584 8.95729L16.204 7.8519L15.7895 7.57231L15.0439 8.67769ZM15.8312 7.73793H14.7895V9.07126H15.8312V7.73793ZM15.1623 7.8519L14.7478 7.57231L14.0022 8.67769L14.4167 8.95729L15.1623 7.8519Z" fill="currentColor" mask="url(#path-93-inside-46_8839_30282)"/>
<mask id="path-95-inside-47_8839_30282" fill="white">
<path d="M14.1919 9.60864C14.0747 9.72585 13.9158 9.7917 13.75 9.7917L14.1645 10.0713C14.3303 10.0713 14.4893 10.0054 14.6065 9.88824L14.1919 9.60864Z"/>
</mask>
<path d="M14.1919 9.60864C14.0747 9.72585 13.9158 9.7917 13.75 9.7917L14.1645 10.0713C14.3303 10.0713 14.4893 10.0054 14.6065 9.88824L14.1919 9.60864Z" fill="currentColor"/>
<path d="M13.75 9.7917V9.12503C13.4569 9.12503 13.1982 9.31648 13.1125 9.59679C13.0268 9.87709 13.1342 10.1805 13.3772 10.3444L13.75 9.7917ZM14.1919 9.60864L14.5647 9.05595C14.3002 8.87749 13.9462 8.91157 13.7205 9.13724L14.1919 9.60864ZM14.6065 9.88824L15.0779 10.3596C15.2186 10.2189 15.2891 10.0225 15.2701 9.82434C15.251 9.62616 15.1443 9.44688 14.9793 9.33555L14.6065 9.88824ZM14.1645 10.0713L13.7917 10.624C13.9019 10.6983 14.0317 10.738 14.1645 10.738V10.0713ZM13.75 10.4584C14.0926 10.4584 14.4211 10.3223 14.6633 10.08L13.7205 9.13724C13.7284 9.12942 13.7389 9.12503 13.75 9.12503V10.4584ZM13.8191 10.1613L14.2337 10.4409L14.9793 9.33555L14.5647 9.05595L13.8191 10.1613ZM14.1351 9.41683C14.1429 9.40902 14.1535 9.40463 14.1645 9.40463V10.738C14.5071 10.738 14.8356 10.6019 15.0779 10.3596L14.1351 9.41683ZM14.5373 9.51861L14.1228 9.23901L13.3772 10.3444L13.7917 10.624L14.5373 9.51861Z" fill="currentColor" mask="url(#path-95-inside-47_8839_30282)"/>
<mask id="path-97-inside-48_8839_30282" fill="white">
<path d="M15.7664 6.98193C15.7993 7.00414 15.8302 7.02958 15.8587 7.05805L16.2732 7.33765C16.2447 7.30918 16.2138 7.28373 16.1809 7.26153L15.7664 6.98193Z"/>
</mask>
<path d="M15.7664 6.98193C15.7993 7.00414 15.8302 7.02958 15.8587 7.05805L16.2732 7.33765C16.2447 7.30918 16.2138 7.28373 16.1809 7.26153L15.7664 6.98193Z" fill="currentColor"/>
<path d="M15.8587 7.05805L15.3873 7.52946C15.4175 7.55965 15.4505 7.58687 15.4859 7.61074L15.8587 7.05805ZM15.7664 6.98193L16.1392 6.42924C15.8339 6.22337 15.4196 6.30388 15.2137 6.60907C15.0078 6.91426 15.0883 7.32859 15.3934 7.53453L15.7664 6.98193ZM16.1809 7.26153L16.5538 6.70893L16.5537 6.70884L16.1809 7.26153ZM16.2732 7.33765L15.9004 7.89034C16.1851 8.08239 16.5691 8.02671 16.7876 7.7617C17.0061 7.49669 16.9874 7.10909 16.7446 6.86624L16.2732 7.33765ZM16.3301 6.58665C16.2713 6.52783 16.2073 6.47524 16.1393 6.42933L15.3934 7.53453C15.3912 7.53303 15.3891 7.53133 15.3873 7.52946L16.3301 6.58665ZM15.3936 7.53463L15.8081 7.81422L16.5537 6.70884L16.1392 6.42924L15.3936 7.53463ZM15.8079 7.81413C15.8057 7.81263 15.8037 7.81092 15.8018 7.80905L16.7446 6.86624C16.6858 6.80743 16.6218 6.75484 16.5538 6.70893L15.8079 7.81413ZM16.646 6.78496L16.2315 6.50536L15.4859 7.61074L15.9004 7.89034L16.646 6.78496Z" fill="currentColor" mask="url(#path-97-inside-48_8839_30282)"/>
<mask id="path-99-inside-49_8839_30282" fill="white">
<path d="M14.375 9.1665C14.375 9.33226 14.3091 9.49123 14.1919 9.60845L14.6064 9.88804C14.7236 9.77083 14.7895 9.61186 14.7895 9.4461L14.375 9.1665Z"/>
</mask>
<path d="M14.375 9.1665C14.375 9.33226 14.3091 9.49123 14.1919 9.60845L14.6064 9.88804C14.7236 9.77083 14.7895 9.61186 14.7895 9.4461L14.375 9.1665Z" fill="currentColor"/>
<path d="M14.1919 9.60845L13.7205 9.13704C13.5797 9.27782 13.5092 9.47416 13.5283 9.67234C13.5474 9.87052 13.654 10.0498 13.8191 10.1611L14.1919 9.60845ZM14.375 9.1665L14.7477 8.61381C14.5434 8.47597 14.2796 8.46214 14.062 8.57787C13.8443 8.6936 13.7083 8.91999 13.7083 9.1665H14.375ZM14.7895 9.4461H15.4561C15.4561 9.22448 15.346 9.01734 15.1623 8.89341L14.7895 9.4461ZM14.6064 9.88804L14.2336 10.4407C14.4982 10.6192 14.8521 10.5851 15.0778 10.3594L14.6064 9.88804ZM14.6633 10.0798C14.9055 9.83761 15.0416 9.50907 15.0416 9.1665H13.7083C13.7083 9.15545 13.7127 9.14486 13.7205 9.13704L14.6633 10.0798ZM14.0022 9.7192L14.4167 9.99879L15.1623 8.89341L14.7477 8.61381L14.0022 9.7192ZM14.1228 9.4461C14.1228 9.43505 14.1272 9.42445 14.135 9.41664L15.0778 10.3594C15.3201 10.1172 15.4561 9.78867 15.4561 9.4461H14.1228ZM14.9792 9.33535L14.5647 9.05575L13.8191 10.1611L14.2336 10.4407L14.9792 9.33535Z" fill="currentColor" mask="url(#path-99-inside-49_8839_30282)"/>
<mask id="path-101-inside-50_8839_30282" fill="white">
<path d="M17.7085 7.76513C17.7085 5.72031 16.9546 4.33486 15.9329 3.64545L16.3464 3.92437C17.3686 4.61356 18.123 5.99924 18.123 8.04473L17.7085 7.76513Z"/>
</mask>
<path d="M17.7085 7.76513C17.7085 5.72031 16.9546 4.33486 15.9329 3.64545L16.3464 3.92437C17.3686 4.61356 18.123 5.99924 18.123 8.04473L17.7085 7.76513Z" fill="currentColor"/>
<path d="M15.7455 3.92116C15.7458 3.92136 15.7461 3.92156 15.7464 3.92176L16.1193 3.36914C16.119 3.36889 16.1186 3.36864 16.1182 3.36839L15.7455 3.92116ZM15.9329 3.64545L16.3057 3.09276C16.0005 2.88688 15.5861 2.9674 15.3802 3.2726C15.1743 3.5778 15.2548 3.99214 15.56 4.19807L15.9329 3.64545ZM17.7085 7.76513H17.0418C17.0418 7.98676 17.1519 8.19389 17.3357 8.31782L17.7085 7.76513ZM18.123 8.04473L17.7502 8.59742C17.9546 8.73527 18.2183 8.74909 18.436 8.63336C18.6536 8.51763 18.7897 8.29124 18.7897 8.04473H18.123ZM16.3464 3.92437L15.9736 4.47706L15.9737 4.47714L16.3464 3.92437ZM15.56 4.19807C16.3523 4.73274 17.0418 5.88048 17.0418 7.76513H18.3751C18.3751 5.56015 17.5568 3.93699 16.3058 3.09283L15.56 4.19807ZM17.3357 8.31782L17.7502 8.59742L18.4958 7.49204L18.0813 7.21244L17.3357 8.31782ZM18.7897 8.04473C18.7897 5.83902 17.9708 4.21552 16.7191 3.37161L15.9737 4.47714C16.7664 5.01159 17.4563 6.15946 17.4563 8.04473H18.7897ZM16.7192 3.37168L16.3057 3.09276L15.5601 4.19814L15.9736 4.47706L16.7192 3.37168Z" fill="currentColor" mask="url(#path-101-inside-50_8839_30282)"/>
<mask id="path-103-inside-51_8839_30282" fill="white">
<path d="M8.94434 16.4983C9.35984 16.7784 9.63914 16.875 10.0001 16.875L10.4146 17.1546C10.0537 17.1546 9.77436 17.058 9.35885 16.7779L8.94434 16.4983Z"/>
</mask>
<path d="M8.94434 16.4983C9.35984 16.7784 9.63914 16.875 10.0001 16.875L10.4146 17.1546C10.0537 17.1546 9.77436 17.058 9.35885 16.7779L8.94434 16.4983Z" fill="currentColor"/>
<path d="M10.0001 16.875L10.3729 16.3223C10.2627 16.248 10.1329 16.2083 10.0001 16.2083V16.875ZM8.94434 16.4983L9.31697 15.9455C9.0117 15.7397 8.59742 15.8203 8.39159 16.1256C8.18577 16.4308 8.26633 16.8451 8.57154 17.051L8.94434 16.4983ZM9.35885 16.7779L8.98606 17.3306L8.98622 17.3307L9.35885 16.7779ZM10.4146 17.1546V17.8212C10.7077 17.8212 10.9664 17.6298 11.0521 17.3495C11.1378 17.0692 11.0304 16.7658 10.7874 16.6019L10.4146 17.1546ZM10.0001 16.2083C9.80996 16.2083 9.65884 16.1759 9.31697 15.9455L8.5717 17.0511C9.06085 17.3808 9.46831 17.5416 10.0001 17.5416V16.2083ZM8.57154 17.051L8.98606 17.3306L9.73165 16.2252L9.31713 15.9456L8.57154 17.051ZM8.98622 17.3307C9.47537 17.6604 9.88283 17.8212 10.4146 17.8212V16.4879C10.2245 16.4879 10.0734 16.4555 9.73149 16.2251L8.98622 17.3307ZM10.7874 16.6019L10.3729 16.3223L9.62728 17.4277L10.0418 17.7073L10.7874 16.6019Z" fill="currentColor" mask="url(#path-103-inside-51_8839_30282)"/>
<mask id="path-105-inside-52_8839_30282" fill="white">
<path d="M15.8586 7.05811C15.9759 7.17532 16.0417 7.33429 16.0417 7.50005L16.4562 7.77964C16.4562 7.61388 16.3904 7.45491 16.2732 7.3377L15.8586 7.05811Z"/>
</mask>
<path d="M15.8586 7.05811C15.9759 7.17532 16.0417 7.33429 16.0417 7.50005L16.4562 7.77964C16.4562 7.61388 16.3904 7.45491 16.2732 7.3377L15.8586 7.05811Z" fill="currentColor"/>
<path d="M16.0417 7.50005H15.375C15.375 7.72167 15.4852 7.92881 15.6689 8.05274L16.0417 7.50005ZM15.8586 7.05811L16.2314 6.50541C15.9467 6.31336 15.5627 6.36905 15.3442 6.63405C15.1258 6.89906 15.1444 7.28666 15.3872 7.52951L15.8586 7.05811ZM16.2732 7.3377L16.7446 6.8663C16.7144 6.83611 16.6814 6.80889 16.646 6.78501L16.2732 7.3377ZM16.4562 7.77964L16.0834 8.33233C16.2878 8.47018 16.5515 8.484 16.7692 8.36827C16.9869 8.25255 17.1229 8.02615 17.1229 7.77964H16.4562ZM16.7084 7.50005C16.7084 7.15748 16.5723 6.82894 16.33 6.5867L15.3872 7.52951C15.3794 7.5217 15.375 7.5111 15.375 7.50005H16.7084ZM15.4858 7.6108L15.9004 7.89039L16.646 6.78501L16.2314 6.50541L15.4858 7.6108ZM15.8018 7.80911C15.7939 7.80129 15.7896 7.79069 15.7896 7.77964H17.1229C17.1229 7.43707 16.9868 7.10853 16.7446 6.8663L15.8018 7.80911ZM16.829 7.22695L16.4145 6.94736L15.6689 8.05274L16.0834 8.33233L16.829 7.22695Z" fill="currentColor" mask="url(#path-105-inside-52_8839_30282)"/>
<mask id="path-107-inside-53_8839_30282" fill="white">
<path d="M15.8587 7.94189C15.7415 8.0591 15.5825 8.12495 15.4167 8.12495L15.8313 8.40455C15.997 8.40455 16.156 8.3387 16.2732 8.22149L15.8587 7.94189Z"/>
</mask>
<path d="M15.8587 7.94189C15.7415 8.0591 15.5825 8.12495 15.4167 8.12495L15.8313 8.40455C15.997 8.40455 16.156 8.3387 16.2732 8.22149L15.8587 7.94189Z" fill="currentColor"/>
<path d="M15.4167 8.12495V7.45829C15.1236 7.45829 14.8649 7.64973 14.7792 7.93004C14.6935 8.21034 14.801 8.51374 15.044 8.67765L15.4167 8.12495ZM15.8587 7.94189L16.2315 7.3892C15.9669 7.21074 15.613 7.24482 15.3873 7.47049L15.8587 7.94189ZM16.2732 8.22149L16.7446 8.6929C16.8854 8.55211 16.9559 8.35577 16.9368 8.15759C16.9177 7.95941 16.8111 7.78013 16.646 7.6688L16.2732 8.22149ZM15.8313 8.40455L15.4585 8.95724C15.5686 9.03153 15.6984 9.07122 15.8313 9.07122V8.40455ZM15.4167 8.79162C15.7593 8.79162 16.0879 8.65553 16.3301 8.4133L15.3873 7.47049C15.3951 7.46268 15.4057 7.45829 15.4167 7.45829V8.79162ZM15.4859 8.49459L15.9004 8.77418L16.646 7.6688L16.2315 7.3892L15.4859 8.49459ZM15.8018 7.75009C15.8096 7.74227 15.8202 7.73788 15.8313 7.73788V9.07122C16.1738 9.07122 16.5024 8.93513 16.7446 8.6929L15.8018 7.75009ZM16.2041 7.85186L15.7895 7.57226L15.044 8.67765L15.4585 8.95724L16.2041 7.85186Z" fill="currentColor" mask="url(#path-107-inside-53_8839_30282)"/>
<mask id="path-109-inside-54_8839_30282" fill="white">
<path d="M8.22039 17.5206C8.21805 17.519 8.21572 17.5174 8.21338 17.5159L8.22039 17.5206C8.77507 17.8942 9.31515 18.1259 10.0002 18.1259L10.4147 18.4054C9.72678 18.4054 9.18504 18.1718 8.6279 17.7955L8.22039 17.5206Z"/>
</mask>
<path d="M8.22039 17.5206C8.21805 17.519 8.21572 17.5174 8.21338 17.5159L8.22039 17.5206C8.77507 17.8942 9.31515 18.1259 10.0002 18.1259L10.4147 18.4054C9.72678 18.4054 9.18504 18.1718 8.6279 17.7955L8.22039 17.5206Z" fill="currentColor"/>
<path d="M8.21338 17.5159L8.58617 16.9632C8.281 16.7573 7.86676 16.8378 7.66082 17.1429C7.45487 17.448 7.53518 17.8623 7.8402 18.0683L8.21338 17.5159ZM10.0002 18.1259L10.3729 17.5732C10.2628 17.4989 10.133 17.4592 10.0002 17.4592V18.1259ZM10.4147 18.4054V19.0721C10.7078 19.0721 10.9665 18.8807 11.0522 18.6004C11.1379 18.3201 11.0305 18.0167 10.7875 17.8528L10.4147 18.4054ZM8.6279 17.7955L9.00107 17.243L9.00069 17.2428L8.6279 17.7955ZM7.8402 18.0683C7.84279 18.0701 7.84538 18.0718 7.84797 18.0735L8.5928 16.9676C8.59072 16.9662 8.58864 16.9648 8.58655 16.9634L7.8402 18.0683ZM7.84797 18.0735C8.47114 18.4933 9.13991 18.7925 10.0002 18.7925V17.4592C9.49039 17.4592 9.079 17.2951 8.5928 16.9676L7.84797 18.0735ZM9.62736 18.6785L10.0419 18.9581L10.7875 17.8528L10.3729 17.5732L9.62736 18.6785ZM10.4147 17.7388C9.90287 17.7388 9.49013 17.5734 9.00107 17.243L8.25472 18.3479C8.87995 18.7702 9.5507 19.0721 10.4147 19.0721V17.7388ZM9.00069 17.2428L8.59318 16.9679L7.84759 18.0733L8.2551 18.3482L9.00069 17.2428ZM8.59318 16.9679L8.58617 16.9632L7.84058 18.0686L7.84759 18.0733L8.59318 16.9679Z" fill="currentColor" mask="url(#path-109-inside-54_8839_30282)"/>
<mask id="path-111-inside-55_8839_30282" fill="white">
<path d="M16.0417 7.5C16.0417 7.66576 15.9759 7.82473 15.8586 7.94194L16.2732 8.22154C16.3904 8.10433 16.4562 7.94536 16.4562 7.7796L16.0417 7.5Z"/>
</mask>
<path d="M16.0417 7.5C16.0417 7.66576 15.9759 7.82473 15.8586 7.94194L16.2732 8.22154C16.3904 8.10433 16.4562 7.94536 16.4562 7.7796L16.0417 7.5Z" fill="currentColor"/>
<path d="M15.8586 7.94194L15.3872 7.47054C15.2465 7.61132 15.176 7.80766 15.195 8.00584C15.2141 8.20402 15.3208 8.3833 15.4858 8.49463L15.8586 7.94194ZM16.0417 7.5L16.4145 6.94731C16.2101 6.80946 15.9464 6.79564 15.7287 6.91137C15.5111 7.0271 15.375 7.25349 15.375 7.5H16.0417ZM16.4562 7.7796H17.1229C17.1229 7.55797 17.0127 7.35084 16.829 7.2269L16.4562 7.7796ZM16.2732 8.22154L15.9004 8.77423C16.1649 8.95269 16.5189 8.91861 16.7446 8.69294L16.2732 8.22154ZM16.33 8.41335C16.5723 8.17111 16.7084 7.84257 16.7084 7.5H15.375C15.375 7.48895 15.3794 7.47835 15.3872 7.47054L16.33 8.41335ZM15.6689 8.05269L16.0834 8.33229L16.829 7.2269L16.4145 6.94731L15.6689 8.05269ZM15.7896 7.7796C15.7896 7.76855 15.7939 7.75795 15.8018 7.75013L16.7446 8.69294C16.9868 8.45071 17.1229 8.12217 17.1229 7.7796H15.7896ZM16.646 7.66885L16.2314 7.38925L15.4858 8.49463L15.9004 8.77423L16.646 7.66885Z" fill="currentColor" mask="url(#path-111-inside-55_8839_30282)"/>
<mask id="path-113-inside-56_8839_30282" fill="white">
<path d="M16.6418 2.6145C18.0762 3.58246 18.9583 5.42259 18.9583 7.76511L19.3728 8.0447C19.3728 5.70218 18.4907 3.86206 17.0564 2.8941L16.6418 2.6145Z"/>
</mask>
<path d="M16.6418 2.6145C18.0762 3.58246 18.9583 5.42259 18.9583 7.76511L19.3728 8.0447C19.3728 5.70218 18.4907 3.86206 17.0564 2.8941L16.6418 2.6145Z" fill="currentColor"/>
<path d="M18.9583 7.76511H18.2917C18.2917 7.98673 18.4018 8.19387 18.5855 8.3178L18.9583 7.76511ZM16.6418 2.6145L17.0146 2.06181C16.7094 1.85594 16.2951 1.93645 16.0892 2.24164C15.8833 2.54683 15.9638 2.96116 16.2689 3.1671L16.6418 2.6145ZM17.0564 2.8941L17.4293 2.3415L17.4292 2.34141L17.0564 2.8941ZM19.3728 8.0447L19.0001 8.5974C19.2044 8.73524 19.4682 8.74907 19.6858 8.63334C19.9035 8.51761 20.0395 8.29121 20.0395 8.0447H19.3728ZM19.625 7.76511C19.625 5.26418 18.6796 3.18539 17.0148 2.0619L16.2689 3.1671C17.4728 3.97953 18.2917 5.58099 18.2917 7.76511H19.625ZM16.2691 3.16719L16.6836 3.44679L17.4292 2.34141L17.0146 2.06181L16.2691 3.16719ZM16.6834 3.4467C17.8873 4.25913 18.7062 5.86059 18.7062 8.0447H20.0395C20.0395 5.54377 19.0941 3.46498 17.4293 2.3415L16.6834 3.4467ZM19.7456 7.49201L19.3311 7.21242L18.5855 8.3178L19.0001 8.5974L19.7456 7.49201Z" fill="currentColor" mask="url(#path-113-inside-56_8839_30282)"/>
<mask id="path-115-inside-57_8839_30282" fill="white">
<path d="M10 16.8751C10.6025 16.8751 10.9775 16.606 12.1383 15.6643L12.5529 15.9439C11.392 16.8856 11.017 17.1547 10.4145 17.1547L10 16.8751Z"/>
</mask>
<path d="M10 16.8751C10.6025 16.8751 10.9775 16.606 12.1383 15.6643L12.5529 15.9439C11.392 16.8856 11.017 17.1547 10.4145 17.1547L10 16.8751Z" fill="currentColor"/>
<path d="M12.1383 15.6643L12.5111 15.1116C12.268 14.9476 11.9461 14.9618 11.7183 15.1466L12.1383 15.6643ZM10 16.8751V16.2085C9.70689 16.2085 9.44816 16.3999 9.36246 16.6802C9.27677 16.9605 9.3842 17.2639 9.6272 17.4278L10 16.8751ZM10.4145 17.1547L10.0417 17.7074C10.1519 17.7817 10.2817 17.8214 10.4145 17.8214V17.1547ZM12.5529 15.9439L12.9728 16.4616C13.1369 16.3286 13.2282 16.1256 13.2189 15.9145C13.2096 15.7035 13.1008 15.5093 12.9256 15.3912L12.5529 15.9439ZM11.7183 15.1466C11.1263 15.6268 10.7838 15.8939 10.5215 16.0484C10.2971 16.1805 10.1683 16.2085 10 16.2085V17.5418C10.4342 17.5418 10.7942 17.4352 11.1981 17.1973C11.5641 16.9818 11.9895 16.6435 12.5583 16.182L11.7183 15.1466ZM9.6272 17.4278L10.0417 17.7074L10.7873 16.602L10.3728 16.3224L9.6272 17.4278ZM10.4145 17.8214C10.8487 17.8214 11.2087 17.7148 11.6126 17.4769C11.9786 17.2614 12.404 16.9231 12.9728 16.4616L12.1329 15.4262C11.5408 15.9064 11.1983 16.1735 10.936 16.328C10.7116 16.4601 10.5828 16.4881 10.4145 16.4881V17.8214ZM12.9256 15.3912L12.5111 15.1116L11.7655 16.217L12.1801 16.4966L12.9256 15.3912Z" fill="currentColor" mask="url(#path-115-inside-57_8839_30282)"/>
<mask id="path-117-inside-58_8839_30282" fill="white">
<path d="M12.8086 16.7303C11.8107 17.5405 11.0897 18.1258 10 18.1258L10.4145 18.4054C11.5042 18.4054 12.2252 17.8201 13.2232 17.0099L13.2287 17.0054L12.8142 16.7258L12.8086 16.7303Z"/>
</mask>
<path d="M12.8086 16.7303C11.8107 17.5405 11.0897 18.1258 10 18.1258L10.4145 18.4054C11.5042 18.4054 12.2252 17.8201 13.2232 17.0099L13.2287 17.0054L12.8142 16.7258L12.8086 16.7303Z" fill="currentColor"/>
<path d="M10 18.1258V17.4592C9.70689 17.4592 9.44816 17.6506 9.36246 17.9309C9.27677 18.2112 9.3842 18.5146 9.6272 18.6785L10 18.1258ZM12.8086 16.7303L13.2288 17.2479L13.2289 17.2479L12.8086 16.7303ZM12.8142 16.7258L13.187 16.1731C12.9437 16.0091 12.6218 16.0233 12.394 16.2083L12.8142 16.7258ZM13.2287 17.0054L13.6489 17.523C13.8128 17.3899 13.904 17.1869 13.8947 16.9759C13.8854 16.7649 13.7766 16.5708 13.6015 16.4527L13.2287 17.0054ZM13.2232 17.0099L12.803 16.4923L12.803 16.4923L13.2232 17.0099ZM10.4145 18.4054L10.0417 18.9581C10.1519 19.0324 10.2817 19.0721 10.4145 19.0721V18.4054ZM10 18.7925C11.3641 18.7925 12.2662 18.0294 13.2288 17.2479L12.3885 16.2127C11.3552 17.0516 10.8152 17.4592 10 17.4592V18.7925ZM13.2289 17.2479L13.2344 17.2434L12.394 16.2083L12.3884 16.2127L13.2289 17.2479ZM12.4414 17.2785L12.8559 17.5581L13.6015 16.4527L13.187 16.1731L12.4414 17.2785ZM12.8085 16.4878L12.803 16.4923L13.6433 17.5275L13.6489 17.523L12.8085 16.4878ZM12.803 16.4923C11.7697 17.3312 11.2297 17.7388 10.4145 17.7388V19.0721C11.7787 19.0721 12.6807 18.309 13.6434 17.5275L12.803 16.4923ZM10.7873 17.8527L10.3728 17.5731L9.6272 18.6785L10.0417 18.9581L10.7873 17.8527Z" fill="currentColor" mask="url(#path-117-inside-58_8839_30282)"/>
<mask id="path-119-inside-59_8839_30282" fill="white">
<path d="M12.1384 15.6642C13.3468 14.6833 14.7568 13.3983 15.8601 11.99L16.2746 12.2696C15.1713 13.6779 13.7613 14.9629 12.5529 15.9438L12.1384 15.6642Z"/>
</mask>
<path d="M12.1384 15.6642C13.3468 14.6833 14.7568 13.3983 15.8601 11.99L16.2746 12.2696C15.1713 13.6779 13.7613 14.9629 12.5529 15.9438L12.1384 15.6642Z" fill="currentColor"/>
<path d="M15.8601 11.99L16.2329 11.4373C15.9429 11.2417 15.551 11.3035 15.3353 11.5789L15.8601 11.99ZM12.1384 15.6642L11.7183 15.1466C11.5543 15.2797 11.4631 15.4826 11.4724 15.6936C11.4817 15.9046 11.5905 16.0987 11.7656 16.2168L12.1384 15.6642ZM12.5529 15.9438L12.1802 16.4964C12.4234 16.6605 12.7453 16.6463 12.9731 16.4614L12.5529 15.9438ZM16.2746 12.2696L16.7994 12.6807C16.9135 12.5351 16.962 12.3485 16.9331 12.1657C16.9043 11.983 16.8008 11.8204 16.6474 11.7169L16.2746 12.2696ZM15.3353 11.5789C14.2753 12.9318 12.9078 14.181 11.7183 15.1466L12.5586 16.1818C13.7858 15.1856 15.2382 13.8648 16.3849 12.4011L15.3353 11.5789ZM11.7656 16.2168L12.1802 16.4964L12.9257 15.3911L12.5112 15.1115L11.7656 16.2168ZM12.9731 16.4614C14.2003 15.4652 15.6527 14.1444 16.7994 12.6807L15.7498 11.8584C14.6898 13.2114 13.3223 14.4606 12.1328 15.4261L12.9731 16.4614ZM16.6474 11.7169L16.2329 11.4373L15.4873 12.5427L15.9018 12.8223L16.6474 11.7169Z" fill="currentColor" mask="url(#path-119-inside-59_8839_30282)"/>
<mask id="path-121-inside-60_8839_30282" fill="white">
<path d="M15.8601 11.9901C16.9751 10.5685 17.7084 9.10764 17.7084 7.76514L18.123 8.04473C18.123 9.38723 17.3896 10.8481 16.2746 12.2697L15.8601 11.9901Z"/>
</mask>
<path d="M15.8601 11.9901C16.9751 10.5685 17.7084 9.10764 17.7084 7.76514L18.123 8.04473C18.123 9.38723 17.3896 10.8481 16.2746 12.2697L15.8601 11.9901Z" fill="currentColor"/>
<path d="M17.7084 7.76514L18.0812 7.21244C17.8769 7.0746 17.6131 7.06078 17.3955 7.1765C17.1778 7.29223 17.0418 7.51863 17.0418 7.76514H17.7084ZM15.8601 11.9901L15.3355 11.5787C15.2213 11.7244 15.1728 11.911 15.2016 12.0938C15.2303 12.2767 15.3339 12.4393 15.4873 12.5428L15.8601 11.9901ZM16.2746 12.2697L15.9018 12.8224C16.1917 13.018 16.5834 12.9563 16.7992 12.6812L16.2746 12.2697ZM18.123 8.04473H18.7896C18.7896 7.82311 18.6795 7.61597 18.4958 7.49204L18.123 8.04473ZM17.0418 7.76514C17.0418 8.88244 16.4201 10.1958 15.3355 11.5787L16.3847 12.4016C17.5301 10.9411 18.3751 9.33284 18.3751 7.76514H17.0418ZM15.4873 12.5428L15.9018 12.8224L16.6474 11.717L16.2329 11.4374L15.4873 12.5428ZM16.7992 12.6812C17.9446 11.2207 18.7896 9.61243 18.7896 8.04473H17.4563C17.4563 9.16203 16.8346 10.4754 15.7501 11.8583L16.7992 12.6812ZM18.4958 7.49204L18.0812 7.21244L17.3356 8.31783L17.7502 8.59742L18.4958 7.49204Z" fill="currentColor" mask="url(#path-121-inside-60_8839_30282)"/>
<mask id="path-123-inside-61_8839_30282" fill="white">
<path d="M12.9259 16.6343L12.8142 16.7259L13.2287 17.0055L13.3404 16.9139L12.9259 16.6343Z"/>
</mask>
<path d="M12.9259 16.6343L12.8142 16.7259L13.2287 17.0055L13.3404 16.9139L12.9259 16.6343Z" fill="currentColor"/>
<path d="M12.8142 16.7259L12.3912 16.2107C12.2285 16.3443 12.1384 16.5469 12.1483 16.7572C12.1582 16.9676 12.2668 17.1609 12.4414 17.2786L12.8142 16.7259ZM12.9259 16.6343L13.2987 16.0816C13.0543 15.9168 12.7307 15.932 12.5029 16.119L12.9259 16.6343ZM13.3404 16.9139L13.7634 17.4292C13.9261 17.2956 14.0162 17.0929 14.0063 16.8826C13.9964 16.6722 13.8878 16.4789 13.7132 16.3612L13.3404 16.9139ZM13.2287 17.0055L12.8559 17.5582C13.1003 17.7231 13.4239 17.7078 13.6517 17.5208L13.2287 17.0055ZM13.2372 17.2412L13.3489 17.1496L12.5029 16.119L12.3912 16.2107L13.2372 17.2412ZM12.5531 17.187L12.9676 17.4666L13.7132 16.3612L13.2987 16.0816L12.5531 17.187ZM12.9174 16.3986L12.8057 16.4903L13.6517 17.5208L13.7634 17.4292L12.9174 16.3986ZM13.6015 16.4528L13.187 16.1733L12.4414 17.2786L12.8559 17.5582L13.6015 16.4528Z" fill="currentColor" mask="url(#path-123-inside-61_8839_30282)"/>
<mask id="path-125-inside-62_8839_30282" fill="white">
<path d="M16.8444 12.7617C15.6594 14.2726 14.1694 15.6259 12.926 16.6342L13.3405 16.9138C14.5839 15.9055 16.0739 14.5521 17.2589 13.0413L16.8444 12.7617Z"/>
</mask>
<path d="M16.8444 12.7617C15.6594 14.2726 14.1694 15.6259 12.926 16.6342L13.3405 16.9138C14.5839 15.9055 16.0739 14.5521 17.2589 13.0413L16.8444 12.7617Z" fill="currentColor"/>
<path d="M12.926 16.6342L12.5061 16.1164C12.342 16.2495 12.2507 16.4525 12.26 16.6635C12.2693 16.8746 12.3781 17.0688 12.5532 17.1869L12.926 16.6342ZM16.8444 12.7617L17.2172 12.209C16.9273 12.0135 16.5356 12.0752 16.3198 12.3503L16.8444 12.7617ZM17.2589 13.0413L17.7834 13.4527C17.8977 13.3071 17.9462 13.1205 17.9174 12.9376C17.8886 12.7548 17.7851 12.5921 17.6317 12.4886L17.2589 13.0413ZM13.3405 16.9138L12.9677 17.4665C13.2109 17.6305 13.5327 17.6163 13.7605 17.4316L13.3405 16.9138ZM13.3459 17.152C14.6085 16.1281 16.1407 14.7391 17.3689 13.1732L16.3198 12.3503C15.178 13.8061 13.7302 15.1237 12.5061 16.1164L13.3459 17.152ZM16.4716 13.3144L16.8861 13.594L17.6317 12.4886L17.2172 12.209L16.4716 13.3144ZM16.7343 12.6299C15.5925 14.0857 14.1448 15.4033 12.9206 16.396L13.7605 17.4316C15.023 16.4077 16.5553 15.0186 17.7834 13.4527L16.7343 12.6299ZM13.7133 16.3611L13.2988 16.0815L12.5532 17.1869L12.9677 17.4665L13.7133 16.3611Z" fill="currentColor" mask="url(#path-125-inside-62_8839_30282)"/>
<mask id="path-127-inside-63_8839_30282" fill="white">
<path d="M18.9584 7.76514C18.9584 9.53014 18.0167 11.2668 16.8442 12.7618L17.2588 13.0414C18.4313 11.5464 19.3729 9.80973 19.3729 8.04473L18.9584 7.76514Z"/>
</mask>
<path d="M18.9584 7.76514C18.9584 9.53014 18.0167 11.2668 16.8442 12.7618L17.2588 13.0414C18.4313 11.5464 19.3729 9.80973 19.3729 8.04473L18.9584 7.76514Z" fill="currentColor"/>
<path d="M16.8442 12.7618L16.3197 12.3504C16.2054 12.496 16.1569 12.6826 16.1857 12.8655C16.2145 13.0483 16.318 13.211 16.4714 13.3145L16.8442 12.7618ZM18.9584 7.76514L19.3312 7.21244C19.1268 7.0746 18.8631 7.06078 18.6454 7.1765C18.4278 7.29223 18.2917 7.51863 18.2917 7.76514H18.9584ZM19.3729 8.04473H20.0396C20.0396 7.82311 19.9295 7.61597 19.7457 7.49204L19.3729 8.04473ZM17.2588 13.0414L16.886 13.5941C17.1758 13.7896 17.5675 13.728 17.7833 13.4528L17.2588 13.0414ZM17.3688 13.1732C18.5719 11.6393 19.6251 9.75522 19.6251 7.76514H18.2917C18.2917 9.30506 17.4616 10.8943 16.3197 12.3504L17.3688 13.1732ZM18.5856 8.31783L19.0001 8.59742L19.7457 7.49204L19.3312 7.21244L18.5856 8.31783ZM18.7063 8.04473C18.7063 9.58465 17.8761 11.1739 16.7342 12.63L17.7833 13.4528C18.9864 11.9189 20.0396 10.0348 20.0396 8.04473H18.7063ZM17.6316 12.4887L17.217 12.2091L16.4714 13.3145L16.886 13.5941L17.6316 12.4887Z" fill="currentColor" mask="url(#path-127-inside-63_8839_30282)"/>
<path d="M14.3749 5.83327C14.3749 5.66751 14.3091 5.50854 14.1919 5.39133C14.0746 5.27412 13.9157 5.20827 13.7499 5.20827C13.5841 5.20827 13.4252 5.27412 13.308 5.39133C13.1908 5.50854 13.1249 5.66751 13.1249 5.83327V6.87494H12.0832C11.9175 6.87494 11.7585 6.94079 11.6413 7.058C11.5241 7.17521 11.4582 7.33418 11.4582 7.49994C11.4582 7.6657 11.5241 7.82467 11.6413 7.94188C11.7585 8.05909 11.9175 8.12494 12.0832 8.12494H13.1249V9.16661C13.1249 9.33237 13.1908 9.49134 13.308 9.60855C13.4252 9.72576 13.5841 9.79161 13.7499 9.79161C13.9157 9.79161 14.0746 9.72576 14.1919 9.60855C14.3091 9.49134 14.3749 9.33237 14.3749 9.16661V8.12494H15.4166C15.5823 8.12494 15.7413 8.05909 15.8585 7.94188C15.9757 7.82467 16.0416 7.6657 16.0416 7.49994C16.0416 7.33418 15.9757 7.17521 15.8585 7.058C15.7413 6.94079 15.5823 6.87494 15.4166 6.87494H14.3749V5.83327Z" fill="currentColor"/>
<path fill-rule="evenodd" clip-rule="evenodd" d="M18.9583 7.76502C18.9583 4.99336 17.7233 2.92502 15.8 2.17252C14.0208 1.47502 11.885 1.99669 9.99999 3.76085C8.11499 1.99669 5.97916 1.47502 4.19999 2.17252C2.27666 2.92502 1.04166 4.99336 1.04166 7.76419C1.04166 9.53002 1.98332 11.2667 3.15582 12.7617C4.34082 14.2725 5.83082 15.625 7.07416 16.6342L7.18582 16.7259C8.18582 17.5384 8.90916 18.1259 9.99999 18.1259C11.0917 18.1259 11.8133 17.5384 12.8142 16.7259L12.9258 16.6342C14.1692 15.6259 15.6592 14.2725 16.8442 12.7617C18.0167 11.2667 18.9583 9.53002 18.9583 7.76502ZM10.4567 5.07252C12.2167 3.19002 14.0408 2.82585 15.345 3.33585C16.6517 3.84752 17.7083 5.34419 17.7083 7.76502C17.7083 9.10752 16.975 10.5684 15.86 11.99C14.7567 13.3984 13.3467 14.6834 12.1383 15.6642C10.9775 16.6059 10.6025 16.875 9.99999 16.875C9.39749 16.875 9.02249 16.6059 7.86166 15.6634C6.65332 14.6834 5.24332 13.3975 4.13999 11.9909C3.02416 10.5684 2.29166 9.10752 2.29166 7.76502C2.29166 5.34419 3.34832 3.84835 4.65499 3.33585C5.95916 2.82585 7.78332 3.19002 9.54332 5.07252C9.6018 5.1351 9.6725 5.18499 9.75106 5.2191C9.82962 5.25321 9.91435 5.27081 9.99999 5.27081C10.0856 5.27081 10.1704 5.25321 10.2489 5.2191C10.3275 5.18499 10.3982 5.1351 10.4567 5.07252Z" fill="currentColor"/>
</svg>
