<svg width="25" height="24" viewBox="0 0 25 24" fill="none" xmlns="http://www.w3.org/2000/svg">
    <g id="tabler:lighter">
        <g id="Group">
            <path id="Vector"
                d="M10.5 3V19C10.5 19.5304 10.7107 20.0391 11.0858 20.4142C11.4609 20.7893 11.9696 21 12.5 21H17.5C18.0304 21 18.5391 20.7893 18.9142 20.4142C19.2893 20.0391 19.5 19.5304 19.5 19V12H7.5C6.96957 12 6.46086 11.7893 6.08579 11.4142C5.71071 11.0391 5.5 10.5304 5.5 10V5C5.5 4.46957 5.71071 3.96086 6.08579 3.58579C6.46086 3.21071 6.96957 3 7.5 3H10.5Z"
                stroke="currentColor" stroke-width="1.5" stroke-linecap="round" stroke-linejoin="round" />
            <g id="Vector_2">
                <mask id="path-2-inside-1_10724_27597" fill="white">
                    <path
                        d="M19.2452 5.62043C19.0797 5.22973 18.8392 4.87906 18.5386 4.59036L18.2906 4.35162C18.2822 4.34373 18.2721 4.33814 18.2611 4.33533C18.2501 4.33251 18.2387 4.33256 18.2277 4.33548C18.2168 4.33839 18.2067 4.34407 18.1984 4.35203C18.19 4.35999 18.1836 4.36998 18.1798 4.38113L18.069 4.71465C18 4.92388 17.873 5.13758 17.6932 5.34771C17.6812 5.36112 17.6676 5.3647 17.6582 5.36559C17.6489 5.36649 17.6344 5.3647 17.6216 5.35218C17.6097 5.34145 17.6037 5.32535 17.6045 5.30926C17.6361 4.77098 17.4827 4.16385 17.1469 3.50306C16.869 2.95405 16.483 2.52575 16.0006 2.2271L15.6486 2.00983C15.6026 1.98121 15.5437 2.01877 15.5463 2.0751L15.5651 2.50429C15.5778 2.79758 15.5455 3.05688 15.4687 3.27237C15.375 3.53615 15.2403 3.78115 15.0682 4.00111C14.9484 4.15398 14.8126 4.29225 14.6634 4.41332C14.304 4.70317 14.0117 5.07457 13.8085 5.49971C13.6058 5.92856 13.5002 6.40072 13.5 6.8794C13.5 7.30144 13.5793 7.71007 13.7361 8.09545C13.8875 8.46649 14.106 8.80324 14.3795 9.08707C14.6557 9.3732 14.9761 9.59852 15.3332 9.755C15.7031 9.91774 16.0952 10 16.5 10C16.9048 10 17.2969 9.91774 17.6668 9.7559C18.023 9.60033 18.3469 9.37347 18.6204 9.08796C18.8966 8.80183 19.1131 8.46742 19.2639 8.09634C19.4205 7.71201 19.5008 7.29825 19.5 6.88029C19.5 6.44394 19.4148 6.02011 19.2452 5.62043Z" />
                </mask>
                <path
                    d="M19.2452 5.62043L17.8639 6.20537L17.8643 6.20636L19.2452 5.62043ZM18.5386 4.59036L17.4984 5.67103L17.4995 5.67213L18.5386 4.59036ZM18.2906 4.35162L19.3309 3.27095L19.3234 3.26375L19.3158 3.25665L18.2906 4.35162ZM18.1798 4.38113L16.7607 3.89504L16.7563 3.90824L18.1798 4.38113ZM18.069 4.71465L16.6455 4.24176L16.6446 4.24466L18.069 4.71465ZM17.6932 5.34771L18.8139 6.34471L18.8235 6.33396L18.8328 6.32302L17.6932 5.34771ZM17.6216 5.35218L18.671 4.28043L18.6483 4.25814L18.6246 4.23683L17.6216 5.35218ZM17.6045 5.30926L16.1071 5.22153L16.1066 5.22994L17.6045 5.30926ZM17.1469 3.50306L15.8085 4.18038L15.8096 4.18262L17.1469 3.50306ZM16.0006 2.2271L16.7902 0.951739L16.7885 0.950706L16.0006 2.2271ZM15.6486 2.00983L14.8566 3.28371L14.8607 3.28622L15.6486 2.00983ZM15.5463 2.0751L17.0449 2.00963L17.0448 2.00709L15.5463 2.0751ZM15.5651 2.50429L17.0636 2.43897L17.0636 2.43883L15.5651 2.50429ZM15.4687 3.27237L14.0556 2.76936L14.0554 2.77003L15.4687 3.27237ZM15.0682 4.00111L16.2488 4.92641L16.2494 4.92562L15.0682 4.00111ZM14.6634 4.41332L15.605 5.58091L15.6084 5.57816L14.6634 4.41332ZM13.8085 5.49971L12.4551 4.85288L12.4524 4.85874L13.8085 5.49971ZM13.5 6.8794L12 6.87862V6.8794H13.5ZM13.7361 8.09545L12.3467 8.66081L12.3473 8.66221L13.7361 8.09545ZM14.3795 9.08707L13.2995 10.128L13.3002 10.1287L14.3795 9.08707ZM15.3332 9.755L15.9373 8.38201L15.9353 8.38111L15.3332 9.755ZM17.6668 9.7559L17.0665 8.38125L17.0655 8.38168L17.6668 9.7559ZM18.6204 9.08796L17.5411 8.04631L17.5373 8.05024L18.6204 9.08796ZM19.2639 8.09634L17.8748 7.53038L17.8743 7.53145L19.2639 8.09634ZM19.5 6.88029H18L18 6.88326L19.5 6.88029ZM20.6264 5.03548C20.3832 4.46119 20.0275 3.94062 19.5778 3.50859L17.4995 5.67213C17.6509 5.81751 17.7762 5.99827 17.8639 6.20537L20.6264 5.03548ZM19.5789 3.50969L19.3309 3.27095L17.2504 5.43229L17.4984 5.67103L19.5789 3.50969ZM19.3158 3.25665C19.1272 3.08006 18.8939 2.94916 18.6341 2.88245L17.8881 5.7882C17.6502 5.72712 17.4372 5.60741 17.2654 5.44658L19.3158 3.25665ZM18.6341 2.88245C18.374 2.81565 18.1011 2.81691 17.8417 2.886L18.6138 5.78495C18.3762 5.84821 18.1263 5.84937 17.8881 5.7882L18.6341 2.88245ZM17.8417 2.886C17.5826 2.955 17.3507 3.08787 17.1638 3.26594L19.233 5.43812C19.0627 5.60028 18.851 5.72178 18.6138 5.78495L17.8417 2.886ZM17.1638 3.26594C16.9772 3.44365 16.841 3.66081 16.7608 3.89506L19.5989 4.86719C19.5263 5.07916 19.4028 5.27634 19.233 5.43812L17.1638 3.26594ZM16.7563 3.90824L16.6455 4.24176L19.4925 5.18754L19.6033 4.85402L16.7563 3.90824ZM16.6446 4.24466C16.6503 4.22728 16.6381 4.27357 16.5535 4.37239L18.8328 6.32302C19.1079 6.00159 19.3497 5.62047 19.4935 5.18463L16.6446 4.24466ZM16.5725 4.35071C16.8834 4.0012 17.2702 3.89579 17.5158 3.87237L17.8007 6.85882C18.065 6.8336 18.4791 6.72104 18.8139 6.34471L16.5725 4.35071ZM17.5158 3.87237C17.8284 3.84255 18.2922 3.90943 18.671 4.28043L16.5721 6.42393C16.9766 6.81996 17.4693 6.89042 17.8007 6.85882L17.5158 3.87237ZM18.6246 4.23683C18.9834 4.55948 19.123 4.99952 19.1024 5.38858L16.1066 5.22994C16.0843 5.65119 16.2359 6.12341 16.6186 6.46753L18.6246 4.23683ZM19.102 5.39698C19.1538 4.51286 18.8977 3.63739 18.4841 2.82351L15.8096 4.18262C16.0676 4.6903 16.1184 5.0291 16.1071 5.22154L19.102 5.39698ZM18.4852 2.82575C18.0926 2.04985 17.5245 1.40639 16.7902 0.951741L15.211 3.50247C15.4414 3.64512 15.6455 3.85826 15.8085 4.18038L18.4852 2.82575ZM16.7885 0.950706L16.4365 0.733426L14.8607 3.28622L15.2127 3.5035L16.7885 0.950706ZM16.4406 0.73595C15.2314 -0.0157881 13.9981 1.04614 14.0478 2.14311L17.0448 2.00709C17.0894 2.99139 15.9737 3.97821 14.8566 3.2837L16.4406 0.73595ZM14.0477 2.14057L14.0665 2.56976L17.0636 2.43883L17.0449 2.00963L14.0477 2.14057ZM14.0665 2.56962C14.0732 2.72292 14.0517 2.78026 14.0556 2.76936L16.8819 3.77538C17.0392 3.3335 17.0825 2.87223 17.0636 2.43897L14.0665 2.56962ZM14.0554 2.77003C14.0156 2.88189 13.9592 2.98426 13.887 3.0766L16.2494 4.92562C16.5214 4.57804 16.7344 4.19041 16.8821 3.77471L14.0554 2.77003ZM13.8876 3.07581C13.8363 3.14122 13.7793 3.19894 13.7183 3.24847L15.6084 5.57816C15.8458 5.38555 16.0604 5.16674 16.2488 4.92641L13.8876 3.07581ZM13.7217 3.24572C13.1842 3.67919 12.7529 4.22987 12.4552 4.85288L15.1619 6.14655C15.2705 5.91927 15.4237 5.72715 15.605 5.58091L13.7217 3.24572ZM12.4524 4.85874C12.1542 5.48964 12.0004 6.18064 12 6.87862L15 6.88017C15.0001 6.6208 15.0575 6.36748 15.1647 6.14069L12.4524 4.85874ZM12 6.8794C12 7.49216 12.1157 8.09304 12.3467 8.66081L15.1255 7.53009C15.0429 7.3271 15 7.11071 15 6.8794H12ZM12.3473 8.66221C12.5694 9.20644 12.8917 9.70478 13.2995 10.128L15.4596 8.04618C15.3204 7.9017 15.2056 7.72655 15.1249 7.52869L12.3473 8.66221ZM13.3002 10.1287C13.7074 10.5507 14.1886 10.8911 14.7312 11.1289L15.9353 8.38111C15.7636 8.30591 15.6039 8.1957 15.4589 8.04542L13.3002 10.1287ZM14.7292 11.128C15.29 11.3747 15.8878 11.5 16.5 11.5V8.5C16.3025 8.5 16.1163 8.46074 15.9373 8.38201L14.7292 11.128ZM16.5 11.5C17.1121 11.5 17.7089 11.3748 18.268 11.1301L17.0655 8.38168C16.8849 8.4607 16.6975 8.5 16.5 8.5V11.5ZM18.2671 11.1305C18.8081 10.8943 19.2953 10.5518 19.7036 10.1257L17.5373 8.05024C17.3985 8.19517 17.2379 8.30639 17.0665 8.38125L18.2671 11.1305ZM19.6998 10.1296C20.111 9.70354 20.4318 9.20663 20.6535 8.66124L17.8743 7.53145C17.7944 7.72821 17.6822 7.90012 17.5411 8.04632L19.6998 10.1296ZM20.653 8.6623C20.8838 8.09602 21.0012 7.4889 21 6.87732L18 6.88326C18.0004 7.10761 17.9572 7.32801 17.8748 7.53038L20.653 8.6623ZM21 6.88029C21 6.24541 20.8753 5.62207 20.626 5.03449L17.8643 6.20636C17.9542 6.41816 18 6.64248 18 6.88029H21Z"
                    fill="currentColor" mask="url(#path-2-inside-1_10724_27597)" />
            </g>
        </g>
    </g>
</svg>