<svg width="24" height="24" viewBox="0 0 24 24" fill="none" xmlns="http://www.w3.org/2000/svg">
<g id="Icon / Link-External-Window">
<path id="Rectangle 217" d="M10.3261 6.98523H5.82611C4.72154 6.98523 3.82611 7.88066 3.82611 8.98523V17.9852C3.82611 19.0898 4.72154 19.9852 5.82611 19.9852H14.8261C15.9307 19.9852 16.8261 19.0898 16.8261 17.9852V13.4852" stroke="currentColor" stroke-width="1.5" stroke-linecap="round"/>
<path id="Union" d="M13.7723 5.09226C13.4815 4.80147 13.0167 4.79473 12.7342 5.07722C12.4518 5.3597 12.4585 5.82444 12.7493 6.11523C13.7152 7.08116 14.8259 7.32199 15.8491 7.22761L10.5078 12.569C10.2253 12.8514 10.232 13.3162 10.5228 13.607C10.8136 13.8978 11.2784 13.9045 11.5608 13.622L16.9022 8.28067C16.8078 9.30389 17.0486 10.4146 18.0146 11.3805C18.3054 11.6713 18.7701 11.678 19.0526 11.3955C19.3351 11.1131 19.3283 10.6483 19.0375 10.3575C18.1875 9.5075 18.2153 8.44238 18.6359 7.35678C19.0579 6.26762 19.8094 5.37342 20.0003 5.18253C20.2828 4.90004 20.2761 4.43531 19.9853 4.14452C19.6945 3.85372 19.2297 3.84699 18.9473 4.12947C18.7564 4.32037 17.8622 5.07187 16.773 5.49388C15.6874 5.91451 14.6223 5.9423 13.7723 5.09226Z" fill="currentColor"/>
</g>
</svg>
