<svg width="16" height="16" viewBox="0 0 16 16" fill="none" xmlns="http://www.w3.org/2000/svg">
    <g clip-path="url(#clip0_8798_7092)">
        <path
            d="M14.5854 5.52732C14.2323 4.68826 13.726 3.93514 13.0807 3.28826C12.4399 2.64515 11.6792 2.13394 10.8416 1.78357C9.98227 1.42263 9.06977 1.23982 8.12914 1.23982H8.09789C7.15102 1.24451 6.23383 1.43201 5.37133 1.80076C4.54096 2.15472 3.78738 2.66683 3.15258 3.30857C2.51351 3.95388 2.01195 4.70389 1.66508 5.53982C1.3057 6.40545 1.12445 7.32576 1.12914 8.27263C1.13444 9.35775 1.39116 10.0284 1.87914 10.9976V13.7711C1.87914 13.9617 1.95487 14.1445 2.08966 14.2793C2.22445 14.4141 2.40727 14.4898 2.59789 14.4898H4.97445C5.94366 14.9778 7.01278 15.2345 8.09789 15.2398H8.1307C9.06664 15.2398 9.97445 15.0586 10.8291 14.7039C11.6625 14.3577 12.4203 13.8525 13.0604 13.2164C13.7057 12.5773 14.2135 11.8304 14.5682 10.9976C14.937 10.1351 15.1245 9.21795 15.1291 8.27107C15.1338 7.31951 14.9495 6.39607 14.5854 5.52732ZM12.2245 12.3711C11.1291 13.4554 9.67602 14.0523 8.12914 14.0523H8.10258C7.16039 14.0476 6.22445 13.8133 5.39789 13.3726L5.26664 13.3023L2.71131 13.2164L2.59789 11.1411V10.6799C2.15726 9.85338 1.88383 9.02103 1.87914 8.07884C1.87289 6.52103 2.4677 4.84524 3.55989 3.74368C4.65052 2.64211 6.54008 2.01586 8.09789 2.00961H8.54072C9.32197 2.00961 10.1151 2.18925 10.8291 2.48925C11.526 2.78143 12.0248 3.48289 12.5623 4.02039C13.0982 4.55633 13.4876 5.18671 13.7798 5.88359C14.0829 6.60546 13.9479 7.47576 13.9448 8.26639C13.9354 9.82264 13.3245 11.2804 12.2245 12.3711Z"
            fill="#F3EBEA" />
        <path
            d="M7.25 8C7.25 8.19891 7.32902 8.38968 7.46967 8.53033C7.61033 8.67098 7.80109 8.75 8 8.75C8.19892 8.75 8.38968 8.67098 8.53033 8.53033C8.67099 8.38968 8.75 8.19891 8.75 8C8.75 7.80109 8.67099 7.61032 8.53033 7.46967C8.38968 7.32902 8.19892 7.25 8 7.25C7.80109 7.25 7.61033 7.32902 7.46967 7.46967C7.32902 7.61032 7.25 7.80109 7.25 8ZM10.375 8C10.375 8.19891 10.454 8.38968 10.5947 8.53033C10.7353 8.67098 10.9261 8.75 11.125 8.75C11.3239 8.75 11.5147 8.67098 11.6553 8.53033C11.796 8.38968 11.875 8.19891 11.875 8C11.875 7.80109 11.796 7.61032 11.6553 7.46967C11.5147 7.32902 11.3239 7.25 11.125 7.25C10.9261 7.25 10.7353 7.32902 10.5947 7.46967C10.454 7.61032 10.375 7.80109 10.375 8ZM4.125 8C4.125 8.19891 4.20402 8.38968 4.34467 8.53033C4.48533 8.67098 4.67609 8.75 4.875 8.75C5.07392 8.75 5.26468 8.67098 5.40533 8.53033C5.54599 8.38968 5.625 8.19891 5.625 8C5.625 7.80109 5.54599 7.61032 5.40533 7.46967C5.26468 7.32902 5.07392 7.25 4.875 7.25C4.67609 7.25 4.48533 7.32902 4.34467 7.46967C4.20402 7.61032 4.125 7.80109 4.125 8ZM14.4563 5.2875C14.1031 4.44844 13.5969 3.69531 12.9516 3.04844C12.3108 2.40532 11.55 1.89411 10.7125 1.54375C9.85313 1.18281 8.94063 1 8 1H7.96875C7.02188 1.00469 6.10469 1.19219 5.24219 1.56094C4.41182 1.91489 3.65824 2.42701 3.02344 3.06875C2.38438 3.71406 1.88282 4.46406 1.53594 5.3C1.17657 6.16563 0.995317 7.08594 1 8.03281C1.00531 9.11792 1.26202 10.187 1.75 11.1562V13.5312C1.75 13.7219 1.82573 13.9047 1.96052 14.0395C2.09531 14.1743 2.27813 14.25 2.46875 14.25H4.84532C5.81453 14.738 6.88364 14.9947 7.96875 15H8.00157C8.9375 15 9.84532 14.8188 10.7 14.4641C11.5333 14.1179 12.2912 13.6126 12.9313 12.9766C13.5766 12.3375 14.0844 11.5906 14.4391 10.7578C14.8078 9.89531 14.9953 8.97813 15 8.03125C15.0047 7.07969 14.8203 6.15625 14.4563 5.2875ZM12.0953 12.1313C11 13.2156 9.54688 13.8125 8 13.8125H7.97344C7.03125 13.8078 6.09532 13.5734 5.26875 13.1328L5.1375 13.0625H2.9375V10.8625L2.86719 10.7312C2.42657 9.90469 2.19219 8.96875 2.1875 8.02656C2.18125 6.46875 2.77657 5.00625 3.86875 3.90469C4.95938 2.80312 6.41719 2.19375 7.975 2.1875H8.00157C8.78282 2.1875 9.54063 2.33906 10.2547 2.63906C10.9516 2.93125 11.5766 3.35156 12.1141 3.88906C12.65 4.425 13.0719 5.05156 13.3641 5.74844C13.6672 6.47031 13.8188 7.23594 13.8156 8.02656C13.8063 9.58281 13.1953 11.0406 12.0953 12.1313Z"
            fill="#F3EBEA" />
    </g>
    <defs>
        <clipPath id="clip0_8798_7092">
            <rect width="16" height="16" fill="white" />
        </clipPath>
    </defs>
</svg>