<svg width="24" height="24" viewBox="0 0 24 24" color="transparent" xmlns="http://www.w3.org/2000/svg">
    <path
        d="M6.5003 13.8537L6.89848 13.6797L6.94561 13.2477L7.42503 8.85302C7.67972 6.51836 9.65149 4.75 12 4.75C14.3485 4.75 16.3203 6.51836 16.575 8.85303L17.0544 13.2477L17.1015 13.6797L17.4997 13.8537C17.9428 14.0472 18.25 14.4886 18.25 15C18.25 15.6904 17.6904 16.25 17 16.25H7C6.30964 16.25 5.75 15.6904 5.75 15C5.75 14.4886 6.05724 14.0472 6.5003 13.8537Z"
        stroke="currentColor" fill="transparent" stroke-width="1.5" />
    <path fill-rule="evenodd" clip-rule="evenodd"
        d="M16.0272 5.82715C16.7289 6.62791 17.1974 7.64308 17.3205 8.77213L17.7999 13.1668C17.9734 13.2426 18.1339 13.3422 18.2776 13.4616L17.8205 9.27213C17.67 7.8927 17.0041 6.68327 16.0272 5.82715ZM18.642 13.8584C18.8677 14.1822 19 14.5759 19 15.0004C19 16.105 18.1045 17.0004 17 17.0004H6.99998C6.5754 17.0004 6.18171 16.8681 5.85791 16.6425C6.21926 17.1611 6.81999 17.5004 7.49998 17.5004H17.5C18.6045 17.5004 19.5 16.605 19.5 15.5004C19.5 14.8205 19.1606 14.2197 18.642 13.8584Z"
        fill="currentColor" />
    <path d="M10 19.5H14" stroke="currentColor" fill="currentColor" stroke-width="1.5" stroke-linecap="round" />
</svg>