<svg width="24" height="24" viewBox="0 0 24 24" fill="none" xmlns="http://www.w3.org/2000/svg">
<g id="Icon / Pts">
<path id="Union" fill-rule="evenodd" clip-rule="evenodd" d="M12 20.5001C16.6944 20.5001 20.5 16.6945 20.5 12.0001C20.5 7.30567 16.6944 3.50009 12 3.50009C7.30558 3.50009 3.5 7.30567 3.5 12.0001C3.5 16.6945 7.30558 20.5001 12 20.5001ZM2 12.0001C2 14.8888 3.22486 17.4914 5.18354 19.317C7.00905 21.2754 9.61152 22.5001 12.5 22.5001C18.0229 22.5001 22.3654 18.0213 22.5 12.5001C22.6414 6.70281 17.7973 1.85869 12 2.00009C6.47879 2.13476 2 6.47724 2 12.0001Z" fill="currentColor"/>
<path id="Vector" d="M11.4547 16.2503L12.0017 17.4419L12.5459 16.249L13.7013 13.7161L16.2504 12.5452L17.4451 11.9965L16.2478 11.4536L13.7013 10.2987L12.5464 7.7522L12.0017 6.55108L11.4542 7.75088L10.2913 10.2987L7.7516 11.4538L6.55838 11.9965L7.74897 12.545L10.2913 13.7161L11.4547 16.2503Z" fill="#FDBF1E" stroke="currentColor" stroke-width="1.2"/>
</g>
</svg>
