<svg width="24" height="24" viewBox="0 0 24 24" color="currentColor" xmlns="http://www.w3.org/2000/svg">
    <path fill-rule="evenodd" clip-rule="evenodd"
        d="M23.9217 1.01739C23.8696 0.495648 23.4783 0.104343 22.9565 0.0521694C16.3565 -0.46957 11.6348 2.73913 8.68696 6.75652C7.06957 6.23478 5.32174 6.41739 3.73043 7.30434C2.1913 8.16521 0.913043 9.62608 0.0782609 11.4C-0.104348 11.8174 -0.0260869 12.287 0.313044 12.6C0.626087 12.913 1.12174 12.9652 1.51304 12.7565C3.18261 11.8696 5.06087 12.0522 6.18261 13.1739L10.7739 17.7652L10.8 17.7913C11.9217 18.913 12.1043 20.7913 11.2174 22.4609C11.0087 22.8522 11.087 23.3478 11.3739 23.6609C11.5826 23.8696 11.8435 23.9739 12.1304 23.9739C12.287 23.9739 12.4435 23.9478 12.5739 23.8696C14.3478 23.0348 15.8087 21.7304 16.6696 20.2174C17.5826 18.6261 17.7652 16.8783 17.2174 15.2348C18.3913 14.3739 19.4609 13.4348 20.3478 12.3913C23.113 9.23478 24.313 5.39999 23.9217 1.01739ZM3.88696 16.2783C2.68696 17.4783 2.63478 19.8783 2.63478 20.3478C2.63478 20.9217 3.10435 21.3913 3.67826 21.3913H3.70435C4.25217 21.3913 6.54783 21.313 7.72174 20.1391C8.45217 19.4087 8.6087 18.6522 8.6087 18.1565C8.6087 17.4522 8.32174 16.7739 7.77391 16.2261C6.46956 14.8956 4.82609 15.313 3.88696 16.2783ZM18.5739 5.42608C18.8869 5.73912 19.0696 6.1826 19.0696 6.62608C19.0696 7.06956 18.8869 7.51304 18.5739 7.82608C18.2609 8.13912 17.8174 8.32173 17.3739 8.32173C16.9304 8.32173 16.4869 8.16521 16.1739 7.82608C15.8609 7.48695 15.6783 7.06956 15.6783 6.62608C15.6783 6.1826 15.8609 5.73912 16.1739 5.42608C16.4869 5.11304 16.9304 4.93043 17.3739 4.93043C17.8174 4.93043 18.2609 5.11304 18.5739 5.42608Z"
        fill="currentColor" />
</svg>