<svg width="25" height="24" viewBox="0 0 25 24" color="#2C3034" fill="none" xmlns="http://www.w3.org/2000/svg">
    <g clip-path="url(#clip0_7022_3445)">
        <path
            d="M5.5 9C5.5 4.99593 8.74594 1.75 12.75 1.75C16.7541 1.75 20 4.99594 20 9C20 13.0041 16.7541 16.25 12.75 16.25C8.74594 16.25 5.5 13.0041 5.5 9Z"
            stroke="currentColor" stroke-width="1.5" />
        <path fill-rule="evenodd" clip-rule="evenodd"
            d="M11.0414 4.62927L11.0414 5.79656L10.9617 5.84247C9.78769 6.50942 9.05801 7.72645 9.05801 9.0184C9.05801 10.3103 9.78773 11.5271 10.9617 12.1945L11.0417 12.2399L11.0417 13.4072C11.0417 13.7542 11.3381 14.0363 11.7028 14.0363C12.0675 14.0363 12.3639 13.7539 12.3639 13.4072L12.3639 12.6812L12.5444 12.7011C12.7138 12.7178 12.8888 12.726 13.0592 12.716L13.2898 12.7049L13.2898 13.4089C13.2898 13.756 13.5862 14.0381 13.9509 14.0381C14.3156 14.0381 14.612 13.7557 14.612 13.4089L14.612 12.3614L14.7021 12.3178C15.0053 12.1709 15.2839 11.9909 15.529 11.7834C15.6606 11.6716 15.739 11.5174 15.7488 11.3497C15.7593 11.1821 15.6999 11.0202 15.5825 10.8947C15.465 10.7695 15.3029 10.6948 15.1267 10.6855C14.9472 10.6738 14.7805 10.732 14.6486 10.8438C14.1784 11.2424 13.573 11.4615 12.9432 11.4615C11.5284 11.4615 10.3775 10.3662 10.3775 9.01983C10.3775 7.67342 11.5284 6.57813 12.9432 6.57813C13.573 6.57813 14.1791 6.79789 14.6486 7.19586C14.7808 7.30765 14.9512 7.36413 15.1267 7.35418C15.3032 7.34423 15.465 7.2699 15.5825 7.14436C15.8248 6.88452 15.8008 6.48567 15.5283 6.25537C15.2851 6.04849 15.0071 5.86882 14.7021 5.72104L14.6126 5.67743L14.6126 4.62986C14.6126 4.2828 14.3162 4.00071 13.9515 4.00071C13.5868 4.00071 13.2904 4.2828 13.2904 4.62986L13.2904 5.33362L13.0561 5.3228C12.8833 5.31343 12.712 5.32192 12.5441 5.33772L12.3636 5.35498L12.3636 4.62927C12.3636 4.28221 12.0672 4.00012 11.7025 4.00012C11.3378 4.00012 11.0414 4.28221 11.0414 4.62927Z"
            fill="currentColor" />
        <path fill-rule="evenodd" clip-rule="evenodd"
            d="M16.5 22C16.9142 22 17.25 21.6642 17.25 21.25L17.25 18.75C17.25 18.3358 16.9142 18 16.5 18C16.0858 18 15.75 18.3358 15.75 18.75L15.75 21.25C15.75 21.6642 16.0858 22 16.5 22Z"
            fill="currentColor" />
        <path fill-rule="evenodd" clip-rule="evenodd"
            d="M12.5 24C12.9142 24 13.25 23.6642 13.25 23.25L13.25 19.75C13.25 19.3358 12.9142 19 12.5 19C12.0858 19 11.75 19.3358 11.75 19.75L11.75 23.25C11.75 23.6642 12.0858 24 12.5 24Z"
            fill="currentColor" />
        <path fill-rule="evenodd" clip-rule="evenodd"
            d="M8.5 22C8.91421 22 9.25 21.6642 9.25 21.25L9.25 18.75C9.25 18.3358 8.91421 18 8.5 18C8.08579 18 7.75 18.3358 7.75 18.75L7.75 21.25C7.75 21.6642 8.08579 22 8.5 22Z"
            fill="currentColor" />
    </g>
    <defs>
        <clipPath id="clip0_7022_3445">
            <rect width="24" height="24" fill="white" transform="translate(0.75)" />
        </clipPath>
    </defs>
</svg>