<svg width="40" height="40" viewBox="0 0 40 40" fill="none" xmlns="http://www.w3.org/2000/svg">
<path fill-rule="evenodd" clip-rule="evenodd" d="M15.5369 13.4448C15.4163 13.6733 15.1965 13.833 14.9419 13.8771L6.14519 15.3991C5.48496 15.5133 5.22268 16.3205 5.68968 16.801L11.9117 23.203C12.0918 23.3883 12.1758 23.6466 12.139 23.9024L10.8682 32.7389C10.7728 33.4021 11.4595 33.901 12.0608 33.6054L20.0721 29.6661C20.304 29.5521 20.5756 29.5521 20.8075 29.6661L28.8188 33.6054C29.4201 33.901 30.1068 33.4021 30.0114 32.7389L28.7406 23.9024C28.7038 23.6466 28.7878 23.3883 28.9679 23.203L35.1899 16.801C35.6569 16.3205 35.3946 15.5133 34.7344 15.3991L25.9377 13.8771C25.6831 13.833 25.4633 13.6733 25.3427 13.4448L21.1768 5.54896C20.8642 4.95634 20.0154 4.95634 19.7028 5.54896L15.5369 13.4448ZM20.8075 9.47932L18.1468 10.297C17.5439 11.4397 15.5752 15.8008 14.3021 16.0211H8.27127L13.6179 21.2419C14.5184 22.1684 14.486 23.0981 14.3021 24.3769L13.6179 28.5233L18.6013 26.6749C19.7607 26.1048 21.1189 26.1048 22.2783 26.6749L26.0375 28.5233L25.4412 24.3769C25.2573 23.0981 25.677 21.8063 26.5775 20.8798L29.4971 17.8758L27.8337 16.0211C26.5606 15.8008 22.8812 15.4025 22.2783 14.2598L20.8075 9.47932Z" fill="#2C3034"/>
<path d="M19.2626 4.72996C19.5753 4.13734 20.424 4.13733 20.7367 4.72996L24.9026 12.6258C25.0232 12.8543 25.243 13.014 25.4976 13.0581L34.2943 14.5801C34.9545 14.6943 35.2168 15.5015 34.7498 15.982L28.5277 22.384C28.3477 22.5693 28.2637 22.8276 28.3005 23.0834L29.5713 31.9199C29.6666 32.5831 28.98 33.082 28.3787 32.7864L20.3674 28.8471C20.1355 28.7331 19.8638 28.7331 19.632 28.8471L11.6206 32.7864C11.0193 33.082 10.3327 32.5831 10.4281 31.9199L11.6989 23.0834C11.7356 22.8276 11.6517 22.5693 11.4716 22.384L5.24955 15.982C4.78256 15.5015 5.04483 14.6943 5.70507 14.5801L14.5018 13.0581C14.7564 13.014 14.9762 12.8543 15.0967 12.6258L19.2626 4.72996Z" fill="#2C3034"/>
</svg>
