<svg width="40" height="40" viewBox="0 0 40 40" fill="none" xmlns="http://www.w3.org/2000/svg">
<path fill-rule="evenodd" clip-rule="evenodd" d="M15.5378 13.4436C15.4173 13.6721 15.1975 13.8318 14.9429 13.8758L6.14617 15.3979C5.48593 15.5121 5.22366 16.3193 5.69066 16.7998L11.9127 23.2018C12.0928 23.3871 12.1767 23.6454 12.14 23.9012L10.8692 32.7377C10.7738 33.4009 11.4605 33.8998 12.0617 33.6041L20.0731 29.6649C20.3049 29.5509 20.5766 29.5509 20.8085 29.6649L28.8198 33.6041C29.4211 33.8998 30.1077 33.4009 30.0124 32.7377L28.7416 23.9012C28.7048 23.6454 28.7888 23.3871 28.9688 23.2018L35.1909 16.7998C35.6579 16.3193 35.3956 15.5121 34.7354 15.3979L25.9387 13.8758C25.6841 13.8318 25.4643 13.6721 25.3437 13.4436L21.1778 5.54774C20.8651 4.95511 20.0164 4.95512 19.7037 5.54774L15.5378 13.4436ZM20.8085 9.4781L18.1478 10.2958C17.5449 11.4385 15.5761 15.7996 14.3031 16.0199H8.27225L13.6189 21.2407C14.5193 22.1672 14.487 23.0968 14.3031 24.3757L13.6189 28.522L18.6022 26.6736C19.7616 26.1036 21.1199 26.1036 22.2793 26.6736L26.0385 28.522L25.4422 24.3757C25.2583 23.0968 25.678 21.8051 26.5785 20.8786L29.4981 17.8746L27.8346 16.0199C26.5616 15.7996 22.8822 15.4013 22.2793 14.2586L20.8085 9.4781Z" fill="#2C3034"/>
<path d="M16.5708 13.4038L19.9997 6.90488L23.4285 13.4038C23.7903 14.0894 24.4496 14.5684 25.2134 14.7006L32.4538 15.9533L27.3326 21.2226C26.7923 21.7785 26.5404 22.5536 26.6508 23.3209L27.6967 30.594L21.1028 27.3517C20.4072 27.0097 19.5922 27.0097 18.8966 27.3517L12.3026 30.594L13.3486 23.3209C13.4589 22.5536 13.2071 21.7785 12.6668 21.2226L7.54556 15.9533L14.7859 14.7006C15.5498 14.5684 16.2091 14.0894 16.5708 13.4038Z" stroke="#2C3034" stroke-width="3.33333"/>
</svg>
