<svg width="25" height="24" viewBox="0 0 25 24" fill="none" xmlns="http://www.w3.org/2000/svg">
    <g id="clarity:sun-solid">
        <path id="Vector"
            d="M12.6179 3.73118C12.5866 3.76244 12.5442 3.78 12.5 3.78C12.4558 3.78 12.4134 3.76244 12.3822 3.73118C12.3509 3.69993 12.3334 3.65754 12.3334 3.61333V1.27333C12.3334 1.22913 12.3509 1.18674 12.3822 1.15548C12.4134 1.12423 12.4558 1.10667 12.5 1.10667C12.5442 1.10667 12.5866 1.12423 12.6179 1.15548C12.6491 1.18674 12.6667 1.22913 12.6667 1.27333V3.61333C12.6667 3.65754 12.6491 3.69993 12.6179 3.73118L12.9479 4.06117L12.6179 3.73118Z"
            fill="#FDBF1E" stroke="currentColor" />
        <path id="Vector_2"
            d="M12.3822 20.2688C12.4134 20.2376 12.4558 20.22 12.5 20.22C12.5442 20.22 12.5866 20.2376 12.6179 20.2688C12.6491 20.3001 12.6667 20.3425 12.6667 20.3867V22.7267C12.6667 22.7709 12.6491 22.8133 12.6179 22.8445C12.5866 22.8758 12.5442 22.8933 12.5 22.8933C12.4558 22.8933 12.4134 22.8758 12.3822 22.8445C12.3509 22.8133 12.3334 22.7709 12.3334 22.7267V20.3867C12.3334 20.3425 12.3509 20.3001 12.3822 20.2688Z"
            fill="#FDBF1E" stroke="currentColor" />
        <path id="Vector_3"
            d="M6.54009 6.20018C6.50245 6.20163 6.46556 6.1903 6.43535 6.16823L4.81846 4.55133C4.79639 4.52112 4.78505 4.48423 4.7865 4.4466C4.78812 4.40465 4.80551 4.36486 4.83519 4.33518C4.86488 4.3055 4.90467 4.28811 4.94661 4.28649C4.98425 4.28503 5.02113 4.29637 5.05135 4.31844L6.66824 5.93533C6.69031 5.96555 6.70165 6.00243 6.70019 6.04007C6.69857 6.08202 6.68119 6.12181 6.6515 6.15149L7.00506 6.50504L6.6515 6.15149C6.62182 6.18117 6.58203 6.19856 6.54009 6.20018Z"
            fill="#FDBF1E" stroke="currentColor" />
        <path id="Vector_4"
            d="M18.4599 17.7998C18.4976 17.7984 18.5344 17.8097 18.5647 17.8318L20.1815 19.4487C20.2036 19.4789 20.215 19.5158 20.2135 19.5534C20.2119 19.5954 20.1945 19.6351 20.1648 19.6648C20.1351 19.6945 20.0953 19.7119 20.0534 19.7135C20.0158 19.715 19.9789 19.7036 19.9487 19.6816L18.3318 18.0647C18.3097 18.0345 18.2984 17.9976 18.2998 17.9599C18.3014 17.918 18.3188 17.8782 18.3485 17.8485C18.3782 17.8188 18.418 17.8014 18.4599 17.7998Z"
            fill="#FDBF1E" stroke="currentColor" />
        <path id="Vector_5"
            d="M4.23121 11.8822C4.26246 11.9134 4.28002 11.9558 4.28002 12C4.28002 12.0442 4.26246 12.0866 4.23121 12.1179L4.56119 12.4478L4.23121 12.1179C4.19995 12.1491 4.15756 12.1667 4.11336 12.1667H1.77336C1.72915 12.1667 1.68676 12.1491 1.65551 12.1179C1.62425 12.0866 1.60669 12.0442 1.60669 12C1.60669 11.9558 1.62425 11.9134 1.65551 11.8822C1.68676 11.8509 1.72915 11.8333 1.77336 11.8333H4.11336C4.15756 11.8333 4.19995 11.8509 4.23121 11.8822Z"
            fill="#FDBF1E" stroke="currentColor" />
        <path id="Vector_6"
            d="M20.8866 11.8333H23.2266C23.2708 11.8333 23.3132 11.8509 23.3445 11.8822C23.3757 11.9134 23.3933 11.9558 23.3933 12C23.3933 12.0442 23.3757 12.0866 23.3445 12.1179C23.3132 12.1491 23.2708 12.1667 23.2266 12.1667H20.8866C20.8424 12.1667 20.8 12.1491 20.7688 12.1179C20.7375 12.0866 20.72 12.0442 20.72 12C20.72 11.9558 20.7375 11.9134 20.7688 11.8822C20.8 11.8509 20.8424 11.8333 20.8866 11.8333Z"
            fill="#FDBF1E" stroke="currentColor" />
        <path id="Vector_7"
            d="M4.7865 19.5534C4.78505 19.5158 4.79639 19.4789 4.81846 19.4487L6.43535 17.8318C6.46556 17.8097 6.50245 17.7984 6.54009 17.7998C6.58203 17.8014 6.62182 17.8188 6.6515 17.8485C6.68119 17.8782 6.69857 17.918 6.70019 17.9599C6.70165 17.9976 6.69031 18.0345 6.66824 18.0647L5.05135 19.6816C5.02113 19.7036 4.98425 19.715 4.94661 19.7135C4.90467 19.7119 4.86488 19.6945 4.83519 19.6648C4.80551 19.6351 4.78812 19.5954 4.7865 19.5534Z"
            fill="#FDBF1E" stroke="currentColor" />
        <path id="Vector_8"
            d="M20.1815 4.55133L18.5647 6.16823C18.5344 6.19029 18.4976 6.20163 18.4599 6.20018C18.418 6.19856 18.3782 6.18117 18.3485 6.15149C18.3188 6.12181 18.3014 6.08202 18.2998 6.04007C18.2984 6.00243 18.3097 5.96555 18.3318 5.93533L19.9487 4.31844C19.9789 4.29637 20.0158 4.28503 20.0534 4.28649C20.0953 4.28811 20.1351 4.3055 20.1648 4.33518C20.1945 4.36486 20.2119 4.40465 20.2135 4.4466C20.215 4.48423 20.2036 4.52112 20.1815 4.55133Z"
            fill="#FDBF1E" stroke="currentColor" />
        <path id="Vector_9"
            d="M18.6667 12C18.6667 15.4058 15.9058 18.1667 12.5 18.1667C9.09428 18.1667 6.33337 15.4058 6.33337 12C6.33337 8.59425 9.09428 5.83334 12.5 5.83334C15.9058 5.83334 18.6667 8.59425 18.6667 12Z"
            fill="currentColor" stroke="currentColor" />
    </g>
</svg>