<svg width="24" height="24" viewBox="0 0 24 24" fill="none" xmlns="http://www.w3.org/2000/svg">
<path d="M4.31885 10.3128V16.3018C4.26868 18.7503 4.96069 19.6054 5.92126 20.2123C6.6707 20.9626 7.87852 20.9626 10.2924 20.9626H14.5603C16.9751 20.9626 18.1821 20.9626 18.9315 20.2115C19.6827 19.4612 19.6827 18.2533 19.6827 15.836V10.2826C19.6827 7.86698 19.2164 6.29376 18.4652 5.54261" stroke="#2C3034" stroke-width="1.5" stroke-linecap="round" stroke-linejoin="round"/>
<path d="M7.73512 4.31775C6.40695 4.35787 5.61568 4.50554 5.06768 5.05354C4.31738 5.80469 4.31738 7.0125 4.31738 9.42899V14.9824C4.31738 17.3997 4.31738 18.6075 5.06768 19.3587C5.81712 20.109 7.02494 20.109 9.43887 20.109H13.7068C16.1215 20.109 17.3285 20.109 18.078 19.3578C18.8291 18.6075 18.8291 17.3997 18.8291 14.9824V9.42899C18.8291 7.01336 18.8291 5.80469 18.078 5.05354C17.5308 4.50554 16.7387 4.35787 15.4105 4.31775" fill="var(--Active-Tabs)"/>
<path d="M7.73512 4.31775C6.40695 4.35787 5.61568 4.50554 5.06768 5.05354C4.31738 5.80469 4.31738 7.0125 4.31738 9.42899V14.9824C4.31738 17.3997 4.31738 18.6075 5.06768 19.3587C5.81712 20.109 7.02494 20.109 9.43887 20.109H13.7068C16.1215 20.109 17.3285 20.109 18.078 19.3578C18.8291 18.6075 18.8291 17.3997 18.8291 14.9824V9.42899C18.8291 7.01336 18.8291 5.80469 18.078 5.05354C17.5308 4.50554 16.7387 4.35787 15.4105 4.31775" stroke="#2C3034" stroke-width="1.5" stroke-linecap="round" stroke-linejoin="round"/>
<path d="M7.73169 4.53118C7.73169 3.70662 8.4009 3.03741 9.22546 3.03741H13.9201C14.3163 3.03741 14.6963 3.19479 14.9764 3.47493C15.2565 3.75506 15.4139 4.13501 15.4139 4.53118C15.4139 4.92735 15.2565 5.3073 14.9764 5.58743C14.6963 5.86757 14.3163 6.02495 13.9201 6.02495H9.22546C8.82928 6.02495 8.44934 5.86757 8.1692 5.58743C7.88907 5.3073 7.73169 4.92735 7.73169 4.53118Z" fill="var(--Active-Tabs)" stroke="#2C3034" stroke-width="1.5" stroke-linecap="round" stroke-linejoin="round"/>
<path d="M8.15894 15.025H11.5733M8.15894 10.7571H14.9876" stroke="#2C3034" stroke-width="1.5" stroke-linecap="round" stroke-linejoin="round"/>
</svg>
