<svg width="24" height="24" viewBox="0 0 24 24" fill="none" xmlns="http://www.w3.org/2000/svg">
    <path fill-rule="evenodd" clip-rule="evenodd"
        d="M19.7525 13.9524C19.9439 13.2533 20.0461 12.5174 20.0461 11.7576C20.0461 10.9978 19.9439 10.2619 19.7525 9.56281H16.508C16.5891 10.2683 16.632 11.0029 16.632 11.7576C16.632 12.5123 16.5891 13.247 16.508 13.9524H19.7525ZM19.1976 15.4156H16.2774C15.9482 17.0423 15.406 18.4509 14.7199 19.5031C16.6776 18.7532 18.2784 17.2824 19.1976 15.4156ZM15.0344 13.9524C15.1215 13.2564 15.1688 12.5213 15.1688 11.7576C15.1688 10.9939 15.1215 10.2588 15.0344 9.56281H8.47492C8.38779 10.2588 8.34052 10.9939 8.34052 11.7576C8.34052 12.5213 8.38779 13.2564 8.47492 13.9524H15.0344ZM8.72777 15.4156H14.7815C14.5605 16.4044 14.2555 17.2793 13.8947 18.0008C13.0899 19.6105 12.2487 20.0491 11.7547 20.0491C11.2606 20.0491 10.4194 19.6105 9.61458 18.0008C9.25383 17.2793 8.94883 16.4044 8.72777 15.4156ZM7.00128 13.9524C6.92018 13.247 6.87733 12.5123 6.87733 11.7576C6.87733 11.0029 6.92018 10.2683 7.00128 9.56281H3.7568C3.5654 10.2619 3.4632 10.9978 3.4632 11.7576C3.4632 12.5174 3.5654 13.2533 3.7568 13.9524H7.00128ZM4.31166 15.4156H7.23186C7.56109 17.0423 8.10334 18.4509 8.78943 19.5031C6.83174 18.7532 5.23088 17.2824 4.31166 15.4156ZM14.7199 4.0121C16.6776 4.76202 18.2784 6.2328 19.1976 8.09961H16.2774C15.9482 6.47294 15.406 5.06431 14.7199 4.0121ZM13.8947 5.51438C14.2555 6.23588 14.5605 7.11085 14.7815 8.09961H8.72777C8.94883 7.11085 9.25383 6.23588 9.61458 5.51438C10.4194 3.90468 11.2606 3.46615 11.7547 3.46615C12.2487 3.46615 13.0899 3.90468 13.8947 5.51438ZM8.78943 4.0121C8.10334 5.06431 7.56109 6.47294 7.23186 8.09961H4.31166C5.23088 6.2328 6.83174 4.76202 8.78943 4.0121ZM11.7547 2.00295C6.36891 2.13431 2 6.37026 2 11.7576C2 14.5755 3.1948 17.1142 5.10544 18.895C6.88616 20.8054 9.42477 22 12.2424 22C17.6297 22 21.8657 17.6311 21.9971 12.2453C22.135 6.59029 17.4097 1.86501 11.7547 2.00295Z"
        fill="currentColor" />
</svg>