<svg width="24" height="24" viewBox="0 0 24 24" fill="none" xmlns="http://www.w3.org/2000/svg">
<path d="M4.31897 10.3127V16.3017C4.2688 18.7502 4.96081 19.6053 5.92138 20.2122C6.67082 20.9625 7.87864 20.9625 10.2926 20.9625H14.5605C16.9752 20.9625 18.1822 20.9625 18.9317 20.2113C19.6828 19.461 19.6828 18.2532 19.6828 15.8359V10.2825C19.6828 7.86685 19.2165 6.29363 18.4653 5.54248" stroke="currentColor" stroke-width="1.5" stroke-linecap="round" stroke-linejoin="round"/>
<path d="M7.73512 4.31763C6.40695 4.35775 5.61568 4.50541 5.06768 5.05341C4.31738 5.80456 4.31738 7.01238 4.31738 9.42887V14.9823C4.31738 17.3996 4.31738 18.6074 5.06768 19.3586C5.81712 20.1089 7.02494 20.1089 9.43887 20.1089H13.7068C16.1215 20.1089 17.3285 20.1089 18.078 19.3577C18.8291 18.6074 18.8291 17.3996 18.8291 14.9823V9.42887C18.8291 7.01323 18.8291 5.80456 18.078 5.05341C17.5308 4.50541 16.7387 4.35775 15.4105 4.31763" stroke="currentColor" stroke-width="1.5" stroke-linecap="round" stroke-linejoin="round"/>
<path d="M7.73193 4.53112C7.73193 3.70656 8.40114 3.03735 9.2257 3.03735H13.9204C14.3166 3.03735 14.6965 3.19473 14.9766 3.47487C15.2568 3.755 15.4142 4.13495 15.4142 4.53112C15.4142 4.92729 15.2568 5.30724 14.9766 5.58737C14.6965 5.86751 14.3166 6.02489 13.9204 6.02489H9.2257C8.82953 6.02489 8.44958 5.86751 8.16945 5.58737C7.88931 5.30724 7.73193 4.92729 7.73193 4.53112Z" stroke="currentColor" stroke-width="1.5" stroke-linecap="round" stroke-linejoin="round"/>
<path d="M8.15918 15.025H11.5735M8.15918 10.7571H14.9878" stroke="currentColor" stroke-width="1.5" stroke-linecap="round" stroke-linejoin="round"/>
</svg>
