<svg width="49" height="48" viewBox="0 0 49 48" fill="none" xmlns="http://www.w3.org/2000/svg">
<path d="M24.5 8.26893e-08C19.7533 8.26893e-08 15.1131 1.40758 11.1663 4.04473C7.21954 6.68188 4.1434 10.4302 2.3269 14.8156C0.510399 19.201 0.0351188 24.0266 0.961164 28.6822C1.88721 33.3377 4.17299 37.6141 7.52945 40.9706C10.8859 44.327 15.1623 46.6128 19.8178 47.5388C24.4734 48.4649 29.299 47.9896 33.6844 46.1731C38.0698 44.3566 41.8181 41.2805 44.4553 37.3337C47.0924 33.3869 48.5 28.7467 48.5 24C48.5003 20.8482 47.8797 17.7272 46.6736 14.8153C45.4676 11.9034 43.6998 9.25751 41.4711 7.02885C39.2425 4.80019 36.5966 3.03238 33.6847 1.82636C30.7728 0.620338 27.6518 -0.000261549 24.5 8.26893e-08ZM32.1308 36.3659C32.041 36.5899 31.9043 36.7921 31.73 36.959C31.5556 37.1258 31.3476 37.2535 31.1198 37.3333C30.8921 37.4132 30.6499 37.4435 30.4095 37.4222C30.1692 37.4008 29.9361 37.3283 29.726 37.2095L23.2108 32.147L19.0293 36.0048C18.9322 36.0765 18.8187 36.1226 18.6992 36.1389C18.5797 36.1553 18.458 36.1413 18.3453 36.0982L19.1469 28.9259L19.1725 28.9463L19.1889 28.8047C19.1889 28.8047 30.9129 18.1307 31.3905 17.6759C31.874 17.2223 31.7145 17.1239 31.7145 17.1239C31.742 16.5706 30.8469 17.1239 30.8469 17.1239L15.3128 27.1176L8.84363 24.9144C8.84363 24.9144 7.85003 24.558 7.75643 23.7744C7.65803 22.9968 8.87601 22.5744 8.87601 22.5744L34.5968 12.3564C34.5968 12.3564 36.7112 11.4143 36.7112 12.9744L32.1308 36.3659Z" fill="#EBDEDC"/>
<path d="M32.1308 36.3659C32.041 36.5899 31.9043 36.7921 31.73 36.959C31.5556 37.1258 31.3476 37.2535 31.1198 37.3333C30.8921 37.4132 30.6499 37.4435 30.4095 37.4222C30.1692 37.4008 29.9361 37.3283 29.726 37.2095L23.2108 32.147L19.0293 36.0048C18.9322 36.0765 18.8187 36.1226 18.6992 36.1389C18.5797 36.1553 18.458 36.1413 18.3453 36.0982L19.1469 28.9259L19.1725 28.9463L19.1889 28.8047C19.1889 28.8047 30.9129 18.1307 31.3905 17.6759C31.874 17.2223 31.7145 17.1239 31.7145 17.1239C31.742 16.5706 30.8469 17.1239 30.8469 17.1239L15.3128 27.1176L8.84363 24.9144C8.84363 24.9144 7.85003 24.558 7.75643 23.7744C7.65803 22.9968 8.87601 22.5744 8.87601 22.5744L34.5968 12.3564C34.5968 12.3564 36.7112 11.4143 36.7112 12.9744L32.1308 36.3659Z" fill="#2C3034"/>
</svg>
