<svg width="24" height="24" viewBox="0 0 24 24" fill="none" xmlns="http://www.w3.org/2000/svg">
    <path
        d="M8 17C8 17.5523 8.44772 18 9 18C9.55228 18 10 17.5523 10 17C10 15.1655 9.14968 13.882 8.05717 13L22 13C22.5523 13 23 12.5523 23 12C23 11.4477 22.5523 11 22 11L8.05717 11C9.14968 10.118 10 8.83453 10 7C10 6.44772 9.55229 6 9 6C8.44772 6 8 6.44772 8 7C8 8.61443 6.93162 9.59949 5.45922 10.231C3.98197 10.8645 2.37322 11 2 11C1.44772 11 1 11.4477 1 12C1 12.5523 1.44772 13 2 13C2.37322 13 3.98197 13.1355 5.45922 13.769C6.93162 14.4005 8 15.3856 8 17Z"
        fill="var(--Black-Primary)" />
</svg>