<svg width="32" height="32" viewBox="0 0 32 32" fill="none" xmlns="http://www.w3.org/2000/svg">
<path d="M32 16C32 24.8366 24.8366 32 16 32C7.16344 32 0 24.8366 0 16C0 7.16344 7.16344 0 16 0C24.8366 0 32 7.16344 32 16Z" fill="#D9D9D9"/>
<circle cx="16" cy="16" r="16" fill="#F3EBEA"/>
<path d="M26.4016 9.30861C25.6198 9.66112 24.7931 9.89415 23.9472 10.0005C24.8397 9.44624 25.5085 8.57438 25.8296 7.54658C24.9909 8.06553 24.0728 8.43116 23.1152 8.62758C22.4751 7.90609 21.6227 7.42583 20.6918 7.26212C19.7608 7.09841 18.8039 7.2605 17.9711 7.72299C17.1383 8.18547 16.4768 8.92219 16.0902 9.81758C15.7037 10.713 15.6139 11.7164 15.8352 12.6705C14.1394 12.5814 12.4806 12.1224 10.9666 11.3234C9.45255 10.5245 8.11716 9.40341 7.04716 8.03303C6.67187 8.71424 6.47466 9.4857 6.47516 10.2707C6.47383 10.9997 6.64595 11.7177 6.97619 12.3609C7.30643 13.004 7.78454 13.5523 8.36796 13.9569C7.68986 13.9377 7.02624 13.7486 6.43356 13.4056V13.4596C6.43864 14.4811 6.783 15.4693 7.40837 16.2572C8.03374 17.0452 8.90175 17.5844 9.86556 17.7836C9.49455 17.901 9.10935 17.9629 8.72156 17.9674C8.45313 17.9642 8.18536 17.9389 7.92076 17.8917C8.19523 18.7704 8.72637 19.5383 9.44028 20.0885C10.1542 20.6388 11.0154 20.944 11.904 20.9618C10.4035 22.189 8.55088 22.8588 6.64156 22.8643C6.29393 22.8655 5.94657 22.8439 5.60156 22.7995C7.55097 24.1078 9.82273 24.8023 12.1432 24.7993C13.7444 24.8166 15.333 24.5021 16.816 23.8741C18.299 23.2461 19.6468 22.3172 20.7806 21.1418C21.9144 19.9663 22.8114 18.5678 23.4194 17.0279C24.0274 15.4881 24.3341 13.8377 24.3216 12.1733C24.3216 11.9895 24.3216 11.7949 24.3216 11.6003C25.1376 10.9677 25.8415 10.1922 26.4016 9.30861Z" fill="#2C3034"/>
</svg>
