<svg width="16" height="16" viewBox="0 0 16 16" fill="none" xmlns="http://www.w3.org/2000/svg">
    <path
        d="M4.66667 5.21906C4.29848 5.21906 4 5.50901 4 5.86668C4 6.22435 4.29848 6.5143 4.66667 6.5143C5.88969 6.5143 6.7453 5.96362 7.33333 5.25608L7.33334 12.0191C7.33334 12.3767 7.63181 12.6667 8 12.6667C8.36819 12.6667 8.66667 12.3767 8.66667 12.0191L8.66667 5.25608C9.2547 5.96362 10.1103 6.5143 11.3333 6.5143C11.7015 6.5143 12 6.22435 12 5.86668C12 5.50901 11.7015 5.21906 11.3333 5.21906C10.2571 5.21906 9.60034 4.52716 9.17937 3.5736C8.75701 2.61691 8.66667 1.57505 8.66667 1.33335C8.66667 0.975679 8.36819 0.68573 8 0.68573C7.63181 0.68573 7.33333 0.975679 7.33333 1.33335C7.33333 1.57505 7.243 2.61691 6.82064 3.5736C6.39966 4.52716 5.74295 5.21906 4.66667 5.21906Z"
        fill="currentColor" />
    <path fill-rule="evenodd" clip-rule="evenodd"
        d="M2.00004 10.6667C2.36823 10.6667 2.66671 10.9652 2.66671 11.3334V14H13.3334V11.3334C13.3334 10.9652 13.6319 10.6667 14 10.6667C14.3682 10.6667 14.6667 10.9652 14.6667 11.3334V14C14.6667 14.7364 14.0698 15.3334 13.3334 15.3334H2.66671C1.93033 15.3334 1.33337 14.7364 1.33337 14V11.3334C1.33337 10.9652 1.63185 10.6667 2.00004 10.6667Z"
        fill="currentColor" />
</svg>