<svg width="24" height="24" viewBox="0 0 24 24" fill="none" xmlns="http://www.w3.org/2000/svg">
    <path
        d="M10.8789 2.01386C11.4756 1.34258 12.5244 1.34258 13.1211 2.01386L13.7031 2.66859C14.3041 3.3447 15.2234 3.64341 16.107 3.44967L16.9627 3.26207C17.84 3.06972 18.6885 3.68622 18.7767 4.58002L18.8627 5.45178C18.9515 6.35202 19.5197 7.13405 20.3484 7.49669L21.1509 7.84787C21.9737 8.20792 22.2979 9.20544 21.8438 9.98036L21.401 10.7362C20.9437 11.5167 20.9437 12.4833 21.401 13.2638L21.8438 14.0196C22.2979 14.7946 21.9737 15.7921 21.1509 16.1521L20.3484 16.5033C19.5197 16.8659 18.9515 17.648 18.8627 18.5482L18.7767 19.42C18.6885 20.3138 17.84 20.9303 16.9627 20.7379L16.107 20.5503C15.2234 20.3566 14.3041 20.6553 13.7031 21.3314L13.1211 21.9861C12.5244 22.6574 11.4756 22.6574 10.8789 21.9861L10.2969 21.3314C9.69592 20.6553 8.77658 20.3566 7.89297 20.5503L7.03729 20.7379C6.16 20.9303 5.31146 20.3138 5.22329 19.42L5.1373 18.5482C5.0485 17.648 4.48032 16.8659 3.65158 16.5033L2.84906 16.1521C2.02625 15.7921 1.70214 14.7946 2.15617 14.0196L2.59901 13.2638C3.05632 12.4833 3.05632 11.5167 2.59901 10.7362L2.15617 9.98036C1.70214 9.20544 2.02625 8.20792 2.84906 7.84787L3.65159 7.49669C4.48032 7.13405 5.0485 6.35202 5.1373 5.45178L5.22329 4.58001C5.31146 3.68622 6.16 3.06972 7.03729 3.26207L7.89297 3.44967C8.77658 3.64341 9.69592 3.3447 10.2969 2.66859L10.8789 2.01386Z"
        fill="#ECCA96" stroke="#2C3034" />
    <path
        d="M11.7369 15.2002C11.7368 15.2007 11.7369 15.2008 11.7369 15.2002L11.7369 15.1996C11.7373 15.1942 11.7391 15.166 11.7485 15.1087C11.759 15.0446 11.7763 14.9605 11.8018 14.8574C11.8529 14.6512 11.9321 14.3888 12.0403 14.0888C12.2569 13.4879 12.5792 12.7656 12.9964 12.0747C13.8688 10.6298 14.9798 9.6 16.2105 9.6C16.6465 9.6 17 9.24183 17 8.8C17 8.35817 16.6465 8 16.2105 8C14.092 8 12.5714 9.71302 11.6496 11.2396C11.3567 11.7246 11.1064 12.2192 10.8997 12.6866C10.1873 11.7706 9.07642 11.2 7.78947 11.2C7.35346 11.2 7 11.5582 7 12C7 12.4418 7.35346 12.8 7.78947 12.8C9.15797 12.8 10.1579 13.8133 10.1579 15.2C10.1579 15.6418 10.5114 16 10.9474 16C11.3834 16 11.7369 15.6421 11.7369 15.2002Z"
        fill="#2C3034" />
</svg>