<svg width="24" height="24" viewBox="0 0 24 24" fill="none" xmlns="http://www.w3.org/2000/svg">
    <path
        d="M10.5052 1.68168C11.3008 0.786644 12.6992 0.786644 13.4948 1.68168L14.0768 2.33641C14.5576 2.87729 15.2931 3.11626 16 2.96128L16.8556 2.77367C18.0254 2.5172 19.1567 3.33921 19.2743 4.53093L19.3603 5.4027C19.4313 6.12289 19.8859 6.74852 20.5489 7.03863L21.3514 7.3898C22.4485 7.86987 22.8806 9.1999 22.2752 10.2331L21.8324 10.9889C21.4665 11.6133 21.4665 12.3867 21.8324 13.0111L22.2752 13.7669C22.8806 14.8001 22.4485 16.1301 21.3514 16.6102L20.5489 16.9614C19.8859 17.2515 19.4313 17.8771 19.3603 18.5973L19.2743 19.4691C19.1567 20.6608 18.0254 21.4828 16.8556 21.2263L16 21.0387C15.2931 20.8837 14.5576 21.1227 14.0768 21.6636L13.4948 22.3183C12.6992 23.2134 11.3008 23.2134 10.5052 22.3183L9.9232 21.6636C9.44241 21.1227 8.70694 20.8837 8.00005 21.0387L7.14438 21.2263C5.97465 21.4828 4.84326 20.6608 4.72571 19.4691L4.63971 18.5973C4.56867 17.8771 4.11413 17.2515 3.45114 16.9614L2.64861 16.6102C1.55154 16.1301 1.11939 14.8001 1.72477 13.7669L2.16761 13.0111C2.53345 12.3867 2.53345 11.6133 2.16761 10.9889L1.72477 10.2331C1.11939 9.1999 1.55154 7.86987 2.64862 7.3898L3.45114 7.03863C4.11413 6.74852 4.56867 6.12289 4.63971 5.4027L4.72571 4.53093C4.84326 3.33921 5.97465 2.5172 7.14438 2.77367L8.00005 2.96128C8.70694 3.11626 9.44241 2.87729 9.9232 2.33641L10.5052 1.68168Z"
        fill="#0258F7" />
    <path
        d="M11.7369 15.2002C11.7368 15.2007 11.7369 15.2008 11.7369 15.2002L11.7369 15.1996C11.7373 15.1942 11.7391 15.166 11.7485 15.1087C11.759 15.0446 11.7763 14.9605 11.8018 14.8574C11.8529 14.6512 11.9321 14.3888 12.0403 14.0888C12.2569 13.4879 12.5792 12.7656 12.9964 12.0747C13.8688 10.6298 14.9798 9.6 16.2105 9.6C16.6465 9.6 17 9.24183 17 8.8C17 8.35817 16.6465 8 16.2105 8C14.092 8 12.5714 9.71302 11.6496 11.2396C11.3567 11.7246 11.1064 12.2192 10.8997 12.6866C10.1873 11.7706 9.07642 11.2 7.78947 11.2C7.35346 11.2 7 11.5582 7 12C7 12.4418 7.35346 12.8 7.78947 12.8C9.15797 12.8 10.1579 13.8133 10.1579 15.2C10.1579 15.6418 10.5114 16 10.9474 16C11.3834 16 11.7369 15.6421 11.7369 15.2002Z"
        fill="white" />
</svg>