<svg width="24" height="24" viewBox="0 0 24 24" fill="none" xmlns="http://www.w3.org/2000/svg">
  <path
    d="M12.9343 2.17995L13.5162 2.83468C14.1773 3.5784 15.1886 3.90698 16.1606 3.69387L17.0162 3.50627C17.7473 3.34597 18.4544 3.85973 18.5279 4.60456L18.6139 5.47633C18.7116 6.46658 19.3366 7.32682 20.2482 7.72573L21.0507 8.0769C21.7364 8.37694 22.0065 9.20821 21.6281 9.85397L21.1853 10.6098C20.6823 11.4683 20.6823 12.5317 21.1853 13.3902L21.6281 14.146C22.0065 14.7918 21.7364 15.6231 21.0507 15.9231L20.2482 16.2743C19.3366 16.6732 18.7116 17.5334 18.6139 18.5237L18.5279 19.3954C18.4544 20.1403 17.7473 20.654 17.0162 20.4937L16.1606 20.3061C15.1886 20.093 14.1773 20.4216 13.5162 21.1653L12.9343 21.8201C12.437 22.3794 11.563 22.3794 11.0657 21.8201L10.4838 21.1653C9.82267 20.4216 8.8114 20.093 7.83943 20.3061L6.98375 20.4937C6.25267 20.654 5.54555 20.1403 5.47208 19.3954L5.38609 18.5237C5.28841 17.5334 4.66341 16.6732 3.75181 16.2743L2.94928 15.9231C2.26361 15.6231 1.99351 14.7918 2.37187 14.146L2.81472 13.3902C3.31775 12.5317 3.31775 11.4683 2.81472 10.6098L2.37187 9.85397C1.99351 9.20821 2.26361 8.37694 2.94928 8.0769L3.75181 7.72573C4.66341 7.32682 5.28841 6.46658 5.38609 5.47633L5.47208 4.60456C5.54555 3.85973 6.25267 3.34597 6.98375 3.50627L7.83943 3.69387C8.8114 3.90698 9.82267 3.5784 10.4838 2.83468L11.0657 2.17995C11.563 1.62055 12.437 1.62055 12.9343 2.17995Z"
    fill="#F3EBEA" stroke="#2C3034" stroke-width="1.5" />
  <path
    d="M11.7369 15.2002C11.7372 15.1949 11.7391 15.166 11.7485 15.1087C11.759 15.0446 11.7763 14.9605 11.8018 14.8574C11.8529 14.6512 11.9321 14.3888 12.0403 14.0888C12.2569 13.4879 12.5792 12.7656 12.9964 12.0747C13.8688 10.6298 14.9798 9.6 16.2105 9.6C16.6465 9.6 17 9.24183 17 8.8C17 8.35817 16.6465 8 16.2105 8C14.092 8 12.5714 9.71302 11.6496 11.2396C11.3567 11.7246 11.1064 12.2192 10.8997 12.6866C10.1873 11.7706 9.07642 11.2 7.78947 11.2C7.35346 11.2 7 11.5582 7 12C7 12.4418 7.35346 12.8 7.78947 12.8C9.15797 12.8 10.1579 13.8133 10.1579 15.2C10.1579 15.6418 10.5114 16 10.9474 16C11.3834 16 11.7369 15.6421 11.7369 15.2002Z"
    fill="#2C3034" />
</svg>