<svg width="24" height="24" viewBox="0 0 24 24" fill="none" xmlns="http://www.w3.org/2000/svg">
<path d="M19.6323 12C19.6323 12.2652 19.527 12.5196 19.3394 12.7071C19.1519 12.8946 18.8975 13 18.6323 13C18.3671 13 18.1128 12.8946 17.9252 12.7071C17.7377 12.5196 17.6323 12.2652 17.6323 12C17.6323 11.7348 17.7377 11.4804 17.9252 11.2929C18.1128 11.1054 18.3671 11 18.6323 11C18.8975 11 19.1519 11.1054 19.3394 11.2929C19.527 11.4804 19.6323 11.7348 19.6323 12Z" fill="currentColor"/>
<path fill-rule="evenodd" clip-rule="evenodd" d="M10.5763 3.25H13.6883C15.5263 3.25 16.9823 3.25 18.1213 3.403C19.2933 3.561 20.2423 3.893 20.9913 4.641C21.9153 5.566 22.2103 6.804 22.3173 8.411C22.8943 8.664 23.3303 9.201 23.3773 9.881C23.3823 9.942 23.3823 10.007 23.3823 10.067V13.933C23.3823 13.993 23.3823 14.058 23.3783 14.118C23.3303 14.798 22.8943 15.336 22.3173 15.59C22.2103 17.196 21.9153 18.434 20.9913 19.359C20.2423 20.107 19.2933 20.439 18.1213 20.597C16.9813 20.75 15.5263 20.75 13.6883 20.75H10.5763C8.73832 20.75 7.28232 20.75 6.14332 20.597C4.97132 20.439 4.02232 20.107 3.27332 19.359C2.52532 18.61 2.19332 17.661 2.03532 16.489C1.88232 15.349 1.88232 13.894 1.88232 12.056V11.944C1.88232 10.106 1.88232 8.65 2.03532 7.511C2.19332 6.339 2.52532 5.39 3.27332 4.641C4.02232 3.893 4.97132 3.561 6.14332 3.403C7.28332 3.25 8.73832 3.25 10.5763 3.25ZM20.8003 15.75H18.8623C16.7173 15.75 14.8813 14.122 14.8813 12C14.8813 9.878 16.7173 8.25 18.8613 8.25H20.7993C20.6853 6.909 20.4283 6.2 19.9293 5.702C19.5063 5.279 18.9263 5.025 17.9203 4.89C16.8933 4.752 15.5383 4.75 13.6313 4.75H10.6313C8.72432 4.75 7.37032 4.752 6.34132 4.89C5.33632 5.025 4.75632 5.279 4.33332 5.702C3.91032 6.125 3.65732 6.705 3.52232 7.71C3.38432 8.738 3.38232 10.092 3.38232 11.999C3.38232 13.906 3.38432 15.261 3.52232 16.289C3.65732 17.294 3.91132 17.874 4.33432 18.297C4.75732 18.72 5.33732 18.974 6.34332 19.109C7.37132 19.247 8.72532 19.249 10.6323 19.249H13.6323C15.5393 19.249 16.8943 19.247 17.9223 19.109C18.9273 18.974 19.5073 18.72 19.9303 18.297C20.4293 17.799 20.6863 17.091 20.8003 15.749M5.88232 8C5.88232 7.80109 5.96134 7.61032 6.10199 7.46967C6.24265 7.32902 6.43341 7.25 6.63232 7.25H10.6323C10.8312 7.25 11.022 7.32902 11.1627 7.46967C11.3033 7.61032 11.3823 7.80109 11.3823 8C11.3823 8.19891 11.3033 8.38968 11.1627 8.53033C11.022 8.67098 10.8312 8.75 10.6323 8.75H6.63232C6.43341 8.75 6.24265 8.67098 6.10199 8.53033C5.96134 8.38968 5.88232 8.19891 5.88232 8ZM21.5563 9.75H18.8623C17.4383 9.75 16.3813 10.809 16.3813 12C16.3813 13.191 17.4383 14.25 18.8613 14.25H21.5793C21.7853 14.237 21.8743 14.098 21.8813 14.014V9.986C21.8743 9.902 21.7853 9.763 21.5793 9.751L21.5563 9.75Z" fill="currentColor"/>
</svg>
